<?xml version="1.0" encoding="utf-8"?>
<!-- Generator: Adobe Illustrator 18.0.0, SVG Export Plug-In . SVG Version: 6.00 Build 0)  -->
<!DOCTYPE svg PUBLIC "-//W3C//DTD SVG 1.1//EN" "http://www.w3.org/Graphics/SVG/1.1/DTD/svg11.dtd">
<svg version="1.1" xmlns="http://www.w3.org/2000/svg" xmlns:xlink="http://www.w3.org/1999/xlink" x="0px" y="0px"
	 viewBox="0 0 720 560" style="enable-background:new 0 0 720 560;" xml:space="preserve">
<g id="Layer_1">
	<rect x="-3.898" y="-2.243" style="fill:#FEE9C8;" width="727.508" height="567.051"/>
	<circle style="fill:#F0FF17;stroke:#000000;stroke-miterlimit:10;" cx="338.667" cy="285.667" r="113.333"/>
	<text transform="matrix(1 0 0 1 477.334 286.9995)" style="font-family:'ArialMT'; font-size:15;">Some text here.</text>
	<text transform="matrix(0.981 0.194 -0.194 0.981 471.5371 311.2225)" style="font-family:'ArialMT'; font-size:15;">Some text here.</text>
	<text transform="matrix(0.766 0.6428 -0.6428 0.766 442.1068 375.4451)" style="font-family:'ArialMT'; font-size:15;">Some text here.</text>
	<text transform="matrix(0.5 0.866 -0.866 0.5 403.8401 405.5061)" style="font-family:'ArialMT'; font-size:15;">Some text here.</text>
	<text transform="matrix(0.1736 0.9848 -0.9848 0.1736 358.176 420.885)" style="font-family:'ArialMT'; font-size:15;">Some text here.</text>
	<text transform="matrix(-0.1736 0.9848 -0.9848 -0.1736 309.7923 419.2727)" style="font-family:'ArialMT'; font-size:15;">Some text here.</text>
	<text transform="matrix(-0.5 0.866 -0.866 -0.5 264.6528 401.6394)" style="font-family:'ArialMT'; font-size:15;">Some text here.</text>
	<text transform="matrix(-0.766 0.6428 -0.6428 -0.766 228.8475 369.8372)" style="font-family:'ArialMT'; font-size:15;">Some text here.</text>
	<text transform="matrix(-0.9397 0.342 -0.342 -0.9397 205.4829 326.4433)" style="font-family:'ArialMT'; font-size:15;">Some text here.</text>
	<text transform="matrix(-0.9397 -0.342 0.342 -0.9397 208.5683 231.7238)" style="font-family:'ArialMT'; font-size:15;">Some text here.</text>
	<text transform="matrix(-0.766 -0.6428 0.6428 -0.766 234.2022 189.7895)" style="font-family:'ArialMT'; font-size:15;">Some text here.</text>
	<text transform="matrix(-0.5 -0.866 0.866 -0.5 271.9336 160.0325)" style="font-family:'ArialMT'; font-size:15;">Some text here.</text>
	<text transform="matrix(-0.1736 -0.9848 0.9848 -0.1736 317.8558 144.9959)" style="font-family:'ArialMT'; font-size:15;">Some text here.</text>
	<text transform="matrix(0.1736 -0.9848 0.9848 0.1736 366.3488 146.4179)" style="font-family:'ArialMT'; font-size:15;">Some text here.</text>
	<text transform="matrix(0.5 -0.866 0.866 0.5 409.9874 162.347)" style="font-family:'ArialMT'; font-size:15;">Some text here.</text>
	<text transform="matrix(0.6395 -0.7688 0.7688 0.6395 442.0992 186.6613)" style="font-family:'ArialMT'; font-size:15;">Some text here.</text>
	<text transform="matrix(0.9397 -0.342 0.342 0.9397 474.2287 235.7741)" style="font-family:'ArialMT'; font-size:15;">Some text here.</text>
	<text transform="matrix(0.866 0.5 -0.5 0.866 456.7478 357.9773)" style="font-family:'ArialMT'; font-size:15;">Some text here.</text>
	<text transform="matrix(-4.371139e-08 1 -1 -4.371139e-08 331.7306 426.7665)" style="font-family:'ArialMT'; font-size:15;">Some text here.</text>
	<text transform="matrix(-0.866 0.5 -0.5 -0.866 209.6795 352.4805)" style="font-family:'ArialMT'; font-size:15;">Some text here.</text>
	<text transform="matrix(-0.866 -0.5 0.5 -0.866 212.1644 209.4971)" style="font-family:'ArialMT'; font-size:15;">Some text here.</text>
	<text transform="matrix(-4.371139e-08 -1 1 -4.371139e-08 337.7147 141.7604)" style="font-family:'ArialMT'; font-size:15;">Some text here.</text>
	<text transform="matrix(1 0 0 1 286.5684 286.9995)" style="font-family:'ArialMT'; font-size:15;">Some text here.</text>
	<text transform="matrix(0.7154 0 0.6987 0.7154 602.1253 112.9618)" style="font-family:'ArialMT'; font-size:42.0223;">Skewed</text>
	<text transform="matrix(0.5059 -0.5059 0.9999 0.0118 522.6233 522.7177)" style="font-family:'ArialMT'; font-size:15;">Skewed and rotated.</text>
	<g>
		<text transform="matrix(0.2924 0.6529 -0.3673 0.9301 27.7217 326.4681)" style="font-family:'ArialMT'; font-size:30.4547;">Skewed and rotated.</text>
		
			<text transform="matrix(0.2924 0.6529 -0.3673 0.9301 27.7217 326.4681)" style="fill:#231F20; font-family:'ArialMT'; font-size:30.4547;">Skewed and rotated.</text>
	</g>
	<line style="fill:none;" x1="396" y1="179" x2="410" y2="179"/>
	<circle style="fill:#F0FF17;stroke:#000000;stroke-miterlimit:10;" cx="1231.496" cy="118.527" r="49.801"/>
	<text transform="matrix(1 0 0 1 1292.4301 119.1128)" style="font-family:'ArialMT'; font-size:15;">Some text here.</text>
	<text transform="matrix(0.981 0.1941 -0.1941 0.981 1289.8829 129.7543)" style="font-family:'ArialMT'; font-size:15;">Some text here.</text>
	<text transform="matrix(0.766 0.6428 -0.6428 0.766 1276.9518 157.9756)" style="font-family:'ArialMT'; font-size:15;">Some text here.</text>
	<text transform="matrix(0.5 0.866 -0.866 0.5 1260.1417 171.1875)" style="font-family:'ArialMT'; font-size:15;">Some text here.</text>
	<text transform="matrix(0.1736 0.9848 -0.9848 0.1736 1240.0698 177.9453)" style="font-family:'ArialMT'; font-size:15;">Some text here.</text>
	<text transform="matrix(-0.1736 0.9848 -0.9848 -0.1736 1218.8069 177.2365)" style="font-family:'ArialMT'; font-size:15;">Some text here.</text>
	<text transform="matrix(-0.5 0.866 -0.866 -0.5 1198.9724 169.4885)" style="font-family:'ArialMT'; font-size:15;">Some text here.</text>
	<text transform="matrix(-0.766 0.6428 -0.6428 -0.766 1183.2389 155.5128)" style="font-family:'ArialMT'; font-size:15;">Some text here.</text>
	<text transform="matrix(-0.9397 0.342 -0.342 -0.9397 1172.9944 136.4668)" style="font-family:'ArialMT'; font-size:15;">Some text here.</text>
	<g>
		<text transform="matrix(-1 0 0 -1 194.0742 280.0005)" style="font-family:'ArialMT'; font-size:15;">Some text here.</text>
	</g>
	<text transform="matrix(-0.9397 -0.342 0.342 -0.9397 1174.3395 94.8232)" style="font-family:'ArialMT'; font-size:15;">Some text here.</text>
	<text transform="matrix(-0.766 -0.6428 0.6428 -0.766 1185.6031 76.4184)" style="font-family:'ArialMT'; font-size:15;">Some text here.</text>
	<text transform="matrix(-0.5 -0.866 0.866 -0.5 1202.1777 63.3202)" style="font-family:'ArialMT'; font-size:15;">Some text here.</text>
	<text transform="matrix(-0.1736 -0.9848 0.9848 -0.1736 1222.3489 56.7131)" style="font-family:'ArialMT'; font-size:15;">Some text here.</text>
	<text transform="matrix(0.1736 -0.9848 0.9848 0.1736 1243.6608 57.3381)" style="font-family:'ArialMT'; font-size:15;">Some text here.</text>
	<text transform="matrix(0.5 -0.866 0.866 0.5 1262.8362 64.348)" style="font-family:'ArialMT'; font-size:15;">Some text here.</text>
	<text transform="matrix(0.6395 -0.7688 0.7688 0.6395 1276.9512 75.0185)" style="font-family:'ArialMT'; font-size:15;">Some text here.</text>
	<text transform="matrix(0.9397 -0.342 0.342 0.9397 1291.0654 96.6035)" style="font-family:'ArialMT'; font-size:15;">Some text here.</text>
	<text transform="matrix(0.866 0.5 -0.5 0.866 1283.3831 150.3019)" style="font-family:'ArialMT'; font-size:15;">Some text here.</text>
	<text transform="matrix(-4.371139e-08 1 -1 -4.371139e-08 1228.4532 180.5244)" style="font-family:'ArialMT'; font-size:15;">Some text here.</text>
	<text transform="matrix(-0.866 0.5 -0.5 -0.866 1174.8157 147.8868)" style="font-family:'ArialMT'; font-size:15;">Some text here.</text>
	<text transform="matrix(-0.866 -0.5 0.5 -0.866 1175.9194 85.0779)" style="font-family:'ArialMT'; font-size:15;">Some text here.</text>
	<text transform="matrix(-4.371139e-08 -1 1 -4.371139e-08 1231.0785 55.2855)" style="font-family:'ArialMT'; font-size:15;">Some text here.</text>
	<text transform="matrix(1 0 0 1 1188.0952 119.1128)" style="font-family:'ArialMT'; font-size:15;">Some text here.</text>
	<text transform="matrix(0.7154 0 0.6987 0.7154 1347.2661 42.636)" style="font-family:'ArialMT'; font-size:15;">Skewed</text>
	<text transform="matrix(0.5059 -0.5059 0.9999 0.0118 1302.4351 336.2203)" style="font-family:'ArialMT'; font-size:15;">Skewed and rotated.</text>
	<g>
		<text transform="matrix(0.2924 0.6529 -0.3673 0.9301 1108.9152 142.0869)" style="font-family:'ArialMT'; font-size:15;">Skewed and rotated.</text>
		
			<text transform="matrix(0.2924 0.6529 -0.3673 0.9301 1108.9152 142.0869)" style="fill:#231F20; font-family:'ArialMT'; font-size:15;">Skewed and rotated.</text>
	</g>
	<line style="fill:none;" x1="1257" y1="72" x2="1263" y2="72"/>
	<rect x="-952" y="589" style="fill:none;" width="919" height="369"/>
	<text transform="matrix(1 0 0 1 -952 599.6494)" style="display:none;"><tspan x="0" y="0" style="display:inline; font-family:'MyriadPro-Regular'; font-size:15;">ai2html-css</tspan><tspan x="0" y="18" style="display:inline; font-family:'MyriadPro-Regular'; font-size:15;">.g-artboard  {</tspan><tspan x="0" y="36" style="display:inline; font-family:'MyriadPro-Regular'; font-size:15;">max-width: 1050px;</tspan><tspan x="0" y="54" style="display:inline; font-family:'MyriadPro-Regular'; font-size:15;">min-width: 460px;</tspan><tspan x="0" y="72" style="display:inline; font-family:'MyriadPro-Regular'; font-size:15;">}</tspan></text>
</g>
<g id="ai2html-settings">
	<rect x="-912" y="-107.667" style="fill:none;" width="400" height="462"/>
	<text transform="matrix(1 0 0 1 -912.0004 -97.0166)" style="display:none;"><tspan x="0" y="0" style="display:inline; font-family:'MyriadPro-Regular'; font-size:15;">ai2html-settings</tspan><tspan x="0" y="18" style="display:inline; font-family:'MyriadPro-Regular'; font-size:15;">settings_version: 0.51</tspan><tspan x="0" y="36" style="display:inline; font-family:'MyriadPro-Regular'; font-size:15;">image_format: svg</tspan><tspan x="0" y="54" style="display:inline; font-family:'MyriadPro-Regular'; font-size:15;">responsiveness: dynamic</tspan><tspan x="0" y="72" style="display:inline; font-family:'MyriadPro-Regular'; font-size:15;">output: one-file</tspan><tspan x="0" y="90" style="display:inline; font-family:'MyriadPro-Regular'; font-size:15;">html_output_path: /ai2html-output/</tspan><tspan x="0" y="108" style="display:inline; font-family:'MyriadPro-Regular'; font-size:15;">html_output_extension: .html</tspan><tspan x="0" y="126" style="display:inline; font-family:'MyriadPro-Regular'; font-size:15;">image_output_path: </tspan><tspan x="0" y="144" style="display:inline; font-family:'MyriadPro-Regular'; font-size:15;">local_preview_template: template.html</tspan><tspan x="0" y="162" style="display:inline; font-family:'MyriadPro-Regular'; font-size:15;">png_number_of_czolors: 128</tspan><tspan x="0" y="180" style="display:inline; font-family:'MyriadPro-Regular'; font-size:15;">jpg_quality: 80</tspan><tspan x="0" y="198" style="display:inline; font-family:'MyriadPro-Regular'; font-size:15;">headline: Ai Graphic Headline</tspan><tspan x="0" y="216" style="display:inline; font-family:'MyriadPro-Regular'; font-size:15;">leadin: Introductory text here.</tspan><tspan x="0" y="234" style="display:inline; font-family:'MyriadPro-Regular'; font-size:15;">notes: Notes: Text goes here.</tspan><tspan x="0" y="252" style="display:inline; font-family:'MyriadPro-Regular'; font-size:15;">sources: Source: Name goes here.</tspan><tspan x="0" y="270" style="display:inline; font-family:'MyriadPro-Regular'; font-size:15;">credit: By ai2html</tspan><tspan x="0" y="288" style="display:inline; font-family:'MyriadPro-Regular'; font-size:15;">render_rotated_skewed_text_as: html</tspan><tspan x="0" y="306" style="display:inline; font-family:'MyriadPro-Regular'; font-size:15;">testing_mode: yes</tspan></text>
</g>
</svg>
