<?xml version="1.0" encoding="utf-8"?>
<!-- Generator: Adobe Illustrator 18.0.0, SVG Export Plug-In . SVG Version: 6.00 Build 0)  -->
<!DOCTYPE svg PUBLIC "-//W3C//DTD SVG 1.1//EN" "http://www.w3.org/Graphics/SVG/1.1/DTD/svg11.dtd">
<svg version="1.1" xmlns="http://www.w3.org/2000/svg" xmlns:xlink="http://www.w3.org/1999/xlink" x="0px" y="0px"
	 viewBox="0 0 300 511.243" style="enable-background:new 0 0 300 511.243;" xml:space="preserve">
<g id="Layer_1">
	<rect x="-1256.898" y="0" style="fill:#FEE9C8;" width="727.508" height="567.051"/>
	<circle style="fill:#F0FF17;stroke:#000000;stroke-miterlimit:10;" cx="-914.333" cy="287.909" r="113.333"/>
	<text transform="matrix(1 0 0 1 -775.666 289.2423)" style="font-family:'ArialMT'; font-size:15;">Some text here.</text>
	<text transform="matrix(0.981 0.194 -0.194 0.981 -781.4629 313.448)" style="font-family:'ArialMT'; font-size:15;">Some text here.</text>
	<text transform="matrix(0.766 0.6428 -0.6428 0.766 -810.8799 377.6743)" style="font-family:'ArialMT'; font-size:15;">Some text here.</text>
	<text transform="matrix(0.5 0.866 -0.866 0.5 -849.114 407.7484)" style="font-family:'ArialMT'; font-size:15;">Some text here.</text>
	<text transform="matrix(0.1736 0.9848 -0.9848 0.1736 -894.824 423.1278)" style="font-family:'ArialMT'; font-size:15;">Some text here.</text>
	<text transform="matrix(-0.1736 0.9848 -0.9848 -0.1736 -943.2077 421.5155)" style="font-family:'ArialMT'; font-size:15;">Some text here.</text>
	<text transform="matrix(-0.5 0.866 -0.866 -0.5 -988.3472 403.8821)" style="font-family:'ArialMT'; font-size:15;">Some text here.</text>
	<text transform="matrix(-0.766 0.6428 -0.6428 -0.766 -1024.1525 372.079)" style="font-family:'ArialMT'; font-size:15;">Some text here.</text>
	<text transform="matrix(-0.9397 0.342 -0.342 -0.9397 -1047.3784 328.8247)" style="font-family:'ArialMT'; font-size:15;">Some text here.</text>
	<text transform="matrix(-1 0 0 -1 -1054.1111 281.1923)" style="font-family:'ArialMT'; font-size:15;">Some text here.</text>
	<text transform="matrix(-0.9397 -0.342 0.342 -0.9397 -1044.3623 233.9666)" style="font-family:'ArialMT'; font-size:15;">Some text here.</text>
	<text transform="matrix(-0.766 -0.6428 0.6428 -0.766 -1018.7285 192.171)" style="font-family:'ArialMT'; font-size:15;">Some text here.</text>
	<text transform="matrix(-0.5 -0.866 0.866 -0.5 -981.0317 162.2753)" style="font-family:'ArialMT'; font-size:15;">Some text here.</text>
	<text transform="matrix(-0.1736 -0.9848 0.9848 -0.1736 -935.1617 147.2387)" style="font-family:'ArialMT'; font-size:15;">Some text here.</text>
	<text transform="matrix(0.1736 -0.9848 0.9848 0.1736 -886.6509 148.6607)" style="font-family:'ArialMT'; font-size:15;">Some text here.</text>
	<text transform="matrix(0.5 -0.866 0.866 0.5 -843.0126 164.6591)" style="font-family:'ArialMT'; font-size:15;">Some text here.</text>
	<text transform="matrix(0.6395 -0.7688 0.7688 0.6395 -810.8776 188.8806)" style="font-family:'ArialMT'; font-size:15;">Some text here.</text>
	<text transform="matrix(0.9397 -0.342 0.342 0.9397 -778.7713 238.0166)" style="font-family:'ArialMT'; font-size:15;">Some text here.</text>
	<text transform="matrix(0.866 0.5 -0.5 0.866 -796.2523 360.2201)" style="font-family:'ArialMT'; font-size:15;">Some text here.</text>
	<text transform="matrix(-4.371139e-08 1 -1 -4.371139e-08 -921.2343 428.9744)" style="font-family:'ArialMT'; font-size:15;">Some text here.</text>
	<text transform="matrix(-0.866 0.5 -0.5 -0.866 -1043.3206 354.7232)" style="font-family:'ArialMT'; font-size:15;">Some text here.</text>
	<text transform="matrix(-0.866 -0.5 0.5 -0.866 -1040.7664 211.8785)" style="font-family:'ArialMT'; font-size:15;">Some text here.</text>
	<text transform="matrix(-4.371139e-08 -1 1 -4.371139e-08 -915.2853 143.9651)" style="font-family:'ArialMT'; font-size:15;">Some text here.</text>
	<text transform="matrix(1 0 0 1 -966.4316 289.2423)" style="font-family:'ArialMT'; font-size:15;">Some text here.</text>
	<text transform="matrix(0.7154 0 0.6987 0.7154 -650.8745 115.205)" style="font-family:'ArialMT'; font-size:20.9679;">Skewed</text>
	<text transform="matrix(0.5059 -0.5059 0.9999 0.0118 -736.3669 534.4479)" style="font-family:'ArialMT'; font-size:30.9679;">Skewed and rotated.</text>
	<g>
		<text transform="matrix(0.2924 0.6529 -0.3673 0.9301 -1193.2493 341.5238)" style="font-family:'ArialMT'; font-size:32.5775;">Skewed and rotated.</text>
		
			<text transform="matrix(0.2924 0.6529 -0.3673 0.9301 -1193.2493 341.5238)" style="fill:#231F20; font-family:'ArialMT'; font-size:32.5775;">Skewed and rotated.</text>
	</g>
	<line style="fill:none;" x1="-857" y1="181.243" x2="-843" y2="181.243"/>
	<circle style="fill:#F0FF17;stroke:#000000;stroke-miterlimit:10;" cx="115.667" cy="174.909" r="113.333"/>
	<text transform="matrix(1 0 0 1 254.334 176.2423)" style="font-family:'ArialMT'; font-size:15;">Some text here.</text>
	<text transform="matrix(0.981 0.194 -0.194 0.981 248.5372 200.448)" style="font-family:'ArialMT'; font-size:15;">Some text here.</text>
	<text transform="matrix(0.766 0.6428 -0.6428 0.766 219.12 264.6743)" style="font-family:'ArialMT'; font-size:15;">Some text here.</text>
	<text transform="matrix(0.5 0.866 -0.866 0.5 180.886 294.7484)" style="font-family:'ArialMT'; font-size:15;">Some text here.</text>
	<text transform="matrix(0.1736 0.9848 -0.9848 0.1736 135.176 310.1278)" style="font-family:'ArialMT'; font-size:15;">Some text here.</text>
	<text transform="matrix(-0.1736 0.9848 -0.9848 -0.1736 86.7923 308.5155)" style="font-family:'ArialMT'; font-size:15;">Some text here.</text>
	<text transform="matrix(-0.5 0.866 -0.866 -0.5 41.6528 290.8826)" style="font-family:'ArialMT'; font-size:15;">Some text here.</text>
	<text transform="matrix(-0.766 0.6428 -0.6428 -0.766 5.8475 259.08)" style="font-family:'ArialMT'; font-size:15;">Some text here.</text>
	<text transform="matrix(-0.9397 0.342 -0.342 -0.9397 -17.3765 215.8267)" style="font-family:'ArialMT'; font-size:15;">Some text here.</text>
	<text transform="matrix(-1 0 0 -1 -24.1116 168.1937)" style="font-family:'ArialMT'; font-size:15;">Some text here.</text>
	<text transform="matrix(-0.9397 -0.342 0.342 -0.9397 -14.3614 120.9666)" style="font-family:'ArialMT'; font-size:15;">Some text here.</text>
	<text transform="matrix(-0.766 -0.6428 0.6428 -0.766 11.2725 79.1729)" style="font-family:'ArialMT'; font-size:15;">Some text here.</text>
	<text transform="matrix(-0.5 -0.866 0.866 -0.5 48.9692 49.2753)" style="font-family:'ArialMT'; font-size:15;">Some text here.</text>
	<text transform="matrix(-0.1736 -0.9848 0.9848 -0.1736 94.8379 34.2406)" style="font-family:'ArialMT'; font-size:15;">Some text here.</text>
	<text transform="matrix(0.1736 -0.9848 0.9848 0.1736 143.3491 35.6607)" style="font-family:'ArialMT'; font-size:15;">Some text here.</text>
	<text transform="matrix(0.5 -0.866 0.866 0.5 186.9874 51.6591)" style="font-family:'ArialMT'; font-size:15;">Some text here.</text>
	<text transform="matrix(0.6395 -0.7688 0.7688 0.6395 219.1224 75.8806)" style="font-family:'ArialMT'; font-size:15;">Some text here.</text>
	<text transform="matrix(0.9397 -0.342 0.342 0.9397 251.2287 125.0171)" style="font-family:'ArialMT'; font-size:15;">Some text here.</text>
	<text transform="matrix(0.866 0.5 -0.5 0.866 233.7478 247.2201)" style="font-family:'ArialMT'; font-size:15;">Some text here.</text>
	<text transform="matrix(-4.371139e-08 1 -1 -4.371139e-08 108.7667 315.9747)" style="font-family:'ArialMT'; font-size:15;">Some text here.</text>
	<text transform="matrix(-0.866 0.5 -0.5 -0.866 -13.3205 241.7233)" style="font-family:'ArialMT'; font-size:15;">Some text here.</text>
	<text transform="matrix(-0.866 -0.5 0.5 -0.866 -10.7653 98.8805)" style="font-family:'ArialMT'; font-size:15;">Some text here.</text>
	<text transform="matrix(-4.371139e-08 -1 1 -4.371139e-08 114.7145 30.9651)" style="font-family:'ArialMT'; font-size:15;">Some text here.</text>
	<text transform="matrix(1 0 0 1 63.5684 176.2423)" style="font-family:'ArialMT'; font-size:15;">Some text here.</text>
	<text transform="matrix(0.7154 0 0.6987 0.7154 379.1255 2.205)" style="font-family:'ArialMT'; font-size:20.9679;">Skewed</text>
	<text transform="matrix(0.5059 -0.5059 0.9999 0.0118 293.6328 421.4479)" style="font-family:'ArialMT'; font-size:30.9679;">Skewed and rotated.</text>
	<g>
		<text transform="matrix(0.2924 0.6529 -0.3673 0.9301 -163.2483 228.5238)" style="font-family:'ArialMT'; font-size:32.5775;">Skewed and rotated.</text>
		
			<text transform="matrix(0.2924 0.6529 -0.3673 0.9301 -163.2483 228.5238)" style="fill:#231F20; font-family:'ArialMT'; font-size:32.5775;">Skewed and rotated.</text>
	</g>
	<line style="fill:none;" x1="173" y1="68.243" x2="187" y2="68.243"/>
</g>
<g id="ai2html-settings">
	<rect x="-2165" y="-105.424" style="fill:none;" width="400" height="462"/>
	<text transform="matrix(1 0 0 1 -2165.0002 -94.7738)" style="display:none;"><tspan x="0" y="0" style="display:inline; font-family:'MyriadPro-Regular'; font-size:15;">ai2html-settings</tspan><tspan x="0" y="18" style="display:inline; font-family:'MyriadPro-Regular'; font-size:15;">settings_version: 0.51</tspan><tspan x="0" y="36" style="display:inline; font-family:'MyriadPro-Regular'; font-size:15;">image_format: svg</tspan><tspan x="0" y="54" style="display:inline; font-family:'MyriadPro-Regular'; font-size:15;">responsiveness: dynamic</tspan><tspan x="0" y="72" style="display:inline; font-family:'MyriadPro-Regular'; font-size:15;">output: one-file</tspan><tspan x="0" y="90" style="display:inline; font-family:'MyriadPro-Regular'; font-size:15;">html_output_path: /ai2html-output/</tspan><tspan x="0" y="108" style="display:inline; font-family:'MyriadPro-Regular'; font-size:15;">html_output_extension: .html</tspan><tspan x="0" y="126" style="display:inline; font-family:'MyriadPro-Regular'; font-size:15;">image_output_path: </tspan><tspan x="0" y="144" style="display:inline; font-family:'MyriadPro-Regular'; font-size:15;">local_preview_template: template.html</tspan><tspan x="0" y="162" style="display:inline; font-family:'MyriadPro-Regular'; font-size:15;">png_number_of_czolors: 128</tspan><tspan x="0" y="180" style="display:inline; font-family:'MyriadPro-Regular'; font-size:15;">jpg_quality: 80</tspan><tspan x="0" y="198" style="display:inline; font-family:'MyriadPro-Regular'; font-size:15;">headline: Ai Graphic Headline</tspan><tspan x="0" y="216" style="display:inline; font-family:'MyriadPro-Regular'; font-size:15;">leadin: Introductory text here.</tspan><tspan x="0" y="234" style="display:inline; font-family:'MyriadPro-Regular'; font-size:15;">notes: Notes: Text goes here.</tspan><tspan x="0" y="252" style="display:inline; font-family:'MyriadPro-Regular'; font-size:15;">sources: Source: Name goes here.</tspan><tspan x="0" y="270" style="display:inline; font-family:'MyriadPro-Regular'; font-size:15;">credit: By ai2html</tspan><tspan x="0" y="288" style="display:inline; font-family:'MyriadPro-Regular'; font-size:15;">render_rotated_skewed_text_as: html</tspan><tspan x="0" y="306" style="display:inline; font-family:'MyriadPro-Regular'; font-size:15;">testing_mode: yes</tspan></text>
</g>
</svg>
