<?xml version="1.0" encoding="utf-8"?>
<!-- Generator: Adobe Illustrator 18.0.0, SVG Export Plug-In . SVG Version: 6.00 Build 0)  -->
<!DOCTYPE svg PUBLIC "-//W3C//DTD SVG 1.1//EN" "http://www.w3.org/Graphics/SVG/1.1/DTD/svg11.dtd">
<svg version="1.1" xmlns="http://www.w3.org/2000/svg" xmlns:xlink="http://www.w3.org/1999/xlink" x="0px" y="0px"
	 viewBox="0 0 720 560" style="enable-background:new 0 0 720 560;" xml:space="preserve">
<g id="Layer_1">
	<rect x="-3.898" y="-2.243" style="fill:#FEE9C8;" width="727.508" height="567.051"/>
	<circle style="fill:#F0FF17;stroke:#000000;stroke-miterlimit:10;" cx="338.667" cy="285.667" r="113.333"/>
	<text transform="matrix(1 0 0 1 477.334 286.9995)" style="font-family:'ArialMT'; font-size:15;">Some text here.</text>
	<text transform="matrix(0.981 0.194 -0.194 0.981 471.5372 311.2249)" style="font-family:'ArialMT'; font-size:15;">Some text here.</text>
	<text transform="matrix(0.766 0.6428 -0.6428 0.766 442.1039 375.4058)" style="font-family:'ArialMT'; font-size:15;">Some text here.</text>
	<text transform="matrix(0.9005 0.4348 -0.4348 0.9005 465.1042 347.4059)" style="font-family:'ArialMT'; font-size:15;">Some text here.</text>
	<text transform="matrix(0.5 0.866 -0.866 0.5 403.7815 405.4924)" style="font-family:'ArialMT'; font-size:15;">Some text here.</text>
	<text transform="matrix(0.1736 0.9848 -0.9848 0.1736 358.1409 420.9093)" style="font-family:'ArialMT'; font-size:15;">Some text here.</text>
	<text transform="matrix(-0.1736 0.9848 -0.9848 -0.1736 309.7473 419.2434)" style="font-family:'ArialMT'; font-size:15;">Some text here.</text>
	<text transform="matrix(-0.5 0.866 -0.866 -0.5 264.5649 401.6648)" style="font-family:'ArialMT'; font-size:15;">Some text here.</text>
	<text transform="matrix(-0.766 0.6428 -0.6428 -0.766 228.8436 369.9504)" style="font-family:'ArialMT'; font-size:15;">Some text here.</text>
	<text transform="matrix(-0.9397 0.342 -0.342 -0.9397 205.5024 326.4745)" style="font-family:'ArialMT'; font-size:15;">Some text here.</text>
	<text transform="matrix(-0.9397 -0.342 0.342 -0.9397 208.6113 231.7609)" style="font-family:'ArialMT'; font-size:15;">Some text here.</text>
	<text transform="matrix(-0.766 -0.6428 0.6428 -0.766 234.3067 189.7641)" style="font-family:'ArialMT'; font-size:15;">Some text here.</text>
	<text transform="matrix(-0.5 -0.866 0.866 -0.5 271.9541 159.9446)" style="font-family:'ArialMT'; font-size:15;">Some text here.</text>
	<text transform="matrix(-0.1736 -0.9848 0.9848 -0.1736 317.8304 144.9549)" style="font-family:'ArialMT'; font-size:15;">Some text here.</text>
	<text transform="matrix(0.1736 -0.9848 0.9848 0.1736 366.3745 146.3817)" style="font-family:'ArialMT'; font-size:15;">Some text here.</text>
	<text transform="matrix(0.5 -0.866 0.866 0.5 409.9742 162.2864)" style="font-family:'ArialMT'; font-size:15;">Some text here.</text>
	<text transform="matrix(0.6395 -0.7688 0.7688 0.6395 442.1058 186.6379)" style="font-family:'ArialMT'; font-size:15;">Some text here.</text>
	<text transform="matrix(0.9397 -0.342 0.342 0.9397 474.2375 235.7819)" style="font-family:'ArialMT'; font-size:15;">Some text here.</text>
	<text transform="matrix(-4.371139e-08 1 -1 -4.371139e-08 331.7267 426.7707)" style="font-family:'ArialMT'; font-size:15;">Some text here.</text>
	<text transform="matrix(-0.866 0.5 -0.5 -0.866 209.6287 352.3945)" style="font-family:'ArialMT'; font-size:15;">Some text here.</text>
	<text transform="matrix(-0.866 -0.5 0.5 -0.866 212.0677 209.4268)" style="font-family:'ArialMT'; font-size:15;">Some text here.</text>
	<text transform="matrix(-4.371139e-08 -1 1 -4.371139e-08 337.7164 141.7682)" style="font-family:'ArialMT'; font-size:15;">Some text here.</text>
	<text transform="matrix(1 0 0 1 286.5684 286.9995)" style="font-family:'ArialMT'; font-size:15;">Some text here.</text>
	<text transform="matrix(0.7154 0 0.6987 0.7154 602.1494 112.9866)" style="font-family:'ArialMT'; font-size:42.0223;">Skewed</text>
	<text transform="matrix(0.5059 -0.5059 0.9999 0.0118 522.6259 522.7503)" style="font-family:'ArialMT'; font-size:15;">Skewed and rotated.</text>
	<g>
		<text transform="matrix(0.2924 0.6529 -0.3673 0.9301 27.743 326.4365)" style="font-family:'ArialMT'; font-size:30.4547;">Skewed and rotated.</text>
		
			<text transform="matrix(0.2924 0.6529 -0.3673 0.9301 27.743 326.4365)" style="fill:#231F20; font-family:'ArialMT'; font-size:30.4547;">Skewed and rotated.</text>
	</g>
	<line style="fill:none;" x1="396" y1="179" x2="410" y2="179"/>
	<circle style="fill:#F0FF17;stroke:#000000;stroke-miterlimit:10;" cx="1231.496" cy="118.527" r="49.801"/>
	<text transform="matrix(1 0 0 1 1292.4301 119.1128)" style="font-family:'ArialMT'; font-size:15;">Some text here.</text>
	<text transform="matrix(0.981 0.194 -0.194 0.981 1289.8672 129.7407)" style="font-family:'ArialMT'; font-size:15;">Some text here.</text>
	<text transform="matrix(0.766 0.6428 -0.6428 0.766 1276.8961 158.0034)" style="font-family:'ArialMT'; font-size:15;">Some text here.</text>
	<text transform="matrix(0.5 0.866 -0.866 0.5 1260.1598 171.24)" style="font-family:'ArialMT'; font-size:15;">Some text here.</text>
	<text transform="matrix(0.1736 0.9848 -0.9848 0.1736 1240.1045 177.9525)" style="font-family:'ArialMT'; font-size:15;">Some text here.</text>
	<text transform="matrix(-0.1736 0.9848 -0.9848 -0.1736 1218.819 177.2696)" style="font-family:'ArialMT'; font-size:15;">Some text here.</text>
	<text transform="matrix(-0.5 0.866 -0.866 -0.5 1199.0273 169.4993)" style="font-family:'ArialMT'; font-size:15;">Some text here.</text>
	<text transform="matrix(-0.766 0.6428 -0.6428 -0.766 1183.2606 155.4538)" style="font-family:'ArialMT'; font-size:15;">Some text here.</text>
	<text transform="matrix(-0.9397 0.342 -0.342 -0.9397 1172.978 136.4377)" style="font-family:'ArialMT'; font-size:15;">Some text here.</text>
	<g>
		<text transform="matrix(-1 0 0 -1 194.0742 280.0005)" style="font-family:'ArialMT'; font-size:15;">Some text here.</text>
	</g>
	<text transform="matrix(-0.9397 -0.342 0.342 -0.9397 1174.3088 94.8103)" style="font-family:'ArialMT'; font-size:15;">Some text here.</text>
	<text transform="matrix(-0.766 -0.6428 0.6428 -0.766 1185.5474 76.4466)" style="font-family:'ArialMT'; font-size:15;">Some text here.</text>
	<text transform="matrix(-0.5 -0.866 0.866 -0.5 1202.1948 63.3733)" style="font-family:'ArialMT'; font-size:15;">Some text here.</text>
	<text transform="matrix(-0.1736 -0.9848 0.9848 -0.1736 1222.3828 56.7212)" style="font-family:'ArialMT'; font-size:15;">Some text here.</text>
	<text transform="matrix(0.1736 -0.9848 0.9848 0.1736 1243.672 57.3714)" style="font-family:'ArialMT'; font-size:15;">Some text here.</text>
	<text transform="matrix(0.5 -0.866 0.866 0.5 1262.8901 64.3596)" style="font-family:'ArialMT'; font-size:15;">Some text here.</text>
	<text transform="matrix(0.6395 -0.7688 0.7688 0.6395 1276.9418 74.9898)" style="font-family:'ArialMT'; font-size:15;">Some text here.</text>
	<text transform="matrix(0.9397 -0.342 0.342 0.9397 1291.0485 96.5754)" style="font-family:'ArialMT'; font-size:15;">Some text here.</text>
	<text transform="matrix(0.866 0.5 -0.5 0.866 1283.4382 150.3132)" style="font-family:'ArialMT'; font-size:15;">Some text here.</text>
	<text transform="matrix(0 1 -1 0 1228.4536 180.524)" style="font-family:'ArialMT'; font-size:15;">Some text here.</text>
	<text transform="matrix(-0.866 0.5 -0.5 -0.866 1174.8339 147.939)" style="font-family:'ArialMT'; font-size:15;">Some text here.</text>
	<text transform="matrix(-0.866 -0.5 0.5 -0.866 1175.9731 85.0901)" style="font-family:'ArialMT'; font-size:15;">Some text here.</text>
	<text transform="matrix(0 -1 1 0 1231.0781 55.2859)" style="font-family:'ArialMT'; font-size:15;">Some text here.</text>
	<text transform="matrix(1 0 0 1 1188.0952 119.1128)" style="font-family:'ArialMT'; font-size:15;">Some text here.</text>
	<text transform="matrix(0.7154 0 0.6987 0.7154 1347.2902 42.6608)" style="font-family:'ArialMT'; font-size:15;">Skewed</text>
	<text transform="matrix(0.5059 -0.5059 0.9999 0.0118 1302.3845 336.2574)" style="font-family:'ArialMT'; font-size:15;">Skewed and rotated.</text>
	<g>
		<text transform="matrix(0.2924 0.6529 -0.3673 0.9301 1108.9036 142.0897)" style="font-family:'ArialMT'; font-size:15;">Skewed and rotated.</text>
		
			<text transform="matrix(0.2924 0.6529 -0.3673 0.9301 1108.9036 142.0897)" style="fill:#231F20; font-family:'ArialMT'; font-size:15;">Skewed and rotated.</text>
	</g>
	<line style="fill:none;" x1="1257" y1="72" x2="1263" y2="72"/>
	<rect x="-952" y="589" style="fill:none;" width="919" height="369"/>
	<text transform="matrix(1 0 0 1 -952 599.6494)" style="display:none;"><tspan x="0" y="0" style="display:inline; font-family:'MyriadPro-Regular'; font-size:15;">ai2html-css</tspan><tspan x="0" y="18" style="display:inline; font-family:'MyriadPro-Regular'; font-size:15;">.g-artboard  {</tspan><tspan x="0" y="36" style="display:inline; font-family:'MyriadPro-Regular'; font-size:15;">max-width: 1050px;</tspan><tspan x="0" y="54" style="display:inline; font-family:'MyriadPro-Regular'; font-size:15;">min-width: 460px;</tspan><tspan x="0" y="72" style="display:inline; font-family:'MyriadPro-Regular'; font-size:15;">}</tspan></text>
</g>
<g id="ai2html-settings">
	<rect x="-912" y="-107.667" style="fill:none;" width="400" height="462"/>
	<text transform="matrix(1 0 0 1 -912.0004 -97.0166)" style="display:none;"><tspan x="0" y="0" style="display:inline; font-family:'MyriadPro-Regular'; font-size:15;">ai2html-settings</tspan><tspan x="0" y="18" style="display:inline; font-family:'MyriadPro-Regular'; font-size:15;">settings_version: 0.51</tspan><tspan x="0" y="36" style="display:inline; font-family:'MyriadPro-Regular'; font-size:15;">image_format: svg</tspan><tspan x="0" y="54" style="display:inline; font-family:'MyriadPro-Regular'; font-size:15;">responsiveness: dynamic</tspan><tspan x="0" y="72" style="display:inline; font-family:'MyriadPro-Regular'; font-size:15;">output: one-file</tspan><tspan x="0" y="90" style="display:inline; font-family:'MyriadPro-Regular'; font-size:15;">html_output_path: /ai2html-output/</tspan><tspan x="0" y="108" style="display:inline; font-family:'MyriadPro-Regular'; font-size:15;">html_output_extension: .html</tspan><tspan x="0" y="126" style="display:inline; font-family:'MyriadPro-Regular'; font-size:15;">image_output_path: </tspan><tspan x="0" y="144" style="display:inline; font-family:'MyriadPro-Regular'; font-size:15;">local_preview_template: template.html</tspan><tspan x="0" y="162" style="display:inline; font-family:'MyriadPro-Regular'; font-size:15;">png_number_of_czolors: 128</tspan><tspan x="0" y="180" style="display:inline; font-family:'MyriadPro-Regular'; font-size:15;">jpg_quality: 80</tspan><tspan x="0" y="198" style="display:inline; font-family:'MyriadPro-Regular'; font-size:15;">headline: Ai Graphic Headline</tspan><tspan x="0" y="216" style="display:inline; font-family:'MyriadPro-Regular'; font-size:15;">leadin: Introductory text here.</tspan><tspan x="0" y="234" style="display:inline; font-family:'MyriadPro-Regular'; font-size:15;">notes: Notes: Text goes here.</tspan><tspan x="0" y="252" style="display:inline; font-family:'MyriadPro-Regular'; font-size:15;">sources: Source: Name goes here.</tspan><tspan x="0" y="270" style="display:inline; font-family:'MyriadPro-Regular'; font-size:15;">credit: By ai2html</tspan><tspan x="0" y="288" style="display:inline; font-family:'MyriadPro-Regular'; font-size:15;">render_rotated_skewed_text_as: html</tspan><tspan x="0" y="306" style="display:inline; font-family:'MyriadPro-Regular'; font-size:15;">testing_mode: yes</tspan></text>
</g>
</svg>
