<?xml version="1.0" encoding="utf-8"?>
<!-- Generator: Adobe Illustrator 18.0.0, SVG Export Plug-In . SVG Version: 6.00 Build 0)  -->
<!DOCTYPE svg PUBLIC "-//W3C//DTD SVG 1.1//EN" "http://www.w3.org/Graphics/SVG/1.1/DTD/svg11.dtd">
<svg version="1.1" xmlns="http://www.w3.org/2000/svg" xmlns:xlink="http://www.w3.org/1999/xlink" x="0px" y="0px"
	 viewBox="0 0 720 400" style="enable-background:new 0 0 720 400;" xml:space="preserve">
<g id="Layer_1">
	<rect style="fill:#A3BDC4;" width="720" height="400"/>
	<g>
		<rect x="-0.5" y="0.5" style="fill:none;stroke:#5589A5;stroke-miterlimit:10;" width="720" height="400"/>
		<line style="opacity:0.4;fill:none;stroke:#5589A5;stroke-miterlimit:10;" x1="0" y1="380.5" x2="720" y2="380.5"/>
		<line style="opacity:0.4;fill:none;stroke:#5589A5;stroke-miterlimit:10;" x1="0" y1="360.5" x2="720" y2="360.5"/>
		<line style="opacity:0.4;fill:none;stroke:#5589A5;stroke-miterlimit:10;" x1="0" y1="340.5" x2="720" y2="340.5"/>
		<line style="opacity:0.4;fill:none;stroke:#5589A5;stroke-miterlimit:10;" x1="0" y1="320.5" x2="720" y2="320.5"/>
		<line style="fill:none;stroke:#5589A5;stroke-miterlimit:10;" x1="0" y1="300.5" x2="720" y2="300.5"/>
		<line style="opacity:0.4;fill:none;stroke:#5589A5;stroke-miterlimit:10;" x1="0" y1="280.5" x2="720" y2="280.5"/>
		<line style="opacity:0.4;fill:none;stroke:#5589A5;stroke-miterlimit:10;" x1="0" y1="260.5" x2="720" y2="260.5"/>
		<line style="opacity:0.4;fill:none;stroke:#5589A5;stroke-miterlimit:10;" x1="0" y1="240.5" x2="720" y2="240.5"/>
		<line style="opacity:0.4;fill:none;stroke:#5589A5;stroke-miterlimit:10;" x1="0" y1="220.5" x2="720" y2="220.5"/>
		<line style="fill:none;stroke:#5589A5;stroke-miterlimit:10;" x1="0" y1="200.5" x2="720" y2="200.5"/>
		<line style="opacity:0.4;fill:none;stroke:#5589A5;stroke-miterlimit:10;" x1="0" y1="180.5" x2="720" y2="180.5"/>
		<line style="opacity:0.4;fill:none;stroke:#5589A5;stroke-miterlimit:10;" x1="0" y1="160.5" x2="720" y2="160.5"/>
		<line style="opacity:0.4;fill:none;stroke:#5589A5;stroke-miterlimit:10;" x1="0" y1="140.5" x2="720" y2="140.5"/>
		<line style="opacity:0.4;fill:none;stroke:#5589A5;stroke-miterlimit:10;" x1="0" y1="120.5" x2="720" y2="120.5"/>
		<line style="fill:none;stroke:#5589A5;stroke-miterlimit:10;" x1="0" y1="100.5" x2="720" y2="100.5"/>
		<line style="opacity:0.4;fill:none;stroke:#5589A5;stroke-miterlimit:10;" x1="0" y1="80.5" x2="720" y2="80.5"/>
		<line style="opacity:0.4;fill:none;stroke:#5589A5;stroke-miterlimit:10;" x1="0" y1="60.5" x2="720" y2="60.5"/>
		<line style="opacity:0.4;fill:none;stroke:#5589A5;stroke-miterlimit:10;" x1="0" y1="40.5" x2="720" y2="40.5"/>
		<line style="opacity:0.4;fill:none;stroke:#5589A5;stroke-miterlimit:10;" x1="0" y1="20.5" x2="720" y2="20.5"/>
		<line style="fill:none;stroke:#5589A5;stroke-miterlimit:10;" x1="699.5" y1="0" x2="699.5" y2="400"/>
		<line style="opacity:0.4;fill:none;stroke:#5589A5;stroke-miterlimit:10;" x1="679.5" y1="0" x2="679.5" y2="400"/>
		<line style="opacity:0.4;fill:none;stroke:#5589A5;stroke-miterlimit:10;" x1="659.5" y1="0" x2="659.5" y2="400"/>
		<line style="opacity:0.4;fill:none;stroke:#5589A5;stroke-miterlimit:10;" x1="639.5" y1="0" x2="639.5" y2="400"/>
		<line style="opacity:0.4;fill:none;stroke:#5589A5;stroke-miterlimit:10;" x1="619.5" y1="0" x2="619.5" y2="400"/>
		<line style="fill:none;stroke:#5589A5;stroke-miterlimit:10;" x1="599.5" y1="0" x2="599.5" y2="400"/>
		<line style="opacity:0.4;fill:none;stroke:#5589A5;stroke-miterlimit:10;" x1="579.5" y1="0" x2="579.5" y2="400"/>
		<line style="opacity:0.4;fill:none;stroke:#5589A5;stroke-miterlimit:10;" x1="559.5" y1="0" x2="559.5" y2="400"/>
		<line style="opacity:0.4;fill:none;stroke:#5589A5;stroke-miterlimit:10;" x1="539.5" y1="0" x2="539.5" y2="400"/>
		<line style="opacity:0.4;fill:none;stroke:#5589A5;stroke-miterlimit:10;" x1="519.5" y1="0" x2="519.5" y2="400"/>
		<line style="fill:none;stroke:#5589A5;stroke-miterlimit:10;" x1="499.5" y1="0" x2="499.5" y2="400"/>
		<line style="opacity:0.4;fill:none;stroke:#5589A5;stroke-miterlimit:10;" x1="479.5" y1="0" x2="479.5" y2="400"/>
		<line style="opacity:0.4;fill:none;stroke:#5589A5;stroke-miterlimit:10;" x1="459.5" y1="0" x2="459.5" y2="400"/>
		<line style="opacity:0.4;fill:none;stroke:#5589A5;stroke-miterlimit:10;" x1="439.5" y1="0" x2="439.5" y2="400"/>
		<line style="opacity:0.4;fill:none;stroke:#5589A5;stroke-miterlimit:10;" x1="419.5" y1="0" x2="419.5" y2="400"/>
		<line style="fill:none;stroke:#5589A5;stroke-miterlimit:10;" x1="399.5" y1="0" x2="399.5" y2="400"/>
		<line style="opacity:0.4;fill:none;stroke:#5589A5;stroke-miterlimit:10;" x1="379.5" y1="0" x2="379.5" y2="400"/>
		<line style="opacity:0.4;fill:none;stroke:#5589A5;stroke-miterlimit:10;" x1="359.5" y1="0" x2="359.5" y2="400"/>
		<line style="opacity:0.4;fill:none;stroke:#5589A5;stroke-miterlimit:10;" x1="339.5" y1="0" x2="339.5" y2="400"/>
		<line style="opacity:0.4;fill:none;stroke:#5589A5;stroke-miterlimit:10;" x1="319.5" y1="0" x2="319.5" y2="400"/>
		<line style="fill:none;stroke:#5589A5;stroke-miterlimit:10;" x1="299.5" y1="0" x2="299.5" y2="400"/>
		<line style="opacity:0.4;fill:none;stroke:#5589A5;stroke-miterlimit:10;" x1="279.5" y1="0" x2="279.5" y2="400"/>
		<line style="opacity:0.4;fill:none;stroke:#5589A5;stroke-miterlimit:10;" x1="259.5" y1="0" x2="259.5" y2="400"/>
		<line style="opacity:0.4;fill:none;stroke:#5589A5;stroke-miterlimit:10;" x1="239.5" y1="0" x2="239.5" y2="400"/>
		<line style="opacity:0.4;fill:none;stroke:#5589A5;stroke-miterlimit:10;" x1="219.5" y1="0" x2="219.5" y2="400"/>
		<line style="fill:none;stroke:#5589A5;stroke-miterlimit:10;" x1="199.5" y1="0" x2="199.5" y2="400"/>
		<line style="opacity:0.4;fill:none;stroke:#5589A5;stroke-miterlimit:10;" x1="179.5" y1="0" x2="179.5" y2="400"/>
		<line style="opacity:0.4;fill:none;stroke:#5589A5;stroke-miterlimit:10;" x1="159.5" y1="0" x2="159.5" y2="400"/>
		<line style="opacity:0.4;fill:none;stroke:#5589A5;stroke-miterlimit:10;" x1="139.5" y1="0" x2="139.5" y2="400"/>
		<line style="opacity:0.4;fill:none;stroke:#5589A5;stroke-miterlimit:10;" x1="119.5" y1="0" x2="119.5" y2="400"/>
		<line style="fill:none;stroke:#5589A5;stroke-miterlimit:10;" x1="99.5" y1="0" x2="99.5" y2="400"/>
		<line style="opacity:0.4;fill:none;stroke:#5589A5;stroke-miterlimit:10;" x1="79.5" y1="0" x2="79.5" y2="400"/>
		<line style="opacity:0.4;fill:none;stroke:#5589A5;stroke-miterlimit:10;" x1="59.5" y1="0" x2="59.5" y2="400"/>
		<line style="opacity:0.4;fill:none;stroke:#5589A5;stroke-miterlimit:10;" x1="39.5" y1="0" x2="39.5" y2="400"/>
		<line style="opacity:0.4;fill:none;stroke:#5589A5;stroke-miterlimit:10;" x1="19.5" y1="0" x2="19.5" y2="400"/>
	</g>
	
		<text transform="matrix(1 0 0 1 218.2273 224.0724)" style="display:none;opacity:0.5;fill:#FFFFFF; font-family:'Arial-BoldMT'; font-size:100;">720px</text>
	<g style="opacity:0.5;">
	</g>
	<circle style="fill:none;stroke:#FFFFFF;stroke-miterlimit:10;" cx="103.5" cy="89.5" r="42.5"/>
	
		<rect x="118.542" y="259.876" transform="matrix(0.7071 -0.7071 0.7071 0.7071 -163.52 194.8958)" style="fill:none;stroke:#FFFFFF;stroke-width:1.5;stroke-miterlimit:10;stroke-dasharray:4,1,2,3;" width="69.916" height="69.916"/>
	<g>
		<g>
			<polyline style="fill:none;stroke:#FFFFFF;stroke-width:2;stroke-miterlimit:10;" points="608.046,51.07 609.941,48.744 
				610.635,51.663 			"/>
			
				<line style="fill:none;stroke:#FFFFFF;stroke-width:2;stroke-miterlimit:10;stroke-dasharray:6.1675,6.1675;" x1="612.062" y1="57.663" x2="619.911" y2="90.664"/>
			<polyline style="fill:none;stroke:#FFFFFF;stroke-width:2;stroke-miterlimit:10;" points="620.624,93.664 621.318,96.583 
				624.116,97.665 			"/>
			
				<line style="fill:none;stroke:#FFFFFF;stroke-width:2;stroke-miterlimit:10;stroke-dasharray:6.1675,6.1675;" x1="629.868" y1="99.891" x2="661.503" y2="112.135"/>
			<polyline style="fill:none;stroke:#FFFFFF;stroke-width:2;stroke-miterlimit:10;" points="664.379,113.248 667.176,114.33 
				664.615,115.892 			"/>
			
				<line style="fill:none;stroke:#FFFFFF;stroke-width:2;stroke-miterlimit:10;stroke-dasharray:6.1675,6.1675;" x1="659.35" y1="119.104" x2="630.389" y2="136.766"/>
			<polyline style="fill:none;stroke:#FFFFFF;stroke-width:2;stroke-miterlimit:10;" points="627.756,138.372 625.195,139.934 
				625.03,142.929 			"/>
			
				<line style="fill:none;stroke:#FFFFFF;stroke-width:2;stroke-miterlimit:10;stroke-dasharray:6.1675,6.1675;" x1="624.69" y1="149.088" x2="622.822" y2="182.957"/>
			<polyline style="fill:none;stroke:#FFFFFF;stroke-width:2;stroke-miterlimit:10;" points="622.652,186.037 622.487,189.032 
				620.21,187.079 			"/>
			
				<line style="fill:none;stroke:#FFFFFF;stroke-width:2;stroke-miterlimit:10;stroke-dasharray:6.1675,6.1675;" x1="615.528" y1="183.063" x2="589.781" y2="160.978"/>
			<polyline style="fill:none;stroke:#FFFFFF;stroke-width:2;stroke-miterlimit:10;" points="587.441,158.971 585.164,157.017 
				582.264,157.786 			"/>
			
				<line style="fill:none;stroke:#FFFFFF;stroke-width:2;stroke-miterlimit:10;stroke-dasharray:6.1675,6.1675;" x1="576.302" y1="159.366" x2="543.512" y2="168.055"/>
			<polyline style="fill:none;stroke:#FFFFFF;stroke-width:2;stroke-miterlimit:10;" points="540.531,168.845 537.632,169.614 
				538.786,166.845 			"/>
			
				<line style="fill:none;stroke:#FFFFFF;stroke-width:2;stroke-miterlimit:10;stroke-dasharray:6.1675,6.1675;" x1="541.158" y1="161.152" x2="554.206" y2="129.84"/>
			<polyline style="fill:none;stroke:#FFFFFF;stroke-width:2;stroke-miterlimit:10;" points="555.392,126.993 556.546,124.224 
				554.919,121.704 			"/>
			
				<line style="fill:none;stroke:#FFFFFF;stroke-width:2;stroke-miterlimit:10;stroke-dasharray:6.1675,6.1675;" x1="551.574" y1="116.522" x2="533.177" y2="88.022"/>
			<polyline style="fill:none;stroke:#FFFFFF;stroke-width:2;stroke-miterlimit:10;" points="531.505,85.432 529.878,82.911 
				532.868,83.153 			"/>
			
				<line style="fill:none;stroke:#FFFFFF;stroke-width:2;stroke-miterlimit:10;stroke-dasharray:6.1675,6.1675;" x1="539.015" y1="83.65" x2="572.827" y2="86.383"/>
			<polyline style="fill:none;stroke:#FFFFFF;stroke-width:2;stroke-miterlimit:10;" points="575.9,86.632 578.891,86.873 
				580.785,84.547 			"/>
			
				<line style="fill:none;stroke:#FFFFFF;stroke-width:2;stroke-miterlimit:10;stroke-dasharray:6.1675,6.1675;" x1="584.679" y1="79.765" x2="606.099" y2="53.462"/>
		</g>
	</g>
	<g>
		<path style="fill:none;stroke:#FFFFFF;stroke-width:1.5;" d="M542.309,327.77c-2.58,0.779-5.271,1.214-7.508,1.142
			c-1.435-0.045-3.108-0.195-4.593-0.57l0.182,0.603l-0.19,2.115l-2.654,0.802l-2.184-1.398l-3.261-10.8l1.269-1.629l2.594-0.783
			l1.164,0.894l1.178,3.902c1.614,0.803,3.761,1.211,5.646,1.439c2.04,0.247,4.374-0.021,6.722-0.73
			c1.39-0.42,2.714-1.041,3.83-1.813c1.082-0.751,1.994-1.668,2.656-2.709c0.654-1.029,1.091-2.213,1.272-3.509
			c0.182-1.293,0.051-2.709-0.402-4.208c-0.444-1.469-1.093-2.569-1.936-3.264c-0.887-0.73-1.93-1.232-3.103-1.49
			c-1.272-0.279-2.693-0.394-4.226-0.339c-1.635,0.058-3.294,0.145-4.977,0.264c-1.74,0.118-3.469,0.178-5.142,0.177
			c-1.792,0-3.487-0.245-5.037-0.731c-1.616-0.505-3.067-1.36-4.315-2.543c-1.27-1.202-2.254-2.939-2.925-5.163
			c-0.611-2.024-0.79-3.97-0.532-5.782c0.259-1.806,0.864-3.481,1.799-4.98c0.93-1.49,2.175-2.799,3.701-3.888
			c1.506-1.071,3.25-1.909,5.185-2.494c1.396-0.422,2.743-0.698,4.002-0.82c1.255-0.12,2.439-0.132,3.523-0.038
			c1.083,0.095,1.662,0.41,2.619,0.668c0.016,0.004-0.409,0.142-0.407,0.151l-0.132-0.437l1.811-1.835l2.534-0.765l0.683,1.082
			l3.152,10.439l0.34,2.306l-2.534,0.765l-2.834-1.553l-1.15-3.809c-1.586-0.712-2.702-1.355-4.459-1.571
			c-1.93-0.236-3.747-0.102-5.851,0.533c-1.231,0.372-2.223,0.86-3.176,1.519c-0.923,0.639-1.615,1.389-2.17,2.264
			c-0.549,0.868-0.876,1.86-1.025,2.968c-0.151,1.11-0.014,2.328,0.378,3.628c0.402,1.332,1.02,2.317,1.82,2.93
			c0.859,0.658,1.89,1.104,3.056,1.329c1.268,0.245,2.688,0.331,4.218,0.256c1.641-0.079,3.303-0.164,4.984-0.257
			c1.715-0.092,3.441-0.128,5.128-0.106c1.797,0.021,3.506,0.3,5.076,0.83c1.629,0.55,3.098,1.47,4.366,2.736
			c1.281,1.279,2.276,3.069,2.956,5.321c0.669,2.214,0.887,4.348,0.649,6.343c-0.241,2.01-0.886,3.863-1.918,5.508
			c-1.017,1.624-2.384,3.065-4.061,4.286C546.439,326.166,544.491,327.111,542.309,327.77z"/>
		<polygon style="fill:none;stroke:#FFFFFF;stroke-width:2;" points="577.444,316.794 576.018,316.34 548.895,280.152 
			546.637,280.834 544.436,280.067 543.67,277.532 545.119,275.806 555.919,272.545 557.497,273.357 558.262,275.892 
			557.437,277.573 554.525,278.452 576.203,307.462 578.15,271.319 575.719,272.053 573.346,271.338 572.581,268.803 
			574.201,267.025 584.397,263.946 584.693,265.007 585,267.542 585,268.974 583.141,269.674 580.866,314.806 580.044,315.975 		"/>
		<path style="fill:none;stroke:#FFFFFF;stroke-width:1.5;" d="M622.013,303.704c-3.497,1.056-6.889,1.4-10.082,1.022
			c-3.193-0.378-6.146-1.358-8.779-2.911c-2.624-1.549-4.934-3.643-6.866-6.222c-1.921-2.561-3.401-5.539-4.401-8.852
			c-0.99-3.277-1.371-6.585-1.132-9.827c0.239-3.257,1.072-6.319,2.476-9.102c1.405-2.786,3.385-5.272,5.886-7.39
			c2.505-2.121,5.548-3.731,9.042-4.786c1.882-0.568,3.698-0.941,5.395-1.109c1.684-0.167,3.273-0.191,4.724-0.073
			c1.441,0.118,2.477,0.416,3.64,0.717c0.13,0.035,0.078,0.122,0.098,0.189l-0.41-1.359l1.469-1.732l2.655-0.802l0.904,1.016
			l3.152,10.439l0.119,2.372l-2.715,0.82l-2.432-1.674l-0.823-2.726c-0.12-0.399-0.926-0.635-1.644-0.934
			c-0.884-0.367-1.834-0.7-3.072-0.913c-1.234-0.211-2.608-0.292-4.21-0.202c-1.594,0.091-3.375,0.431-5.357,1.03
			c-2.785,0.841-5.149,2.092-7.061,3.727c-1.908,1.636-3.391,3.557-4.422,5.713c-1.038,2.17-1.638,4.558-1.79,7.103
			c-0.154,2.558,0.175,5.2,0.977,7.854c0.803,2.659,1.985,5.048,3.512,7.101c1.515,2.038,3.309,3.692,5.329,4.917
			c2.007,1.216,4.255,1.985,6.679,2.287c2.428,0.304,4.989,0.055,7.616-0.738c1.795-0.542,3.361-1.172,4.657-1.871
			c1.28-0.693,2.401-1.472,3.331-2.318c0.937-0.848,1.537-1.715,2.228-2.711c0.618-0.894,0.442-1.607,1.476-2.728l-2.203-7.298
			l-13.379,4.04l-2.39-1.754l-0.746-2.472l1.618-0.802l22.927-6.923l0.594,0.134l0.747,2.472l0.177,2.422l-4.52,1.365l4.744,15.712
			l0.022,2.051l-2.775,0.838l-2.274-1.371l-0.585-1.936c-0.985,1.279-1.964,2.459-3.339,3.65
			C628.559,301.09,625.752,302.575,622.013,303.704z"/>
	</g>
</g>
<g id="ai2html-settings">
	<rect x="-450.516" style="fill:none;" width="307" height="462"/>
	<text transform="matrix(1 0 0 1 -450.5156 10.6499)" style="display:none;"><tspan x="0" y="0" style="display:inline; font-family:'MyriadPro-Regular'; font-size:15;">ai2html-settings</tspan><tspan x="0" y="18" style="display:inline; font-family:'MyriadPro-Regular'; font-size:15;">settings_version: 0.56</tspan><tspan x="0" y="36" style="display:inline; font-family:'MyriadPro-Regular'; font-size:15;">image_format: svg</tspan><tspan x="0" y="54" style="display:inline; font-family:'MyriadPro-Regular'; font-size:15;">responsiveness: </tspan><tspan x="101.637" y="54" style="display:inline; font-family:'MyriadPro-Regular'; font-size:15;">dynamic</tspan><tspan x="0" y="72" style="display:inline; font-family:'MyriadPro-Regular'; font-size:15;">output: one-file</tspan><tspan x="0" y="90" style="display:inline; font-family:'MyriadPro-Regular'; font-size:15;">create_promo_images: false</tspan><tspan x="0" y="108" style="display:inline; font-family:'MyriadPro-Regular'; font-size:15;">html_output_path: /ai2html-output/</tspan><tspan x="0" y="126" style="display:inline; font-family:'MyriadPro-Regular'; font-size:15;">html_output_extension: .html</tspan><tspan x="0" y="144" style="display:inline; font-family:'NYTFranklin-Light'; font-size:15;">html_output_path: ../_includes/</tspan><tspan x="0" y="162" style="display:inline; font-family:'NYTFranklin-Light'; font-size:15;">image_output_path: ../images/</tspan><tspan x="0" y="180" style="display:inline; font-family:'NYTFranklin-Light'; font-size:15;">image_source_path: images/</tspan><tspan x="0" y="198" style="display:inline; font-family:'MyriadPro-Regular'; font-size:15;">local_preview_template: </tspan><tspan x="0" y="216" style="display:inline; font-family:'MyriadPro-Regular'; font-size:15;">png_number_of_colors: 128</tspan><tspan x="0" y="234" style="display:inline; font-family:'MyriadPro-Regular'; font-size:15;">jpg_quality: 60</tspan><tspan x="0" y="252" style="display:inline; font-family:'MyriadPro-Regular'; font-size:15;">headline: Ai Graphic Headline</tspan><tspan x="0" y="270" style="display:inline; font-family:'MyriadPro-Regular'; font-size:15;">leadin: Introductory text here.</tspan><tspan x="0" y="288" style="display:inline; font-family:'MyriadPro-Regular'; font-size:15;">notes: Notes: Text goes here.</tspan><tspan x="0" y="324" style="display:inline; font-family:'MyriadPro-Regular'; font-size:15;">sources: Source: Name goes here.</tspan><tspan x="0" y="342" style="display:inline; font-family:'MyriadPro-Regular'; font-size:15;">credit: By ai2html</tspan></text>
</g>
</svg>
