<?xml version="1.0" encoding="utf-8"?> <!-- Generator: Adobe Illustrator 18.0.0, SVG Export Plug-In . SVG Version: 6.00 Build 0)  --> <!DOCTYPE svg PUBLIC "-//W3C//DTD SVG 1.1//EN" "http://www.w3.org/Graphics/SVG/1.1/DTD/svg11.dtd"> <svg version="1.1" xmlns="http://www.w3.org/2000/svg" xmlns:xlink="http://www.w3.org/1999/xlink" x="0px" y="0px" viewBox="0 0 720 401" style="enable-background:new 0 0 720 401;" xml:space="preserve"> <style> path,line,circle,rect,polygon { vector-effect: non-scaling-stroke } </style> <g id="Layer_1"> <rect y="0.5" style="opacity:0.18;fill:#A3BDC4;" width="720" height="400"/> <g style="opacity:0.44;"> <line style="opacity:0.4;fill:none;stroke:#5589A5;stroke-miterlimit:10;" x1="1" y1="381" x2="721" y2="381"/> <line style="opacity:0.4;fill:none;stroke:#5589A5;stroke-miterlimit:10;" x1="1" y1="361" x2="721" y2="361"/> <line style="opacity:0.4;fill:none;stroke:#5589A5;stroke-miterlimit:10;" x1="1" y1="341" x2="721" y2="341"/> <line style="opacity:0.4;fill:none;stroke:#5589A5;stroke-miterlimit:10;" x1="1" y1="321" x2="721" y2="321"/> <line style="fill:none;stroke:#5589A5;stroke-miterlimit:10;" x1="1" y1="301" x2="721" y2="301"/> <line style="opacity:0.4;fill:none;stroke:#5589A5;stroke-miterlimit:10;" x1="1" y1="281" x2="721" y2="281"/> <line style="opacity:0.4;fill:none;stroke:#5589A5;stroke-miterlimit:10;" x1="1" y1="261" x2="721" y2="261"/> <line style="opacity:0.4;fill:none;stroke:#5589A5;stroke-miterlimit:10;" x1="1" y1="241" x2="721" y2="241"/> <line style="opacity:0.4;fill:none;stroke:#5589A5;stroke-miterlimit:10;" x1="1" y1="221" x2="721" y2="221"/> <line style="fill:none;stroke:#5589A5;stroke-miterlimit:10;" x1="1" y1="201" x2="721" y2="201"/> <line style="opacity:0.4;fill:none;stroke:#5589A5;stroke-miterlimit:10;" x1="1" y1="181" x2="721" y2="181"/> <line style="opacity:0.4;fill:none;stroke:#5589A5;stroke-miterlimit:10;" x1="1" y1="161" x2="721" y2="161"/> <line style="opacity:0.4;fill:none;stroke:#5589A5;stroke-miterlimit:10;" x1="1" y1="141" x2="721" y2="141"/> <line style="opacity:0.4;fill:none;stroke:#5589A5;stroke-miterlimit:10;" x1="1" y1="121" x2="721" y2="121"/> <line style="fill:none;stroke:#5589A5;stroke-miterlimit:10;" x1="1" y1="101" x2="721" y2="101"/> <line style="opacity:0.4;fill:none;stroke:#5589A5;stroke-miterlimit:10;" x1="1" y1="81" x2="721" y2="81"/> <line style="opacity:0.4;fill:none;stroke:#5589A5;stroke-miterlimit:10;" x1="1" y1="61" x2="721" y2="61"/> <line style="opacity:0.4;fill:none;stroke:#5589A5;stroke-miterlimit:10;" x1="1" y1="41" x2="721" y2="41"/> <line style="opacity:0.4;fill:none;stroke:#5589A5;stroke-miterlimit:10;" x1="1" y1="21" x2="721" y2="21"/> <line style="fill:none;stroke:#5589A5;stroke-miterlimit:10;" x1="700.5" y1="0.5" x2="700.5" y2="400.5"/> <line style="opacity:0.4;fill:none;stroke:#5589A5;stroke-miterlimit:10;" x1="680.5" y1="0.5" x2="680.5" y2="400.5"/> <line style="opacity:0.4;fill:none;stroke:#5589A5;stroke-miterlimit:10;" x1="660.5" y1="0.5" x2="660.5" y2="400.5"/> <line style="opacity:0.4;fill:none;stroke:#5589A5;stroke-miterlimit:10;" x1="640.5" y1="0.5" x2="640.5" y2="400.5"/> <line style="opacity:0.4;fill:none;stroke:#5589A5;stroke-miterlimit:10;" x1="620.5" y1="0.5" x2="620.5" y2="400.5"/> <line style="fill:none;stroke:#5589A5;stroke-miterlimit:10;" x1="600.5" y1="0.5" x2="600.5" y2="400.5"/> <line style="opacity:0.4;fill:none;stroke:#5589A5;stroke-miterlimit:10;" x1="580.5" y1="0.5" x2="580.5" y2="400.5"/> <line style="opacity:0.4;fill:none;stroke:#5589A5;stroke-miterlimit:10;" x1="560.5" y1="0.5" x2="560.5" y2="400.5"/> <line style="opacity:0.4;fill:none;stroke:#5589A5;stroke-miterlimit:10;" x1="540.5" y1="0.5" x2="540.5" y2="400.5"/> <line style="opacity:0.4;fill:none;stroke:#5589A5;stroke-miterlimit:10;" x1="520.5" y1="0.5" x2="520.5" y2="400.5"/> <line style="fill:none;stroke:#5589A5;stroke-miterlimit:10;" x1="500.5" y1="0.5" x2="500.5" y2="400.5"/> <line style="opacity:0.4;fill:none;stroke:#5589A5;stroke-miterlimit:10;" x1="480.5" y1="0.5" x2="480.5" y2="400.5"/> <line style="opacity:0.4;fill:none;stroke:#5589A5;stroke-miterlimit:10;" x1="460.5" y1="0.5" x2="460.5" y2="400.5"/> <line style="opacity:0.4;fill:none;stroke:#5589A5;stroke-miterlimit:10;" x1="440.5" y1="0.5" x2="440.5" y2="400.5"/> <line style="opacity:0.4;fill:none;stroke:#5589A5;stroke-miterlimit:10;" x1="420.5" y1="0.5" x2="420.5" y2="400.5"/> <line style="fill:none;stroke:#5589A5;stroke-miterlimit:10;" x1="400.5" y1="0.5" x2="400.5" y2="400.5"/> <line style="opacity:0.4;fill:none;stroke:#5589A5;stroke-miterlimit:10;" x1="380.5" y1="0.5" x2="380.5" y2="400.5"/> <line style="opacity:0.4;fill:none;stroke:#5589A5;stroke-miterlimit:10;" x1="360.5" y1="0.5" x2="360.5" y2="400.5"/> <line style="opacity:0.4;fill:none;stroke:#5589A5;stroke-miterlimit:10;" x1="340.5" y1="0.5" x2="340.5" y2="400.5"/> <line style="opacity:0.4;fill:none;stroke:#5589A5;stroke-miterlimit:10;" x1="320.5" y1="0.5" x2="320.5" y2="400.5"/> <line style="fill:none;stroke:#5589A5;stroke-miterlimit:10;" x1="300.5" y1="0.5" x2="300.5" y2="400.5"/> <line style="opacity:0.4;fill:none;stroke:#5589A5;stroke-miterlimit:10;" x1="280.5" y1="0.5" x2="280.5" y2="400.5"/> <line style="opacity:0.4;fill:none;stroke:#5589A5;stroke-miterlimit:10;" x1="260.5" y1="0.5" x2="260.5" y2="400.5"/> <line style="opacity:0.4;fill:none;stroke:#5589A5;stroke-miterlimit:10;" x1="240.5" y1="0.5" x2="240.5" y2="400.5"/> <line style="opacity:0.4;fill:none;stroke:#5589A5;stroke-miterlimit:10;" x1="220.5" y1="0.5" x2="220.5" y2="400.5"/> <line style="fill:none;stroke:#5589A5;stroke-miterlimit:10;" x1="200.5" y1="0.5" x2="200.5" y2="400.5"/> <line style="opacity:0.4;fill:none;stroke:#5589A5;stroke-miterlimit:10;" x1="180.5" y1="0.5" x2="180.5" y2="400.5"/> <line style="opacity:0.4;fill:none;stroke:#5589A5;stroke-miterlimit:10;" x1="160.5" y1="0.5" x2="160.5" y2="400.5"/> <line style="opacity:0.4;fill:none;stroke:#5589A5;stroke-miterlimit:10;" x1="140.5" y1="0.5" x2="140.5" y2="400.5"/> <line style="opacity:0.4;fill:none;stroke:#5589A5;stroke-miterlimit:10;" x1="120.5" y1="0.5" x2="120.5" y2="400.5"/> <line style="fill:none;stroke:#5589A5;stroke-miterlimit:10;" x1="100.5" y1="0.5" x2="100.5" y2="400.5"/> <line style="opacity:0.4;fill:none;stroke:#5589A5;stroke-miterlimit:10;" x1="80.5" y1="0.5" x2="80.5" y2="400.5"/> <line style="opacity:0.4;fill:none;stroke:#5589A5;stroke-miterlimit:10;" x1="60.5" y1="0.5" x2="60.5" y2="400.5"/> <line style="opacity:0.4;fill:none;stroke:#5589A5;stroke-miterlimit:10;" x1="40.5" y1="0.5" x2="40.5" y2="400.5"/> <line style="opacity:0.4;fill:none;stroke:#5589A5;stroke-miterlimit:10;" x1="20.5" y1="0.5" x2="20.5" y2="400.5"/> </g> <circle style="fill:none;stroke:#000000;stroke-miterlimit:10;" cx="103.5" cy="90" r="42.5"/> <rect x="118.542" y="260.376" transform="matrix(0.7071 -0.7071 0.7071 0.7071 -163.8736 195.0422)" style="fill:none;stroke:#000000;stroke-width:1.5;stroke-miterlimit:10;stroke-dasharray:4,1,2,3;" width="69.916" height="69.916"/> <g> <g> <polyline style="fill:none;stroke:#000000;stroke-width:2;stroke-miterlimit:10;" points="608.046,51.57 609.941,49.244 
				610.635,52.163 			"/> <line style="fill:none;stroke:#000000;stroke-width:2;stroke-miterlimit:10;stroke-dasharray:6.1675,6.1675;" x1="612.062" y1="58.163" x2="619.911" y2="91.164"/> <polyline style="fill:none;stroke:#000000;stroke-width:2;stroke-miterlimit:10;" points="620.624,94.164 621.318,97.083 
				624.116,98.165 			"/> <line style="fill:none;stroke:#000000;stroke-width:2;stroke-miterlimit:10;stroke-dasharray:6.1675,6.1675;" x1="629.868" y1="100.391" x2="661.503" y2="112.635"/> <polyline style="fill:none;stroke:#000000;stroke-width:2;stroke-miterlimit:10;" points="664.379,113.748 667.176,114.83 
				664.615,116.392 			"/> <line style="fill:none;stroke:#000000;stroke-width:2;stroke-miterlimit:10;stroke-dasharray:6.1675,6.1675;" x1="659.35" y1="119.604" x2="630.389" y2="137.266"/> <polyline style="fill:none;stroke:#000000;stroke-width:2;stroke-miterlimit:10;" points="627.756,138.872 625.195,140.434 
				625.03,143.429 			"/> <line style="fill:none;stroke:#000000;stroke-width:2;stroke-miterlimit:10;stroke-dasharray:6.1675,6.1675;" x1="624.69" y1="149.588" x2="622.822" y2="183.457"/> <polyline style="fill:none;stroke:#000000;stroke-width:2;stroke-miterlimit:10;" points="622.652,186.537 622.487,189.532 
				620.21,187.579 			"/> <line style="fill:none;stroke:#000000;stroke-width:2;stroke-miterlimit:10;stroke-dasharray:6.1675,6.1675;" x1="615.528" y1="183.563" x2="589.781" y2="161.478"/> <polyline style="fill:none;stroke:#000000;stroke-width:2;stroke-miterlimit:10;" points="587.441,159.471 585.164,157.517 
				582.264,158.286 			"/> <line style="fill:none;stroke:#000000;stroke-width:2;stroke-miterlimit:10;stroke-dasharray:6.1675,6.1675;" x1="576.302" y1="159.866" x2="543.512" y2="168.555"/> <polyline style="fill:none;stroke:#000000;stroke-width:2;stroke-miterlimit:10;" points="540.531,169.345 537.632,170.114 
				538.786,167.345 			"/> <line style="fill:none;stroke:#000000;stroke-width:2;stroke-miterlimit:10;stroke-dasharray:6.1675,6.1675;" x1="541.158" y1="161.652" x2="554.206" y2="130.34"/> <polyline style="fill:none;stroke:#000000;stroke-width:2;stroke-miterlimit:10;" points="555.392,127.493 556.546,124.724 
				554.919,122.204 			"/> <line style="fill:none;stroke:#000000;stroke-width:2;stroke-miterlimit:10;stroke-dasharray:6.1675,6.1675;" x1="551.574" y1="117.022" x2="533.177" y2="88.522"/> <polyline style="fill:none;stroke:#000000;stroke-width:2;stroke-miterlimit:10;" points="531.505,85.932 529.878,83.411 
				532.868,83.653 			"/> <line style="fill:none;stroke:#000000;stroke-width:2;stroke-miterlimit:10;stroke-dasharray:6.1675,6.1675;" x1="539.015" y1="84.15" x2="572.827" y2="86.883"/> <polyline style="fill:none;stroke:#000000;stroke-width:2;stroke-miterlimit:10;" points="575.9,87.132 578.891,87.373 
				580.785,85.047 			"/> <line style="fill:none;stroke:#000000;stroke-width:2;stroke-miterlimit:10;stroke-dasharray:6.1675,6.1675;" x1="584.679" y1="80.265" x2="606.099" y2="53.962"/> </g> </g> <g> <path style="fill:none;stroke:#000000;stroke-width:1.5;" d="M542.309,328.27c-2.58,0.779-5.271,1.214-7.508,1.142
			c-1.435-0.045-3.108-0.195-4.593-0.57l0.182,0.603l-0.19,2.115l-2.654,0.802l-2.184-1.398l-3.261-10.8l1.269-1.629l2.594-0.783
			l1.164,0.894l1.178,3.902c1.614,0.803,3.761,1.211,5.646,1.439c2.04,0.247,4.374-0.021,6.722-0.73
			c1.39-0.42,2.714-1.041,3.83-1.813c1.082-0.751,1.994-1.668,2.656-2.709c0.654-1.029,1.091-2.213,1.272-3.509
			c0.182-1.293,0.051-2.709-0.402-4.208c-0.444-1.469-1.093-2.569-1.936-3.264c-0.887-0.73-1.93-1.232-3.103-1.49
			c-1.272-0.279-2.693-0.394-4.226-0.339c-1.635,0.058-3.294,0.145-4.977,0.264c-1.74,0.118-3.469,0.178-5.142,0.177
			c-1.792,0-3.487-0.245-5.037-0.731c-1.616-0.505-3.067-1.36-4.315-2.543c-1.27-1.202-2.254-2.939-2.925-5.163
			c-0.611-2.024-0.79-3.97-0.532-5.782c0.259-1.806,0.864-3.481,1.799-4.98c0.93-1.49,2.175-2.799,3.701-3.888
			c1.506-1.071,3.25-1.909,5.185-2.494c1.396-0.422,2.743-0.698,4.002-0.82c1.255-0.12,2.439-0.132,3.523-0.038
			c1.083,0.095,1.662,0.41,2.619,0.668c0.016,0.004-0.409,0.142-0.407,0.151l-0.132-0.437l1.811-1.835l2.534-0.765l0.683,1.082
			l3.152,10.439l0.34,2.306l-2.534,0.765l-2.834-1.553l-1.15-3.809c-1.586-0.712-2.702-1.355-4.459-1.571
			c-1.93-0.236-3.747-0.102-5.851,0.533c-1.231,0.372-2.223,0.86-3.176,1.519c-0.923,0.639-1.615,1.389-2.17,2.264
			c-0.549,0.868-0.876,1.86-1.025,2.968c-0.151,1.11-0.014,2.328,0.378,3.628c0.402,1.332,1.02,2.317,1.82,2.93
			c0.859,0.658,1.89,1.104,3.056,1.329c1.268,0.245,2.688,0.331,4.218,0.256c1.641-0.079,3.303-0.164,4.984-0.257
			c1.715-0.092,3.441-0.128,5.128-0.106c1.797,0.021,3.506,0.3,5.076,0.83c1.629,0.55,3.098,1.47,4.366,2.736
			c1.281,1.279,2.276,3.069,2.956,5.321c0.669,2.214,0.887,4.348,0.649,6.343c-0.241,2.01-0.886,3.863-1.918,5.508
			c-1.017,1.624-2.384,3.065-4.061,4.286C546.439,326.666,544.491,327.611,542.309,328.27z"/> <path style="fill:none;stroke:#000000;stroke-width:1.55;stroke-linecap:round;stroke-linejoin:round;" d="M577.444,317.294
			l-1.426-0.454l-27.123-36.188l-2.257,0.682l-2.202-0.767l-0.765-2.535l1.449-1.726l10.09-3.047
			c0.455-0.137,0.946-0.093,1.369,0.125l0,0c0.587,0.302,1.027,0.83,1.218,1.462l0.467,1.545l0,0
			c-0.526,1.072-1.475,1.877-2.618,2.222l-1.12,0.338l21.678,29.01l1.947-36.143l-1.337,0.404c-0.714,0.216-1.475,0.216-2.189,0l0,0
			c-0.798-0.241-1.423-0.865-1.664-1.663l0,0c-0.235-0.78-0.044-1.626,0.505-2.228h0c0.481-0.528,1.096-0.916,1.78-1.122
			l8.431-2.546c0.457-0.138,0.952-0.07,1.355,0.185l0,0c0.421,0.267,0.632,0.417,0.945,0.899c0.086,0.133,0.15,0.285,0.192,0.438
			l0.206,0.751c-0.067,0.832-0.289,1.5-0.667,1.979L585,269.479l-3.128,1.212l-1.631,44.615l-0.509,1.169L577.444,317.294z"/> <path style="fill:none;stroke:#000000;stroke-width:1.5;" d="M622.013,304.204c-3.497,1.056-6.889,1.4-10.082,1.022
			c-3.193-0.378-6.146-1.358-8.779-2.911c-2.624-1.549-4.934-3.643-6.866-6.222c-1.921-2.561-3.401-5.539-4.401-8.852
			c-0.99-3.277-1.371-6.585-1.132-9.827c0.239-3.257,1.072-6.319,2.476-9.102c1.405-2.786,3.385-5.272,5.886-7.39
			c2.505-2.121,5.548-3.731,9.042-4.786c1.882-0.568,3.698-0.941,5.395-1.109c1.684-0.167,3.273-0.191,4.724-0.073
			c1.441,0.118,2.477,0.416,3.64,0.717c0.13,0.035,0.078,0.122,0.098,0.189l-0.41-1.359l1.469-1.732l2.655-0.802l0.904,1.016
			l3.152,10.439l0.119,2.372l-2.715,0.82l-2.432-1.674l-0.823-2.726c-0.12-0.399-0.926-0.635-1.644-0.934
			c-0.884-0.367-1.834-0.7-3.072-0.913c-1.234-0.211-2.608-0.292-4.21-0.202c-1.594,0.091-3.375,0.431-5.357,1.03
			c-2.785,0.841-5.149,2.092-7.061,3.727c-1.908,1.636-3.391,3.557-4.422,5.713c-1.038,2.17-1.638,4.558-1.79,7.103
			c-0.154,2.558,0.175,5.2,0.977,7.854c0.803,2.659,1.985,5.048,3.512,7.101c1.515,2.038,3.309,3.692,5.329,4.917
			c2.007,1.216,4.255,1.985,6.679,2.287c2.428,0.304,4.989,0.055,7.616-0.738c1.795-0.542,3.361-1.172,4.657-1.871
			c1.28-0.693,2.401-1.472,3.331-2.318c0.937-0.848,1.537-1.715,2.228-2.711c0.618-0.894,0.442-1.607,1.476-2.728l-2.203-7.298
			l-13.379,4.04l-2.39-1.754l-0.746-2.472l1.618-0.802l22.927-6.923l0.594,0.134l0.747,2.472l0.177,2.422l-4.52,1.365l4.744,15.712
			l0.022,2.051l-2.775,0.838l-2.274-1.371l-0.585-1.936c-0.985,1.279-1.964,2.459-3.339,3.65
			C628.559,301.59,625.752,303.075,622.013,304.204z"/> </g> <g> <g> <path style="fill:none;stroke:#000000;stroke-miterlimit:10;" d="M287,332.361C287,281,239.5,176.5,339.5,172.5
				c78.888-3.156,95.543-52.675,99.059-73.443"/> <g> <polygon points="439.5,90 443.239,103.351 438.378,99.724 432.82,102.149 				"/> </g> </g> </g> </g> <g id="ai2html-settings"> <rect x="-475.516" y="5.5" style="fill:none;" width="307" height="462"/>  </g> </svg> 