<?xml version="1.0" encoding="utf-8"?>
<!-- Generator: Adobe Illustrator 18.0.0, SVG Export Plug-In . SVG Version: 6.00 Build 0)  -->
<!DOCTYPE svg PUBLIC "-//W3C//DTD SVG 1.1//EN" "http://www.w3.org/Graphics/SVG/1.1/DTD/svg11.dtd">
<svg version="1.1" xmlns="http://www.w3.org/2000/svg" xmlns:xlink="http://www.w3.org/1999/xlink" x="0px" y="0px"
	 viewBox="0 0 261.721 73.513" style="enable-background:new 0 0 261.721 73.513;" xml:space="preserve">
<g id="inv">
	
		<text transform="matrix(1 0 0 1 4.666571e-05 68.3271)" style="display:none;fill:#FFFFFF; font-family:'StymieBT-ExtraBold'; font-size:71.8037;">ai2html</text>
	<path id="a" style="fill:#202020;" d="M22.4,68.327v-2.8c-2.226,2.513-5.241,3.733-9.19,3.733c-7.107,0-11.272-4.38-11.272-11.774
		c0-7.682,4.882-12.277,12.851-12.277c3.159,0,5.815,1.005,7.754,2.441c0-0.287,0.072-0.646,0.072-0.933
		c0-3.662-2.154-5.313-6.677-5.313c-3.231,0-6.318,0.79-9.621,2.297L4.02,35.588c4.523-1.795,9.334-2.656,14.359-2.656
		c12.205,0,17.159,4.667,17.159,14.862v11.63h2.728v8.903H22.4z M19.169,61.147c2.513,0,3.733-1.508,3.733-4.524
		c0-2.871-1.292-4.523-3.59-4.523c-2.441,0-3.877,1.652-3.877,4.595C15.436,59.567,16.729,61.147,19.169,61.147z"/>
	<path id="i" style="fill:#202020;" d="M40.059,42.408v-8.615h18.164v25.631h3.015v8.903H40.705v-8.903h3.446V42.408H40.059z
		 M44.294,17.998h13.928v12.636H44.294V17.998z"/>
	<path id="_x32_" style="fill:#CCCCCC;" d="M63.854,68.327c0-0.359,0-0.646,0-1.005c0-7.323,3.733-13.354,10.769-20.461
		c4.236-4.236,7.682-6.964,9.549-8.759c2.226-2.082,3.59-3.662,3.59-6.175c0-3.087-2.01-5.169-5.098-5.169
		c-3.877,0-5.887,3.016-5.887,8.903c0,0.072,0,0.216,0,0.287l-11.775-0.646c0.718-12.062,7.969-18.81,20.031-18.81
		c10.985,0,17.877,6.174,17.877,15.938c0,6.964-3.805,10.841-10.913,15.723c-3.949,2.728-8.759,5.169-12.851,9.405h14.287v-6.964
		h9.477v17.733H63.854z"/>
	<path id="h" style="fill:#202020;" d="M108.148,59.424h3.159V25.608h-3.159v-8.615h17.231V38.46
		c3.015-3.662,6.39-5.456,10.554-5.456c6.174,0,9.692,3.518,9.692,10.123v16.297h2.8v8.903h-16.8V47.649
		c0-2.656-1.148-4.164-3.087-4.164c-1.867,0-3.159,1.58-3.159,4.164v11.774h2.943v8.903h-20.174V59.424z"/>
	<path id="t" style="fill:#202020;" d="M153.155,42.408h-2.944v-8.615h2.944V23.024h14.287v10.769h3.087v8.615h-3.087v17.015h3.087
		v8.903h-17.374V42.408z"/>
	<path id="m" style="fill:#202020;" d="M174.537,59.424h3.088V42.408h-3.088v-8.615h17.015v4.667
		c2.944-3.662,6.318-5.456,10.483-5.456c4.666,0,7.754,2.082,9.046,6.103c3.015-4.092,6.605-6.103,10.913-6.103
		c6.175,0,9.621,3.518,9.621,10.123v16.297h2.8v8.903h-16.657V47.649c0-2.656-1.22-4.164-3.087-4.164
		c-1.867,0-3.159,1.58-3.159,4.164v11.774h3.015v8.903h-16.8V47.649c0-2.656-1.149-4.164-3.087-4.164
		c-1.867,0-3.088,1.58-3.088,4.164v11.774h2.944v8.903h-19.959V59.424z"/>
	<path id="l" style="fill:#202020;" d="M237.193,68.327v-8.831h3.087V25.608h-3.015v-8.615h17.302v42.502h3.016v8.831H237.193z"/>
	<g>
		<g>
			<path style="fill:none;stroke:#202020;stroke-linecap:round;stroke-linejoin:round;" d="M63.388,19.513
				c0.245-0.796,4.964-11.197,20.667-11.833c5.31-0.215,9.655,1.269,12.858,3.122"/>
			<g>
				<polygon style="fill:#202020;" points="93.31,11.746 103.221,17.013 97.272,7.496 				"/>
			</g>
		</g>
	</g>
</g>
<g id="ai2html-settings">
	<rect x="-481.232" y="-137.58" style="fill:none;" width="307" height="462"/>
	<text transform="matrix(1 0 0 1 -481.2324 -126.8402)" style="display:none;"><tspan x="0" y="0" style="display:inline; font-family:'ArialMT'; font-size:15;">ai2html-settings</tspan><tspan x="0" y="18" style="display:inline; font-family:'ArialMT'; font-size:15;">settings_version: 0.56</tspan><tspan x="0" y="36" style="display:inline; font-family:'ArialMT'; font-size:15;">image_format: svg</tspan><tspan x="0" y="54" style="display:inline; font-family:'ArialMT'; font-size:15;">responsiveness: fixed</tspan><tspan x="0" y="72" style="display:inline; font-family:'ArialMT'; font-size:15;">output: one-file</tspan><tspan x="0" y="90" style="display:inline; font-family:'ArialMT'; font-size:15;">create_promo_images: false</tspan><tspan x="0" y="108" style="display:inline; font-family:'ArialMT'; font-size:15;">html_output_path: /ai2html-output/</tspan><tspan x="0" y="126" style="display:inline; font-family:'ArialMT'; font-size:15;">html_output_extension: .html</tspan><tspan x="0" y="144" style="display:inline; font-family:'ArialMT'; font-size:15;">html_output_path: ../_includes/</tspan><tspan x="0" y="162" style="display:inline; font-family:'ArialMT'; font-size:15;">image_output_path: ../images/</tspan><tspan x="0" y="180" style="display:inline; font-family:'ArialMT'; font-size:15;">image_source_path: images/</tspan><tspan x="0" y="198" style="display:inline; font-family:'ArialMT'; font-size:15;">local_preview_template: </tspan><tspan x="0" y="216" style="display:inline; font-family:'ArialMT'; font-size:15;">png_number_of_colors: 128</tspan><tspan x="0" y="234" style="display:inline; font-family:'ArialMT'; font-size:15;">jpg_quality: 60</tspan></text>
	<rect x="-471.232" y="159.42" style="fill:none;" width="333.287" height="319.759"/>
	<text transform="matrix(1 0 0 1 -471.2324 170.1598)" style="display:none;"><tspan x="0" y="0" style="display:inline; font-family:'ArialMT'; font-size:15;">ai2html-css</tspan><tspan x="0" y="18" style="display:inline; font-family:'ArialMT'; font-size:15;">.g-inv p {</tspan><tspan x="0" y="36" style="display:inline; font-family:'ArialMT'; font-size:15;">   color: rgba(0,0,0,.0)!important;</tspan><tspan x="0" y="54" style="display:inline; font-family:'ArialMT'; font-size:15;">}</tspan></text>
</g>
</svg>
