<?xml version="1.0" encoding="utf-8"?>
<!-- Generator: Adobe Illustrator 18.0.0, SVG Export Plug-In . SVG Version: 6.00 Build 0)  -->
<!DOCTYPE svg PUBLIC "-//W3C//DTD SVG 1.1//EN" "http://www.w3.org/Graphics/SVG/1.1/DTD/svg11.dtd">
<svg version="1.1" xmlns="http://www.w3.org/2000/svg" xmlns:xlink="http://www.w3.org/1999/xlink" x="0px" y="0px"
	 viewBox="0 0 420 400" style="enable-background:new 0 0 420 400;" xml:space="preserve">
<g id="Layer_1">
	<rect x="0.516" y="-1120" style="display:none;fill:#A3BDC4;" width="720" height="400"/>
	<rect x="1.516" y="-588.258" style="display:none;fill:#A3BDC4;" width="600.711" height="404.215"/>
	<rect x="0" style="fill:#A3BDC4;" width="420.852" height="400"/>
	<rect x="0.516" y="580" style="display:none;fill:#A3BDC4;" width="300" height="300"/>
	<g>
		<rect x="0.016" y="-1119.5" style="fill:none;stroke:#5589A5;stroke-miterlimit:10;" width="720" height="400"/>
		<line style="opacity:0.4;fill:none;stroke:#5589A5;stroke-miterlimit:10;" x1="0.516" y1="-739.5" x2="720.516" y2="-739.5"/>
		<line style="opacity:0.4;fill:none;stroke:#5589A5;stroke-miterlimit:10;" x1="0.516" y1="-759.5" x2="720.516" y2="-759.5"/>
		<line style="opacity:0.4;fill:none;stroke:#5589A5;stroke-miterlimit:10;" x1="0.516" y1="-779.5" x2="720.516" y2="-779.5"/>
		<line style="opacity:0.4;fill:none;stroke:#5589A5;stroke-miterlimit:10;" x1="0.516" y1="-799.5" x2="720.516" y2="-799.5"/>
		<line style="fill:none;stroke:#5589A5;stroke-miterlimit:10;" x1="0.516" y1="-819.5" x2="720.516" y2="-819.5"/>
		<line style="opacity:0.4;fill:none;stroke:#5589A5;stroke-miterlimit:10;" x1="0.516" y1="-839.5" x2="720.516" y2="-839.5"/>
		<line style="opacity:0.4;fill:none;stroke:#5589A5;stroke-miterlimit:10;" x1="0.516" y1="-859.5" x2="720.516" y2="-859.5"/>
		<line style="opacity:0.4;fill:none;stroke:#5589A5;stroke-miterlimit:10;" x1="0.516" y1="-879.5" x2="720.516" y2="-879.5"/>
		<line style="opacity:0.4;fill:none;stroke:#5589A5;stroke-miterlimit:10;" x1="0.516" y1="-899.5" x2="720.516" y2="-899.5"/>
		<line style="fill:none;stroke:#5589A5;stroke-miterlimit:10;" x1="0.516" y1="-919.5" x2="720.516" y2="-919.5"/>
		<line style="opacity:0.4;fill:none;stroke:#5589A5;stroke-miterlimit:10;" x1="0.516" y1="-939.5" x2="720.516" y2="-939.5"/>
		<line style="opacity:0.4;fill:none;stroke:#5589A5;stroke-miterlimit:10;" x1="0.516" y1="-959.5" x2="720.516" y2="-959.5"/>
		<line style="opacity:0.4;fill:none;stroke:#5589A5;stroke-miterlimit:10;" x1="0.516" y1="-979.5" x2="720.516" y2="-979.5"/>
		<line style="opacity:0.4;fill:none;stroke:#5589A5;stroke-miterlimit:10;" x1="0.516" y1="-999.5" x2="720.516" y2="-999.5"/>
		<line style="fill:none;stroke:#5589A5;stroke-miterlimit:10;" x1="0.516" y1="-1019.5" x2="720.516" y2="-1019.5"/>
		<line style="opacity:0.4;fill:none;stroke:#5589A5;stroke-miterlimit:10;" x1="0.516" y1="-1039.5" x2="720.516" y2="-1039.5"/>
		<line style="opacity:0.4;fill:none;stroke:#5589A5;stroke-miterlimit:10;" x1="0.516" y1="-1059.5" x2="720.516" y2="-1059.5"/>
		<line style="opacity:0.4;fill:none;stroke:#5589A5;stroke-miterlimit:10;" x1="0.516" y1="-1079.5" x2="720.516" y2="-1079.5"/>
		<line style="opacity:0.4;fill:none;stroke:#5589A5;stroke-miterlimit:10;" x1="0.516" y1="-1099.5" x2="720.516" y2="-1099.5"/>
		<line style="fill:none;stroke:#5589A5;stroke-miterlimit:10;" x1="700.016" y1="-1120" x2="700.016" y2="-720"/>
		<line style="opacity:0.4;fill:none;stroke:#5589A5;stroke-miterlimit:10;" x1="680.016" y1="-1120" x2="680.016" y2="-720"/>
		<line style="opacity:0.4;fill:none;stroke:#5589A5;stroke-miterlimit:10;" x1="660.016" y1="-1120" x2="660.016" y2="-720"/>
		<line style="opacity:0.4;fill:none;stroke:#5589A5;stroke-miterlimit:10;" x1="640.016" y1="-1120" x2="640.016" y2="-720"/>
		<line style="opacity:0.4;fill:none;stroke:#5589A5;stroke-miterlimit:10;" x1="620.016" y1="-1120" x2="620.016" y2="-720"/>
		<line style="fill:none;stroke:#5589A5;stroke-miterlimit:10;" x1="600.016" y1="-1120" x2="600.016" y2="-720"/>
		<line style="opacity:0.4;fill:none;stroke:#5589A5;stroke-miterlimit:10;" x1="580.016" y1="-1120" x2="580.016" y2="-720"/>
		<line style="opacity:0.4;fill:none;stroke:#5589A5;stroke-miterlimit:10;" x1="560.016" y1="-1120" x2="560.016" y2="-720"/>
		<line style="opacity:0.4;fill:none;stroke:#5589A5;stroke-miterlimit:10;" x1="540.016" y1="-1120" x2="540.016" y2="-720"/>
		<line style="opacity:0.4;fill:none;stroke:#5589A5;stroke-miterlimit:10;" x1="520.016" y1="-1120" x2="520.016" y2="-720"/>
		<line style="fill:none;stroke:#5589A5;stroke-miterlimit:10;" x1="500.016" y1="-1120" x2="500.016" y2="-720"/>
		<line style="opacity:0.4;fill:none;stroke:#5589A5;stroke-miterlimit:10;" x1="480.016" y1="-1120" x2="480.016" y2="-720"/>
		<line style="opacity:0.4;fill:none;stroke:#5589A5;stroke-miterlimit:10;" x1="460.016" y1="-1120" x2="460.016" y2="-720"/>
		<line style="opacity:0.4;fill:none;stroke:#5589A5;stroke-miterlimit:10;" x1="440.016" y1="-1120" x2="440.016" y2="-720"/>
		<line style="opacity:0.4;fill:none;stroke:#5589A5;stroke-miterlimit:10;" x1="420.016" y1="-1120" x2="420.016" y2="-720"/>
		<line style="fill:none;stroke:#5589A5;stroke-miterlimit:10;" x1="400.016" y1="-1120" x2="400.016" y2="-720"/>
		<line style="opacity:0.4;fill:none;stroke:#5589A5;stroke-miterlimit:10;" x1="380.016" y1="-1120" x2="380.016" y2="-720"/>
		<line style="opacity:0.4;fill:none;stroke:#5589A5;stroke-miterlimit:10;" x1="360.016" y1="-1120" x2="360.016" y2="-720"/>
		<line style="opacity:0.4;fill:none;stroke:#5589A5;stroke-miterlimit:10;" x1="340.016" y1="-1120" x2="340.016" y2="-720"/>
		<line style="opacity:0.4;fill:none;stroke:#5589A5;stroke-miterlimit:10;" x1="320.016" y1="-1120" x2="320.016" y2="-720"/>
		<line style="fill:none;stroke:#5589A5;stroke-miterlimit:10;" x1="300.016" y1="-1120" x2="300.016" y2="-720"/>
		<line style="opacity:0.4;fill:none;stroke:#5589A5;stroke-miterlimit:10;" x1="280.016" y1="-1120" x2="280.016" y2="-720"/>
		<line style="opacity:0.4;fill:none;stroke:#5589A5;stroke-miterlimit:10;" x1="260.016" y1="-1120" x2="260.016" y2="-720"/>
		<line style="opacity:0.4;fill:none;stroke:#5589A5;stroke-miterlimit:10;" x1="240.016" y1="-1120" x2="240.016" y2="-720"/>
		<line style="opacity:0.4;fill:none;stroke:#5589A5;stroke-miterlimit:10;" x1="220.016" y1="-1120" x2="220.016" y2="-720"/>
		<line style="fill:none;stroke:#5589A5;stroke-miterlimit:10;" x1="200.016" y1="-1120" x2="200.016" y2="-720"/>
		<line style="opacity:0.4;fill:none;stroke:#5589A5;stroke-miterlimit:10;" x1="180.016" y1="-1120" x2="180.016" y2="-720"/>
		<line style="opacity:0.4;fill:none;stroke:#5589A5;stroke-miterlimit:10;" x1="160.016" y1="-1120" x2="160.016" y2="-720"/>
		<line style="opacity:0.4;fill:none;stroke:#5589A5;stroke-miterlimit:10;" x1="140.016" y1="-1120" x2="140.016" y2="-720"/>
		<line style="opacity:0.4;fill:none;stroke:#5589A5;stroke-miterlimit:10;" x1="120.016" y1="-1120" x2="120.016" y2="-720"/>
		<line style="fill:none;stroke:#5589A5;stroke-miterlimit:10;" x1="100.016" y1="-1120" x2="100.016" y2="-720"/>
		<line style="opacity:0.4;fill:none;stroke:#5589A5;stroke-miterlimit:10;" x1="80.016" y1="-1120" x2="80.016" y2="-720"/>
		<line style="opacity:0.4;fill:none;stroke:#5589A5;stroke-miterlimit:10;" x1="60.016" y1="-1120" x2="60.016" y2="-720"/>
		<line style="opacity:0.4;fill:none;stroke:#5589A5;stroke-miterlimit:10;" x1="40.016" y1="-1120" x2="40.016" y2="-720"/>
		<line style="opacity:0.4;fill:none;stroke:#5589A5;stroke-miterlimit:10;" x1="20.016" y1="-1120" x2="20.016" y2="-720"/>
	</g>
	<g>
		<rect x="1.016" y="-586.5" style="fill:none;stroke:#5589A5;stroke-miterlimit:10;" width="720" height="400"/>
		<line style="opacity:0.4;fill:none;stroke:#5589A5;stroke-miterlimit:10;" x1="1.516" y1="-206.5" x2="721.516" y2="-206.5"/>
		<line style="opacity:0.4;fill:none;stroke:#5589A5;stroke-miterlimit:10;" x1="1.516" y1="-226.5" x2="721.516" y2="-226.5"/>
		<line style="opacity:0.4;fill:none;stroke:#5589A5;stroke-miterlimit:10;" x1="1.516" y1="-246.5" x2="721.516" y2="-246.5"/>
		<line style="opacity:0.4;fill:none;stroke:#5589A5;stroke-miterlimit:10;" x1="1.516" y1="-266.5" x2="721.516" y2="-266.5"/>
		<line style="fill:none;stroke:#5589A5;stroke-miterlimit:10;" x1="1.516" y1="-286.5" x2="721.516" y2="-286.5"/>
		<line style="opacity:0.4;fill:none;stroke:#5589A5;stroke-miterlimit:10;" x1="1.516" y1="-306.5" x2="721.516" y2="-306.5"/>
		<line style="opacity:0.4;fill:none;stroke:#5589A5;stroke-miterlimit:10;" x1="1.516" y1="-326.5" x2="721.516" y2="-326.5"/>
		<line style="opacity:0.4;fill:none;stroke:#5589A5;stroke-miterlimit:10;" x1="1.516" y1="-346.5" x2="721.516" y2="-346.5"/>
		<line style="opacity:0.4;fill:none;stroke:#5589A5;stroke-miterlimit:10;" x1="1.516" y1="-366.5" x2="721.516" y2="-366.5"/>
		<line style="fill:none;stroke:#5589A5;stroke-miterlimit:10;" x1="1.516" y1="-386.5" x2="721.516" y2="-386.5"/>
		<line style="opacity:0.4;fill:none;stroke:#5589A5;stroke-miterlimit:10;" x1="1.516" y1="-406.5" x2="721.516" y2="-406.5"/>
		<line style="opacity:0.4;fill:none;stroke:#5589A5;stroke-miterlimit:10;" x1="1.516" y1="-426.5" x2="721.516" y2="-426.5"/>
		<line style="opacity:0.4;fill:none;stroke:#5589A5;stroke-miterlimit:10;" x1="1.516" y1="-446.5" x2="721.516" y2="-446.5"/>
		<line style="opacity:0.4;fill:none;stroke:#5589A5;stroke-miterlimit:10;" x1="1.516" y1="-466.5" x2="721.516" y2="-466.5"/>
		<line style="fill:none;stroke:#5589A5;stroke-miterlimit:10;" x1="1.516" y1="-486.5" x2="721.516" y2="-486.5"/>
		<line style="opacity:0.4;fill:none;stroke:#5589A5;stroke-miterlimit:10;" x1="1.516" y1="-506.5" x2="721.516" y2="-506.5"/>
		<line style="opacity:0.4;fill:none;stroke:#5589A5;stroke-miterlimit:10;" x1="1.516" y1="-526.5" x2="721.516" y2="-526.5"/>
		<line style="opacity:0.4;fill:none;stroke:#5589A5;stroke-miterlimit:10;" x1="1.516" y1="-546.5" x2="721.516" y2="-546.5"/>
		<line style="opacity:0.4;fill:none;stroke:#5589A5;stroke-miterlimit:10;" x1="1.516" y1="-566.5" x2="721.516" y2="-566.5"/>
		<line style="fill:none;stroke:#5589A5;stroke-miterlimit:10;" x1="701.016" y1="-587" x2="701.016" y2="-187"/>
		<line style="opacity:0.4;fill:none;stroke:#5589A5;stroke-miterlimit:10;" x1="681.016" y1="-587" x2="681.016" y2="-187"/>
		<line style="opacity:0.4;fill:none;stroke:#5589A5;stroke-miterlimit:10;" x1="661.016" y1="-587" x2="661.016" y2="-187"/>
		<line style="opacity:0.4;fill:none;stroke:#5589A5;stroke-miterlimit:10;" x1="641.016" y1="-587" x2="641.016" y2="-187"/>
		<line style="opacity:0.4;fill:none;stroke:#5589A5;stroke-miterlimit:10;" x1="621.016" y1="-587" x2="621.016" y2="-187"/>
		<line style="fill:none;stroke:#5589A5;stroke-miterlimit:10;" x1="601.016" y1="-587" x2="601.016" y2="-187"/>
		<line style="opacity:0.4;fill:none;stroke:#5589A5;stroke-miterlimit:10;" x1="581.016" y1="-587" x2="581.016" y2="-187"/>
		<line style="opacity:0.4;fill:none;stroke:#5589A5;stroke-miterlimit:10;" x1="561.016" y1="-587" x2="561.016" y2="-187"/>
		<line style="opacity:0.4;fill:none;stroke:#5589A5;stroke-miterlimit:10;" x1="541.016" y1="-587" x2="541.016" y2="-187"/>
		<line style="opacity:0.4;fill:none;stroke:#5589A5;stroke-miterlimit:10;" x1="521.016" y1="-587" x2="521.016" y2="-187"/>
		<line style="fill:none;stroke:#5589A5;stroke-miterlimit:10;" x1="501.016" y1="-587" x2="501.016" y2="-187"/>
		<line style="opacity:0.4;fill:none;stroke:#5589A5;stroke-miterlimit:10;" x1="481.016" y1="-587" x2="481.016" y2="-187"/>
		<line style="opacity:0.4;fill:none;stroke:#5589A5;stroke-miterlimit:10;" x1="461.016" y1="-587" x2="461.016" y2="-187"/>
		<line style="opacity:0.4;fill:none;stroke:#5589A5;stroke-miterlimit:10;" x1="441.016" y1="-587" x2="441.016" y2="-187"/>
		<line style="opacity:0.4;fill:none;stroke:#5589A5;stroke-miterlimit:10;" x1="421.016" y1="-587" x2="421.016" y2="-187"/>
		<line style="fill:none;stroke:#5589A5;stroke-miterlimit:10;" x1="401.016" y1="-587" x2="401.016" y2="-187"/>
		<line style="opacity:0.4;fill:none;stroke:#5589A5;stroke-miterlimit:10;" x1="381.016" y1="-587" x2="381.016" y2="-187"/>
		<line style="opacity:0.4;fill:none;stroke:#5589A5;stroke-miterlimit:10;" x1="361.016" y1="-587" x2="361.016" y2="-187"/>
		<line style="opacity:0.4;fill:none;stroke:#5589A5;stroke-miterlimit:10;" x1="341.016" y1="-587" x2="341.016" y2="-187"/>
		<line style="opacity:0.4;fill:none;stroke:#5589A5;stroke-miterlimit:10;" x1="321.016" y1="-587" x2="321.016" y2="-187"/>
		<line style="fill:none;stroke:#5589A5;stroke-miterlimit:10;" x1="301.016" y1="-587" x2="301.016" y2="-187"/>
		<line style="opacity:0.4;fill:none;stroke:#5589A5;stroke-miterlimit:10;" x1="281.016" y1="-587" x2="281.016" y2="-187"/>
		<line style="opacity:0.4;fill:none;stroke:#5589A5;stroke-miterlimit:10;" x1="261.016" y1="-587" x2="261.016" y2="-187"/>
		<line style="opacity:0.4;fill:none;stroke:#5589A5;stroke-miterlimit:10;" x1="241.016" y1="-587" x2="241.016" y2="-187"/>
		<line style="opacity:0.4;fill:none;stroke:#5589A5;stroke-miterlimit:10;" x1="221.016" y1="-587" x2="221.016" y2="-187"/>
		<line style="fill:none;stroke:#5589A5;stroke-miterlimit:10;" x1="201.016" y1="-587" x2="201.016" y2="-187"/>
		<line style="opacity:0.4;fill:none;stroke:#5589A5;stroke-miterlimit:10;" x1="181.016" y1="-587" x2="181.016" y2="-187"/>
		<line style="opacity:0.4;fill:none;stroke:#5589A5;stroke-miterlimit:10;" x1="161.016" y1="-587" x2="161.016" y2="-187"/>
		<line style="opacity:0.4;fill:none;stroke:#5589A5;stroke-miterlimit:10;" x1="141.016" y1="-587" x2="141.016" y2="-187"/>
		<line style="opacity:0.4;fill:none;stroke:#5589A5;stroke-miterlimit:10;" x1="121.016" y1="-587" x2="121.016" y2="-187"/>
		<line style="fill:none;stroke:#5589A5;stroke-miterlimit:10;" x1="101.016" y1="-587" x2="101.016" y2="-187"/>
		<line style="opacity:0.4;fill:none;stroke:#5589A5;stroke-miterlimit:10;" x1="81.016" y1="-587" x2="81.016" y2="-187"/>
		<line style="opacity:0.4;fill:none;stroke:#5589A5;stroke-miterlimit:10;" x1="61.016" y1="-587" x2="61.016" y2="-187"/>
		<line style="opacity:0.4;fill:none;stroke:#5589A5;stroke-miterlimit:10;" x1="41.016" y1="-587" x2="41.016" y2="-187"/>
		<line style="opacity:0.4;fill:none;stroke:#5589A5;stroke-miterlimit:10;" x1="21.016" y1="-587" x2="21.016" y2="-187"/>
	</g>
	<g>
		<rect x="0.016" y="0.5" style="fill:none;stroke:#5589A5;stroke-miterlimit:10;" width="720" height="400"/>
		<line style="opacity:0.4;fill:none;stroke:#5589A5;stroke-miterlimit:10;" x1="0.516" y1="380.5" x2="720.516" y2="380.5"/>
		<line style="opacity:0.4;fill:none;stroke:#5589A5;stroke-miterlimit:10;" x1="0.516" y1="360.5" x2="720.516" y2="360.5"/>
		<line style="opacity:0.4;fill:none;stroke:#5589A5;stroke-miterlimit:10;" x1="0.516" y1="340.5" x2="720.516" y2="340.5"/>
		<line style="opacity:0.4;fill:none;stroke:#5589A5;stroke-miterlimit:10;" x1="0.516" y1="320.5" x2="720.516" y2="320.5"/>
		<line style="fill:none;stroke:#5589A5;stroke-miterlimit:10;" x1="0.516" y1="300.5" x2="720.516" y2="300.5"/>
		<line style="opacity:0.4;fill:none;stroke:#5589A5;stroke-miterlimit:10;" x1="0.516" y1="280.5" x2="720.516" y2="280.5"/>
		<line style="opacity:0.4;fill:none;stroke:#5589A5;stroke-miterlimit:10;" x1="0.516" y1="260.5" x2="720.516" y2="260.5"/>
		<line style="opacity:0.4;fill:none;stroke:#5589A5;stroke-miterlimit:10;" x1="0.516" y1="240.5" x2="720.516" y2="240.5"/>
		<line style="opacity:0.4;fill:none;stroke:#5589A5;stroke-miterlimit:10;" x1="0.516" y1="220.5" x2="720.516" y2="220.5"/>
		<line style="fill:none;stroke:#5589A5;stroke-miterlimit:10;" x1="0.516" y1="200.5" x2="720.516" y2="200.5"/>
		<line style="opacity:0.4;fill:none;stroke:#5589A5;stroke-miterlimit:10;" x1="0.516" y1="180.5" x2="720.516" y2="180.5"/>
		<line style="opacity:0.4;fill:none;stroke:#5589A5;stroke-miterlimit:10;" x1="0.516" y1="160.5" x2="720.516" y2="160.5"/>
		<line style="opacity:0.4;fill:none;stroke:#5589A5;stroke-miterlimit:10;" x1="0.516" y1="140.5" x2="720.516" y2="140.5"/>
		<line style="opacity:0.4;fill:none;stroke:#5589A5;stroke-miterlimit:10;" x1="0.516" y1="120.5" x2="720.516" y2="120.5"/>
		<line style="fill:none;stroke:#5589A5;stroke-miterlimit:10;" x1="0.516" y1="100.5" x2="720.516" y2="100.5"/>
		<line style="opacity:0.4;fill:none;stroke:#5589A5;stroke-miterlimit:10;" x1="0.516" y1="80.5" x2="720.516" y2="80.5"/>
		<line style="opacity:0.4;fill:none;stroke:#5589A5;stroke-miterlimit:10;" x1="0.516" y1="60.5" x2="720.516" y2="60.5"/>
		<line style="opacity:0.4;fill:none;stroke:#5589A5;stroke-miterlimit:10;" x1="0.516" y1="40.5" x2="720.516" y2="40.5"/>
		<line style="opacity:0.4;fill:none;stroke:#5589A5;stroke-miterlimit:10;" x1="0.516" y1="20.5" x2="720.516" y2="20.5"/>
		<line style="fill:none;stroke:#5589A5;stroke-miterlimit:10;" x1="700.016" y1="0" x2="700.016" y2="400"/>
		<line style="opacity:0.4;fill:none;stroke:#5589A5;stroke-miterlimit:10;" x1="680.016" y1="0" x2="680.016" y2="400"/>
		<line style="opacity:0.4;fill:none;stroke:#5589A5;stroke-miterlimit:10;" x1="660.016" y1="0" x2="660.016" y2="400"/>
		<line style="opacity:0.4;fill:none;stroke:#5589A5;stroke-miterlimit:10;" x1="640.016" y1="0" x2="640.016" y2="400"/>
		<line style="opacity:0.4;fill:none;stroke:#5589A5;stroke-miterlimit:10;" x1="620.016" y1="0" x2="620.016" y2="400"/>
		<line style="fill:none;stroke:#5589A5;stroke-miterlimit:10;" x1="600.016" y1="0" x2="600.016" y2="400"/>
		<line style="opacity:0.4;fill:none;stroke:#5589A5;stroke-miterlimit:10;" x1="580.016" y1="0" x2="580.016" y2="400"/>
		<line style="opacity:0.4;fill:none;stroke:#5589A5;stroke-miterlimit:10;" x1="560.016" y1="0" x2="560.016" y2="400"/>
		<line style="opacity:0.4;fill:none;stroke:#5589A5;stroke-miterlimit:10;" x1="540.016" y1="0" x2="540.016" y2="400"/>
		<line style="opacity:0.4;fill:none;stroke:#5589A5;stroke-miterlimit:10;" x1="520.016" y1="0" x2="520.016" y2="400"/>
		<line style="fill:none;stroke:#5589A5;stroke-miterlimit:10;" x1="500.016" y1="0" x2="500.016" y2="400"/>
		<line style="opacity:0.4;fill:none;stroke:#5589A5;stroke-miterlimit:10;" x1="480.016" y1="0" x2="480.016" y2="400"/>
		<line style="opacity:0.4;fill:none;stroke:#5589A5;stroke-miterlimit:10;" x1="460.016" y1="0" x2="460.016" y2="400"/>
		<line style="opacity:0.4;fill:none;stroke:#5589A5;stroke-miterlimit:10;" x1="440.016" y1="0" x2="440.016" y2="400"/>
		<line style="opacity:0.4;fill:none;stroke:#5589A5;stroke-miterlimit:10;" x1="420.016" y1="0" x2="420.016" y2="400"/>
		<line style="fill:none;stroke:#5589A5;stroke-miterlimit:10;" x1="400.016" y1="0" x2="400.016" y2="400"/>
		<line style="opacity:0.4;fill:none;stroke:#5589A5;stroke-miterlimit:10;" x1="380.016" y1="0" x2="380.016" y2="400"/>
		<line style="opacity:0.4;fill:none;stroke:#5589A5;stroke-miterlimit:10;" x1="360.016" y1="0" x2="360.016" y2="400"/>
		<line style="opacity:0.4;fill:none;stroke:#5589A5;stroke-miterlimit:10;" x1="340.016" y1="0" x2="340.016" y2="400"/>
		<line style="opacity:0.4;fill:none;stroke:#5589A5;stroke-miterlimit:10;" x1="320.016" y1="0" x2="320.016" y2="400"/>
		<line style="fill:none;stroke:#5589A5;stroke-miterlimit:10;" x1="300.016" y1="0" x2="300.016" y2="400"/>
		<line style="opacity:0.4;fill:none;stroke:#5589A5;stroke-miterlimit:10;" x1="280.016" y1="0" x2="280.016" y2="400"/>
		<line style="opacity:0.4;fill:none;stroke:#5589A5;stroke-miterlimit:10;" x1="260.016" y1="0" x2="260.016" y2="400"/>
		<line style="opacity:0.4;fill:none;stroke:#5589A5;stroke-miterlimit:10;" x1="240.016" y1="0" x2="240.016" y2="400"/>
		<line style="opacity:0.4;fill:none;stroke:#5589A5;stroke-miterlimit:10;" x1="220.016" y1="0" x2="220.016" y2="400"/>
		<line style="fill:none;stroke:#5589A5;stroke-miterlimit:10;" x1="200.016" y1="0" x2="200.016" y2="400"/>
		<line style="opacity:0.4;fill:none;stroke:#5589A5;stroke-miterlimit:10;" x1="180.016" y1="0" x2="180.016" y2="400"/>
		<line style="opacity:0.4;fill:none;stroke:#5589A5;stroke-miterlimit:10;" x1="160.016" y1="0" x2="160.016" y2="400"/>
		<line style="opacity:0.4;fill:none;stroke:#5589A5;stroke-miterlimit:10;" x1="140.016" y1="0" x2="140.016" y2="400"/>
		<line style="opacity:0.4;fill:none;stroke:#5589A5;stroke-miterlimit:10;" x1="120.016" y1="0" x2="120.016" y2="400"/>
		<line style="fill:none;stroke:#5589A5;stroke-miterlimit:10;" x1="100.016" y1="0" x2="100.016" y2="400"/>
		<line style="opacity:0.4;fill:none;stroke:#5589A5;stroke-miterlimit:10;" x1="80.016" y1="0" x2="80.016" y2="400"/>
		<line style="opacity:0.4;fill:none;stroke:#5589A5;stroke-miterlimit:10;" x1="60.016" y1="0" x2="60.016" y2="400"/>
		<line style="opacity:0.4;fill:none;stroke:#5589A5;stroke-miterlimit:10;" x1="40.016" y1="0" x2="40.016" y2="400"/>
		<line style="opacity:0.4;fill:none;stroke:#5589A5;stroke-miterlimit:10;" x1="20.016" y1="0" x2="20.016" y2="400"/>
	</g>
	<g>
		<rect x="0.016" y="580.5" style="fill:none;stroke:#5589A5;stroke-miterlimit:10;" width="720" height="400"/>
		<line style="opacity:0.4;fill:none;stroke:#5589A5;stroke-miterlimit:10;" x1="0.516" y1="960.5" x2="720.516" y2="960.5"/>
		<line style="opacity:0.4;fill:none;stroke:#5589A5;stroke-miterlimit:10;" x1="0.516" y1="940.5" x2="720.516" y2="940.5"/>
		<line style="opacity:0.4;fill:none;stroke:#5589A5;stroke-miterlimit:10;" x1="0.516" y1="920.5" x2="720.516" y2="920.5"/>
		<line style="opacity:0.4;fill:none;stroke:#5589A5;stroke-miterlimit:10;" x1="0.516" y1="900.5" x2="720.516" y2="900.5"/>
		<line style="fill:none;stroke:#5589A5;stroke-miterlimit:10;" x1="0.516" y1="880.5" x2="720.516" y2="880.5"/>
		<line style="opacity:0.4;fill:none;stroke:#5589A5;stroke-miterlimit:10;" x1="0.516" y1="860.5" x2="720.516" y2="860.5"/>
		<line style="opacity:0.4;fill:none;stroke:#5589A5;stroke-miterlimit:10;" x1="0.516" y1="840.5" x2="720.516" y2="840.5"/>
		<line style="opacity:0.4;fill:none;stroke:#5589A5;stroke-miterlimit:10;" x1="0.516" y1="820.5" x2="720.516" y2="820.5"/>
		<line style="opacity:0.4;fill:none;stroke:#5589A5;stroke-miterlimit:10;" x1="0.516" y1="800.5" x2="720.516" y2="800.5"/>
		<line style="fill:none;stroke:#5589A5;stroke-miterlimit:10;" x1="0.516" y1="780.5" x2="720.516" y2="780.5"/>
		<line style="opacity:0.4;fill:none;stroke:#5589A5;stroke-miterlimit:10;" x1="0.516" y1="760.5" x2="720.516" y2="760.5"/>
		<line style="opacity:0.4;fill:none;stroke:#5589A5;stroke-miterlimit:10;" x1="0.516" y1="740.5" x2="720.516" y2="740.5"/>
		<line style="opacity:0.4;fill:none;stroke:#5589A5;stroke-miterlimit:10;" x1="0.516" y1="720.5" x2="720.516" y2="720.5"/>
		<line style="opacity:0.4;fill:none;stroke:#5589A5;stroke-miterlimit:10;" x1="0.516" y1="700.5" x2="720.516" y2="700.5"/>
		<line style="fill:none;stroke:#5589A5;stroke-miterlimit:10;" x1="0.516" y1="680.5" x2="720.516" y2="680.5"/>
		<line style="opacity:0.4;fill:none;stroke:#5589A5;stroke-miterlimit:10;" x1="0.516" y1="660.5" x2="720.516" y2="660.5"/>
		<line style="opacity:0.4;fill:none;stroke:#5589A5;stroke-miterlimit:10;" x1="0.516" y1="640.5" x2="720.516" y2="640.5"/>
		<line style="opacity:0.4;fill:none;stroke:#5589A5;stroke-miterlimit:10;" x1="0.516" y1="620.5" x2="720.516" y2="620.5"/>
		<line style="opacity:0.4;fill:none;stroke:#5589A5;stroke-miterlimit:10;" x1="0.516" y1="600.5" x2="720.516" y2="600.5"/>
		<line style="fill:none;stroke:#5589A5;stroke-miterlimit:10;" x1="700.016" y1="580" x2="700.016" y2="980"/>
		<line style="opacity:0.4;fill:none;stroke:#5589A5;stroke-miterlimit:10;" x1="680.016" y1="580" x2="680.016" y2="980"/>
		<line style="opacity:0.4;fill:none;stroke:#5589A5;stroke-miterlimit:10;" x1="660.016" y1="580" x2="660.016" y2="980"/>
		<line style="opacity:0.4;fill:none;stroke:#5589A5;stroke-miterlimit:10;" x1="640.016" y1="580" x2="640.016" y2="980"/>
		<line style="opacity:0.4;fill:none;stroke:#5589A5;stroke-miterlimit:10;" x1="620.016" y1="580" x2="620.016" y2="980"/>
		<line style="fill:none;stroke:#5589A5;stroke-miterlimit:10;" x1="600.016" y1="580" x2="600.016" y2="980"/>
		<line style="opacity:0.4;fill:none;stroke:#5589A5;stroke-miterlimit:10;" x1="580.016" y1="580" x2="580.016" y2="980"/>
		<line style="opacity:0.4;fill:none;stroke:#5589A5;stroke-miterlimit:10;" x1="560.016" y1="580" x2="560.016" y2="980"/>
		<line style="opacity:0.4;fill:none;stroke:#5589A5;stroke-miterlimit:10;" x1="540.016" y1="580" x2="540.016" y2="980"/>
		<line style="opacity:0.4;fill:none;stroke:#5589A5;stroke-miterlimit:10;" x1="520.016" y1="580" x2="520.016" y2="980"/>
		<line style="fill:none;stroke:#5589A5;stroke-miterlimit:10;" x1="500.016" y1="580" x2="500.016" y2="980"/>
		<line style="opacity:0.4;fill:none;stroke:#5589A5;stroke-miterlimit:10;" x1="480.016" y1="580" x2="480.016" y2="980"/>
		<line style="opacity:0.4;fill:none;stroke:#5589A5;stroke-miterlimit:10;" x1="460.016" y1="580" x2="460.016" y2="980"/>
		<line style="opacity:0.4;fill:none;stroke:#5589A5;stroke-miterlimit:10;" x1="440.016" y1="580" x2="440.016" y2="980"/>
		<line style="opacity:0.4;fill:none;stroke:#5589A5;stroke-miterlimit:10;" x1="420.016" y1="580" x2="420.016" y2="980"/>
		<line style="fill:none;stroke:#5589A5;stroke-miterlimit:10;" x1="400.016" y1="580" x2="400.016" y2="980"/>
		<line style="opacity:0.4;fill:none;stroke:#5589A5;stroke-miterlimit:10;" x1="380.016" y1="580" x2="380.016" y2="980"/>
		<line style="opacity:0.4;fill:none;stroke:#5589A5;stroke-miterlimit:10;" x1="360.016" y1="580" x2="360.016" y2="980"/>
		<line style="opacity:0.4;fill:none;stroke:#5589A5;stroke-miterlimit:10;" x1="340.016" y1="580" x2="340.016" y2="980"/>
		<line style="opacity:0.4;fill:none;stroke:#5589A5;stroke-miterlimit:10;" x1="320.016" y1="580" x2="320.016" y2="980"/>
		<line style="fill:none;stroke:#5589A5;stroke-miterlimit:10;" x1="300.016" y1="580" x2="300.016" y2="980"/>
		<line style="opacity:0.4;fill:none;stroke:#5589A5;stroke-miterlimit:10;" x1="280.016" y1="580" x2="280.016" y2="980"/>
		<line style="opacity:0.4;fill:none;stroke:#5589A5;stroke-miterlimit:10;" x1="260.016" y1="580" x2="260.016" y2="980"/>
		<line style="opacity:0.4;fill:none;stroke:#5589A5;stroke-miterlimit:10;" x1="240.016" y1="580" x2="240.016" y2="980"/>
		<line style="opacity:0.4;fill:none;stroke:#5589A5;stroke-miterlimit:10;" x1="220.016" y1="580" x2="220.016" y2="980"/>
		<line style="fill:none;stroke:#5589A5;stroke-miterlimit:10;" x1="200.016" y1="580" x2="200.016" y2="980"/>
		<line style="opacity:0.4;fill:none;stroke:#5589A5;stroke-miterlimit:10;" x1="180.016" y1="580" x2="180.016" y2="980"/>
		<line style="opacity:0.4;fill:none;stroke:#5589A5;stroke-miterlimit:10;" x1="160.016" y1="580" x2="160.016" y2="980"/>
		<line style="opacity:0.4;fill:none;stroke:#5589A5;stroke-miterlimit:10;" x1="140.016" y1="580" x2="140.016" y2="980"/>
		<line style="opacity:0.4;fill:none;stroke:#5589A5;stroke-miterlimit:10;" x1="120.016" y1="580" x2="120.016" y2="980"/>
		<line style="fill:none;stroke:#5589A5;stroke-miterlimit:10;" x1="100.016" y1="580" x2="100.016" y2="980"/>
		<line style="opacity:0.4;fill:none;stroke:#5589A5;stroke-miterlimit:10;" x1="80.016" y1="580" x2="80.016" y2="980"/>
		<line style="opacity:0.4;fill:none;stroke:#5589A5;stroke-miterlimit:10;" x1="60.016" y1="580" x2="60.016" y2="980"/>
		<line style="opacity:0.4;fill:none;stroke:#5589A5;stroke-miterlimit:10;" x1="40.016" y1="580" x2="40.016" y2="980"/>
		<line style="opacity:0.4;fill:none;stroke:#5589A5;stroke-miterlimit:10;" x1="20.016" y1="580" x2="20.016" y2="980"/>
	</g>
	
		<text transform="matrix(1 0 0 1 218.7429 -895.9276)" style="opacity:0.5;fill:#FFFFFF; font-family:'Arial-BoldMT'; font-size:100;">720px</text>
	
		<text transform="matrix(1 0 0 1 159.7429 -365.9276)" style="opacity:0.5;fill:#FFFFFF; font-family:'Arial-BoldMT'; font-size:100;">600px</text>
	
		<text transform="matrix(1 0 0 1 107.9236 222.3303)" style="display:none;opacity:0.5;fill:#FFFFFF; font-family:'Arial-BoldMT'; font-size:72;">420px</text>
	<text transform="matrix(1 0 0 1 65.4519 750.0901)" style="opacity:0.5;fill:#FFFFFF; font-family:'Arial-BoldMT'; font-size:60;">300px</text>
	<g style="opacity:0.5;">
	</g>
</g>
<g id="ai2html-settings">
	<rect x="-450" y="-1120" style="fill:none;" width="307" height="462"/>
	<text transform="matrix(1 0 0 1 -450 -1109.3501)" style="display:none;"><tspan x="0" y="0" style="display:inline; font-family:'MyriadPro-Regular'; font-size:15;">ai2html-settings</tspan><tspan x="0" y="18" style="display:inline; font-family:'MyriadPro-Regular'; font-size:15;">settings_version: 0.56</tspan><tspan x="0" y="36" style="display:inline; font-family:'MyriadPro-Regular'; font-size:15;">image_format: svg</tspan><tspan x="0" y="54" style="display:inline; font-family:'MyriadPro-Regular'; font-size:15;">responsiveness: </tspan><tspan x="101.637" y="54" style="display:inline; font-family:'MyriadPro-Regular'; font-size:15;">fixed</tspan><tspan x="0" y="72" style="display:inline; font-family:'MyriadPro-Regular'; font-size:15;">output: one-file</tspan><tspan x="0" y="90" style="display:inline; font-family:'MyriadPro-Regular'; font-size:15;">create_promo_images: false</tspan><tspan x="0" y="108" style="display:inline; font-family:'MyriadPro-Regular'; font-size:15;">html_output_path: /ai2html-output/</tspan><tspan x="0" y="126" style="display:inline; font-family:'MyriadPro-Regular'; font-size:15;">html_output_extension: .html</tspan><tspan x="0" y="144" style="display:inline; font-family:'NYTFranklin-Light'; font-size:15;">html_output_path: ../_includes/</tspan><tspan x="0" y="162" style="display:inline; font-family:'NYTFranklin-Light'; font-size:15;">image_output_path: ../images/</tspan><tspan x="0" y="180" style="display:inline; font-family:'NYTFranklin-Light'; font-size:15;">image_source_path: images/</tspan><tspan x="0" y="198" style="display:inline; font-family:'MyriadPro-Regular'; font-size:15;">local_preview_template: </tspan><tspan x="0" y="216" style="display:inline; font-family:'MyriadPro-Regular'; font-size:15;">png_number_of_colors: 128</tspan><tspan x="0" y="234" style="display:inline; font-family:'MyriadPro-Regular'; font-size:15;">jpg_quality: 60</tspan><tspan x="0" y="252" style="display:inline; font-family:'MyriadPro-Regular'; font-size:15;">headline: Ai Graphic Headline</tspan><tspan x="0" y="270" style="display:inline; font-family:'MyriadPro-Regular'; font-size:15;">leadin: Introductory text here.</tspan><tspan x="0" y="288" style="display:inline; font-family:'MyriadPro-Regular'; font-size:15;">notes: Notes: Text goes here.</tspan><tspan x="0" y="324" style="display:inline; font-family:'MyriadPro-Regular'; font-size:15;">sources: Source: Name goes here.</tspan><tspan x="0" y="342" style="display:inline; font-family:'MyriadPro-Regular'; font-size:15;">credit: By ai2html</tspan></text>
</g>
</svg>
