<?xml version="1.0" encoding="utf-8"?>
<!-- Generator: Adobe Illustrator 18.0.0, SVG Export Plug-In . SVG Version: 6.00 Build 0)  -->
<!DOCTYPE svg PUBLIC "-//W3C//DTD SVG 1.1//EN" "http://www.w3.org/Graphics/SVG/1.1/DTD/svg11.dtd">
<svg version="1.1" xmlns="http://www.w3.org/2000/svg" xmlns:xlink="http://www.w3.org/1999/xlink" x="0px" y="0px"
	 viewBox="0 0 300 300" style="enable-background:new 0 0 300 300;" xml:space="preserve">
<g id="Layer_1">
	<rect y="-1700" style="display:none;fill:#A3BDC4;" width="720" height="400"/>
	<rect x="1" y="-1168.258" style="display:none;fill:#A3BDC4;" width="600.711" height="404.215"/>
	<rect x="-0.516" y="-580" style="display:none;fill:#A3BDC4;" width="420.852" height="400"/>
	<rect style="fill:#A3BDC4;" width="300" height="300"/>
	<g>
		<rect x="-0.5" y="-1699.5" style="fill:none;stroke:#5589A5;stroke-miterlimit:10;" width="720" height="400"/>
		<line style="opacity:0.4;fill:none;stroke:#5589A5;stroke-miterlimit:10;" x1="0" y1="-1319.5" x2="720" y2="-1319.5"/>
		<line style="opacity:0.4;fill:none;stroke:#5589A5;stroke-miterlimit:10;" x1="0" y1="-1339.5" x2="720" y2="-1339.5"/>
		<line style="opacity:0.4;fill:none;stroke:#5589A5;stroke-miterlimit:10;" x1="0" y1="-1359.5" x2="720" y2="-1359.5"/>
		<line style="opacity:0.4;fill:none;stroke:#5589A5;stroke-miterlimit:10;" x1="0" y1="-1379.5" x2="720" y2="-1379.5"/>
		<line style="fill:none;stroke:#5589A5;stroke-miterlimit:10;" x1="0" y1="-1399.5" x2="720" y2="-1399.5"/>
		<line style="opacity:0.4;fill:none;stroke:#5589A5;stroke-miterlimit:10;" x1="0" y1="-1419.5" x2="720" y2="-1419.5"/>
		<line style="opacity:0.4;fill:none;stroke:#5589A5;stroke-miterlimit:10;" x1="0" y1="-1439.5" x2="720" y2="-1439.5"/>
		<line style="opacity:0.4;fill:none;stroke:#5589A5;stroke-miterlimit:10;" x1="0" y1="-1459.5" x2="720" y2="-1459.5"/>
		<line style="opacity:0.4;fill:none;stroke:#5589A5;stroke-miterlimit:10;" x1="0" y1="-1479.5" x2="720" y2="-1479.5"/>
		<line style="fill:none;stroke:#5589A5;stroke-miterlimit:10;" x1="0" y1="-1499.5" x2="720" y2="-1499.5"/>
		<line style="opacity:0.4;fill:none;stroke:#5589A5;stroke-miterlimit:10;" x1="0" y1="-1519.5" x2="720" y2="-1519.5"/>
		<line style="opacity:0.4;fill:none;stroke:#5589A5;stroke-miterlimit:10;" x1="0" y1="-1539.5" x2="720" y2="-1539.5"/>
		<line style="opacity:0.4;fill:none;stroke:#5589A5;stroke-miterlimit:10;" x1="0" y1="-1559.5" x2="720" y2="-1559.5"/>
		<line style="opacity:0.4;fill:none;stroke:#5589A5;stroke-miterlimit:10;" x1="0" y1="-1579.5" x2="720" y2="-1579.5"/>
		<line style="fill:none;stroke:#5589A5;stroke-miterlimit:10;" x1="0" y1="-1599.5" x2="720" y2="-1599.5"/>
		<line style="opacity:0.4;fill:none;stroke:#5589A5;stroke-miterlimit:10;" x1="0" y1="-1619.5" x2="720" y2="-1619.5"/>
		<line style="opacity:0.4;fill:none;stroke:#5589A5;stroke-miterlimit:10;" x1="0" y1="-1639.5" x2="720" y2="-1639.5"/>
		<line style="opacity:0.4;fill:none;stroke:#5589A5;stroke-miterlimit:10;" x1="0" y1="-1659.5" x2="720" y2="-1659.5"/>
		<line style="opacity:0.4;fill:none;stroke:#5589A5;stroke-miterlimit:10;" x1="0" y1="-1679.5" x2="720" y2="-1679.5"/>
		<line style="fill:none;stroke:#5589A5;stroke-miterlimit:10;" x1="699.5" y1="-1700" x2="699.5" y2="-1300"/>
		<line style="opacity:0.4;fill:none;stroke:#5589A5;stroke-miterlimit:10;" x1="679.5" y1="-1700" x2="679.5" y2="-1300"/>
		<line style="opacity:0.4;fill:none;stroke:#5589A5;stroke-miterlimit:10;" x1="659.5" y1="-1700" x2="659.5" y2="-1300"/>
		<line style="opacity:0.4;fill:none;stroke:#5589A5;stroke-miterlimit:10;" x1="639.5" y1="-1700" x2="639.5" y2="-1300"/>
		<line style="opacity:0.4;fill:none;stroke:#5589A5;stroke-miterlimit:10;" x1="619.5" y1="-1700" x2="619.5" y2="-1300"/>
		<line style="fill:none;stroke:#5589A5;stroke-miterlimit:10;" x1="599.5" y1="-1700" x2="599.5" y2="-1300"/>
		<line style="opacity:0.4;fill:none;stroke:#5589A5;stroke-miterlimit:10;" x1="579.5" y1="-1700" x2="579.5" y2="-1300"/>
		<line style="opacity:0.4;fill:none;stroke:#5589A5;stroke-miterlimit:10;" x1="559.5" y1="-1700" x2="559.5" y2="-1300"/>
		<line style="opacity:0.4;fill:none;stroke:#5589A5;stroke-miterlimit:10;" x1="539.5" y1="-1700" x2="539.5" y2="-1300"/>
		<line style="opacity:0.4;fill:none;stroke:#5589A5;stroke-miterlimit:10;" x1="519.5" y1="-1700" x2="519.5" y2="-1300"/>
		<line style="fill:none;stroke:#5589A5;stroke-miterlimit:10;" x1="499.5" y1="-1700" x2="499.5" y2="-1300"/>
		<line style="opacity:0.4;fill:none;stroke:#5589A5;stroke-miterlimit:10;" x1="479.5" y1="-1700" x2="479.5" y2="-1300"/>
		<line style="opacity:0.4;fill:none;stroke:#5589A5;stroke-miterlimit:10;" x1="459.5" y1="-1700" x2="459.5" y2="-1300"/>
		<line style="opacity:0.4;fill:none;stroke:#5589A5;stroke-miterlimit:10;" x1="439.5" y1="-1700" x2="439.5" y2="-1300"/>
		<line style="opacity:0.4;fill:none;stroke:#5589A5;stroke-miterlimit:10;" x1="419.5" y1="-1700" x2="419.5" y2="-1300"/>
		<line style="fill:none;stroke:#5589A5;stroke-miterlimit:10;" x1="399.5" y1="-1700" x2="399.5" y2="-1300"/>
		<line style="opacity:0.4;fill:none;stroke:#5589A5;stroke-miterlimit:10;" x1="379.5" y1="-1700" x2="379.5" y2="-1300"/>
		<line style="opacity:0.4;fill:none;stroke:#5589A5;stroke-miterlimit:10;" x1="359.5" y1="-1700" x2="359.5" y2="-1300"/>
		<line style="opacity:0.4;fill:none;stroke:#5589A5;stroke-miterlimit:10;" x1="339.5" y1="-1700" x2="339.5" y2="-1300"/>
		<line style="opacity:0.4;fill:none;stroke:#5589A5;stroke-miterlimit:10;" x1="319.5" y1="-1700" x2="319.5" y2="-1300"/>
		<line style="fill:none;stroke:#5589A5;stroke-miterlimit:10;" x1="299.5" y1="-1700" x2="299.5" y2="-1300"/>
		<line style="opacity:0.4;fill:none;stroke:#5589A5;stroke-miterlimit:10;" x1="279.5" y1="-1700" x2="279.5" y2="-1300"/>
		<line style="opacity:0.4;fill:none;stroke:#5589A5;stroke-miterlimit:10;" x1="259.5" y1="-1700" x2="259.5" y2="-1300"/>
		<line style="opacity:0.4;fill:none;stroke:#5589A5;stroke-miterlimit:10;" x1="239.5" y1="-1700" x2="239.5" y2="-1300"/>
		<line style="opacity:0.4;fill:none;stroke:#5589A5;stroke-miterlimit:10;" x1="219.5" y1="-1700" x2="219.5" y2="-1300"/>
		<line style="fill:none;stroke:#5589A5;stroke-miterlimit:10;" x1="199.5" y1="-1700" x2="199.5" y2="-1300"/>
		<line style="opacity:0.4;fill:none;stroke:#5589A5;stroke-miterlimit:10;" x1="179.5" y1="-1700" x2="179.5" y2="-1300"/>
		<line style="opacity:0.4;fill:none;stroke:#5589A5;stroke-miterlimit:10;" x1="159.5" y1="-1700" x2="159.5" y2="-1300"/>
		<line style="opacity:0.4;fill:none;stroke:#5589A5;stroke-miterlimit:10;" x1="139.5" y1="-1700" x2="139.5" y2="-1300"/>
		<line style="opacity:0.4;fill:none;stroke:#5589A5;stroke-miterlimit:10;" x1="119.5" y1="-1700" x2="119.5" y2="-1300"/>
		<line style="fill:none;stroke:#5589A5;stroke-miterlimit:10;" x1="99.5" y1="-1700" x2="99.5" y2="-1300"/>
		<line style="opacity:0.4;fill:none;stroke:#5589A5;stroke-miterlimit:10;" x1="79.5" y1="-1700" x2="79.5" y2="-1300"/>
		<line style="opacity:0.4;fill:none;stroke:#5589A5;stroke-miterlimit:10;" x1="59.5" y1="-1700" x2="59.5" y2="-1300"/>
		<line style="opacity:0.4;fill:none;stroke:#5589A5;stroke-miterlimit:10;" x1="39.5" y1="-1700" x2="39.5" y2="-1300"/>
		<line style="opacity:0.4;fill:none;stroke:#5589A5;stroke-miterlimit:10;" x1="19.5" y1="-1700" x2="19.5" y2="-1300"/>
	</g>
	<g>
		<rect x="0.5" y="-1166.5" style="fill:none;stroke:#5589A5;stroke-miterlimit:10;" width="720" height="400"/>
		<line style="opacity:0.4;fill:none;stroke:#5589A5;stroke-miterlimit:10;" x1="1" y1="-786.5" x2="721" y2="-786.5"/>
		<line style="opacity:0.4;fill:none;stroke:#5589A5;stroke-miterlimit:10;" x1="1" y1="-806.5" x2="721" y2="-806.5"/>
		<line style="opacity:0.4;fill:none;stroke:#5589A5;stroke-miterlimit:10;" x1="1" y1="-826.5" x2="721" y2="-826.5"/>
		<line style="opacity:0.4;fill:none;stroke:#5589A5;stroke-miterlimit:10;" x1="1" y1="-846.5" x2="721" y2="-846.5"/>
		<line style="fill:none;stroke:#5589A5;stroke-miterlimit:10;" x1="1" y1="-866.5" x2="721" y2="-866.5"/>
		<line style="opacity:0.4;fill:none;stroke:#5589A5;stroke-miterlimit:10;" x1="1" y1="-886.5" x2="721" y2="-886.5"/>
		<line style="opacity:0.4;fill:none;stroke:#5589A5;stroke-miterlimit:10;" x1="1" y1="-906.5" x2="721" y2="-906.5"/>
		<line style="opacity:0.4;fill:none;stroke:#5589A5;stroke-miterlimit:10;" x1="1" y1="-926.5" x2="721" y2="-926.5"/>
		<line style="opacity:0.4;fill:none;stroke:#5589A5;stroke-miterlimit:10;" x1="1" y1="-946.5" x2="721" y2="-946.5"/>
		<line style="fill:none;stroke:#5589A5;stroke-miterlimit:10;" x1="1" y1="-966.5" x2="721" y2="-966.5"/>
		<line style="opacity:0.4;fill:none;stroke:#5589A5;stroke-miterlimit:10;" x1="1" y1="-986.5" x2="721" y2="-986.5"/>
		<line style="opacity:0.4;fill:none;stroke:#5589A5;stroke-miterlimit:10;" x1="1" y1="-1006.5" x2="721" y2="-1006.5"/>
		<line style="opacity:0.4;fill:none;stroke:#5589A5;stroke-miterlimit:10;" x1="1" y1="-1026.5" x2="721" y2="-1026.5"/>
		<line style="opacity:0.4;fill:none;stroke:#5589A5;stroke-miterlimit:10;" x1="1" y1="-1046.5" x2="721" y2="-1046.5"/>
		<line style="fill:none;stroke:#5589A5;stroke-miterlimit:10;" x1="1" y1="-1066.5" x2="721" y2="-1066.5"/>
		<line style="opacity:0.4;fill:none;stroke:#5589A5;stroke-miterlimit:10;" x1="1" y1="-1086.5" x2="721" y2="-1086.5"/>
		<line style="opacity:0.4;fill:none;stroke:#5589A5;stroke-miterlimit:10;" x1="1" y1="-1106.5" x2="721" y2="-1106.5"/>
		<line style="opacity:0.4;fill:none;stroke:#5589A5;stroke-miterlimit:10;" x1="1" y1="-1126.5" x2="721" y2="-1126.5"/>
		<line style="opacity:0.4;fill:none;stroke:#5589A5;stroke-miterlimit:10;" x1="1" y1="-1146.5" x2="721" y2="-1146.5"/>
		<line style="fill:none;stroke:#5589A5;stroke-miterlimit:10;" x1="700.5" y1="-1167" x2="700.5" y2="-767"/>
		<line style="opacity:0.4;fill:none;stroke:#5589A5;stroke-miterlimit:10;" x1="680.5" y1="-1167" x2="680.5" y2="-767"/>
		<line style="opacity:0.4;fill:none;stroke:#5589A5;stroke-miterlimit:10;" x1="660.5" y1="-1167" x2="660.5" y2="-767"/>
		<line style="opacity:0.4;fill:none;stroke:#5589A5;stroke-miterlimit:10;" x1="640.5" y1="-1167" x2="640.5" y2="-767"/>
		<line style="opacity:0.4;fill:none;stroke:#5589A5;stroke-miterlimit:10;" x1="620.5" y1="-1167" x2="620.5" y2="-767"/>
		<line style="fill:none;stroke:#5589A5;stroke-miterlimit:10;" x1="600.5" y1="-1167" x2="600.5" y2="-767"/>
		<line style="opacity:0.4;fill:none;stroke:#5589A5;stroke-miterlimit:10;" x1="580.5" y1="-1167" x2="580.5" y2="-767"/>
		<line style="opacity:0.4;fill:none;stroke:#5589A5;stroke-miterlimit:10;" x1="560.5" y1="-1167" x2="560.5" y2="-767"/>
		<line style="opacity:0.4;fill:none;stroke:#5589A5;stroke-miterlimit:10;" x1="540.5" y1="-1167" x2="540.5" y2="-767"/>
		<line style="opacity:0.4;fill:none;stroke:#5589A5;stroke-miterlimit:10;" x1="520.5" y1="-1167" x2="520.5" y2="-767"/>
		<line style="fill:none;stroke:#5589A5;stroke-miterlimit:10;" x1="500.5" y1="-1167" x2="500.5" y2="-767"/>
		<line style="opacity:0.4;fill:none;stroke:#5589A5;stroke-miterlimit:10;" x1="480.5" y1="-1167" x2="480.5" y2="-767"/>
		<line style="opacity:0.4;fill:none;stroke:#5589A5;stroke-miterlimit:10;" x1="460.5" y1="-1167" x2="460.5" y2="-767"/>
		<line style="opacity:0.4;fill:none;stroke:#5589A5;stroke-miterlimit:10;" x1="440.5" y1="-1167" x2="440.5" y2="-767"/>
		<line style="opacity:0.4;fill:none;stroke:#5589A5;stroke-miterlimit:10;" x1="420.5" y1="-1167" x2="420.5" y2="-767"/>
		<line style="fill:none;stroke:#5589A5;stroke-miterlimit:10;" x1="400.5" y1="-1167" x2="400.5" y2="-767"/>
		<line style="opacity:0.4;fill:none;stroke:#5589A5;stroke-miterlimit:10;" x1="380.5" y1="-1167" x2="380.5" y2="-767"/>
		<line style="opacity:0.4;fill:none;stroke:#5589A5;stroke-miterlimit:10;" x1="360.5" y1="-1167" x2="360.5" y2="-767"/>
		<line style="opacity:0.4;fill:none;stroke:#5589A5;stroke-miterlimit:10;" x1="340.5" y1="-1167" x2="340.5" y2="-767"/>
		<line style="opacity:0.4;fill:none;stroke:#5589A5;stroke-miterlimit:10;" x1="320.5" y1="-1167" x2="320.5" y2="-767"/>
		<line style="fill:none;stroke:#5589A5;stroke-miterlimit:10;" x1="300.5" y1="-1167" x2="300.5" y2="-767"/>
		<line style="opacity:0.4;fill:none;stroke:#5589A5;stroke-miterlimit:10;" x1="280.5" y1="-1167" x2="280.5" y2="-767"/>
		<line style="opacity:0.4;fill:none;stroke:#5589A5;stroke-miterlimit:10;" x1="260.5" y1="-1167" x2="260.5" y2="-767"/>
		<line style="opacity:0.4;fill:none;stroke:#5589A5;stroke-miterlimit:10;" x1="240.5" y1="-1167" x2="240.5" y2="-767"/>
		<line style="opacity:0.4;fill:none;stroke:#5589A5;stroke-miterlimit:10;" x1="220.5" y1="-1167" x2="220.5" y2="-767"/>
		<line style="fill:none;stroke:#5589A5;stroke-miterlimit:10;" x1="200.5" y1="-1167" x2="200.5" y2="-767"/>
		<line style="opacity:0.4;fill:none;stroke:#5589A5;stroke-miterlimit:10;" x1="180.5" y1="-1167" x2="180.5" y2="-767"/>
		<line style="opacity:0.4;fill:none;stroke:#5589A5;stroke-miterlimit:10;" x1="160.5" y1="-1167" x2="160.5" y2="-767"/>
		<line style="opacity:0.4;fill:none;stroke:#5589A5;stroke-miterlimit:10;" x1="140.5" y1="-1167" x2="140.5" y2="-767"/>
		<line style="opacity:0.4;fill:none;stroke:#5589A5;stroke-miterlimit:10;" x1="120.5" y1="-1167" x2="120.5" y2="-767"/>
		<line style="fill:none;stroke:#5589A5;stroke-miterlimit:10;" x1="100.5" y1="-1167" x2="100.5" y2="-767"/>
		<line style="opacity:0.4;fill:none;stroke:#5589A5;stroke-miterlimit:10;" x1="80.5" y1="-1167" x2="80.5" y2="-767"/>
		<line style="opacity:0.4;fill:none;stroke:#5589A5;stroke-miterlimit:10;" x1="60.5" y1="-1167" x2="60.5" y2="-767"/>
		<line style="opacity:0.4;fill:none;stroke:#5589A5;stroke-miterlimit:10;" x1="40.5" y1="-1167" x2="40.5" y2="-767"/>
		<line style="opacity:0.4;fill:none;stroke:#5589A5;stroke-miterlimit:10;" x1="20.5" y1="-1167" x2="20.5" y2="-767"/>
	</g>
	<g>
		<rect x="-0.5" y="-579.5" style="fill:none;stroke:#5589A5;stroke-miterlimit:10;" width="720" height="400"/>
		<line style="opacity:0.4;fill:none;stroke:#5589A5;stroke-miterlimit:10;" x1="0" y1="-199.5" x2="720" y2="-199.5"/>
		<line style="opacity:0.4;fill:none;stroke:#5589A5;stroke-miterlimit:10;" x1="0" y1="-219.5" x2="720" y2="-219.5"/>
		<line style="opacity:0.4;fill:none;stroke:#5589A5;stroke-miterlimit:10;" x1="0" y1="-239.5" x2="720" y2="-239.5"/>
		<line style="opacity:0.4;fill:none;stroke:#5589A5;stroke-miterlimit:10;" x1="0" y1="-259.5" x2="720" y2="-259.5"/>
		<line style="fill:none;stroke:#5589A5;stroke-miterlimit:10;" x1="0" y1="-279.5" x2="720" y2="-279.5"/>
		<line style="opacity:0.4;fill:none;stroke:#5589A5;stroke-miterlimit:10;" x1="0" y1="-299.5" x2="720" y2="-299.5"/>
		<line style="opacity:0.4;fill:none;stroke:#5589A5;stroke-miterlimit:10;" x1="0" y1="-319.5" x2="720" y2="-319.5"/>
		<line style="opacity:0.4;fill:none;stroke:#5589A5;stroke-miterlimit:10;" x1="0" y1="-339.5" x2="720" y2="-339.5"/>
		<line style="opacity:0.4;fill:none;stroke:#5589A5;stroke-miterlimit:10;" x1="0" y1="-359.5" x2="720" y2="-359.5"/>
		<line style="fill:none;stroke:#5589A5;stroke-miterlimit:10;" x1="0" y1="-379.5" x2="720" y2="-379.5"/>
		<line style="opacity:0.4;fill:none;stroke:#5589A5;stroke-miterlimit:10;" x1="0" y1="-399.5" x2="720" y2="-399.5"/>
		<line style="opacity:0.4;fill:none;stroke:#5589A5;stroke-miterlimit:10;" x1="0" y1="-419.5" x2="720" y2="-419.5"/>
		<line style="opacity:0.4;fill:none;stroke:#5589A5;stroke-miterlimit:10;" x1="0" y1="-439.5" x2="720" y2="-439.5"/>
		<line style="opacity:0.4;fill:none;stroke:#5589A5;stroke-miterlimit:10;" x1="0" y1="-459.5" x2="720" y2="-459.5"/>
		<line style="fill:none;stroke:#5589A5;stroke-miterlimit:10;" x1="0" y1="-479.5" x2="720" y2="-479.5"/>
		<line style="opacity:0.4;fill:none;stroke:#5589A5;stroke-miterlimit:10;" x1="0" y1="-499.5" x2="720" y2="-499.5"/>
		<line style="opacity:0.4;fill:none;stroke:#5589A5;stroke-miterlimit:10;" x1="0" y1="-519.5" x2="720" y2="-519.5"/>
		<line style="opacity:0.4;fill:none;stroke:#5589A5;stroke-miterlimit:10;" x1="0" y1="-539.5" x2="720" y2="-539.5"/>
		<line style="opacity:0.4;fill:none;stroke:#5589A5;stroke-miterlimit:10;" x1="0" y1="-559.5" x2="720" y2="-559.5"/>
		<line style="fill:none;stroke:#5589A5;stroke-miterlimit:10;" x1="699.5" y1="-580" x2="699.5" y2="-180"/>
		<line style="opacity:0.4;fill:none;stroke:#5589A5;stroke-miterlimit:10;" x1="679.5" y1="-580" x2="679.5" y2="-180"/>
		<line style="opacity:0.4;fill:none;stroke:#5589A5;stroke-miterlimit:10;" x1="659.5" y1="-580" x2="659.5" y2="-180"/>
		<line style="opacity:0.4;fill:none;stroke:#5589A5;stroke-miterlimit:10;" x1="639.5" y1="-580" x2="639.5" y2="-180"/>
		<line style="opacity:0.4;fill:none;stroke:#5589A5;stroke-miterlimit:10;" x1="619.5" y1="-580" x2="619.5" y2="-180"/>
		<line style="fill:none;stroke:#5589A5;stroke-miterlimit:10;" x1="599.5" y1="-580" x2="599.5" y2="-180"/>
		<line style="opacity:0.4;fill:none;stroke:#5589A5;stroke-miterlimit:10;" x1="579.5" y1="-580" x2="579.5" y2="-180"/>
		<line style="opacity:0.4;fill:none;stroke:#5589A5;stroke-miterlimit:10;" x1="559.5" y1="-580" x2="559.5" y2="-180"/>
		<line style="opacity:0.4;fill:none;stroke:#5589A5;stroke-miterlimit:10;" x1="539.5" y1="-580" x2="539.5" y2="-180"/>
		<line style="opacity:0.4;fill:none;stroke:#5589A5;stroke-miterlimit:10;" x1="519.5" y1="-580" x2="519.5" y2="-180"/>
		<line style="fill:none;stroke:#5589A5;stroke-miterlimit:10;" x1="499.5" y1="-580" x2="499.5" y2="-180"/>
		<line style="opacity:0.4;fill:none;stroke:#5589A5;stroke-miterlimit:10;" x1="479.5" y1="-580" x2="479.5" y2="-180"/>
		<line style="opacity:0.4;fill:none;stroke:#5589A5;stroke-miterlimit:10;" x1="459.5" y1="-580" x2="459.5" y2="-180"/>
		<line style="opacity:0.4;fill:none;stroke:#5589A5;stroke-miterlimit:10;" x1="439.5" y1="-580" x2="439.5" y2="-180"/>
		<line style="opacity:0.4;fill:none;stroke:#5589A5;stroke-miterlimit:10;" x1="419.5" y1="-580" x2="419.5" y2="-180"/>
		<line style="fill:none;stroke:#5589A5;stroke-miterlimit:10;" x1="399.5" y1="-580" x2="399.5" y2="-180"/>
		<line style="opacity:0.4;fill:none;stroke:#5589A5;stroke-miterlimit:10;" x1="379.5" y1="-580" x2="379.5" y2="-180"/>
		<line style="opacity:0.4;fill:none;stroke:#5589A5;stroke-miterlimit:10;" x1="359.5" y1="-580" x2="359.5" y2="-180"/>
		<line style="opacity:0.4;fill:none;stroke:#5589A5;stroke-miterlimit:10;" x1="339.5" y1="-580" x2="339.5" y2="-180"/>
		<line style="opacity:0.4;fill:none;stroke:#5589A5;stroke-miterlimit:10;" x1="319.5" y1="-580" x2="319.5" y2="-180"/>
		<line style="fill:none;stroke:#5589A5;stroke-miterlimit:10;" x1="299.5" y1="-580" x2="299.5" y2="-180"/>
		<line style="opacity:0.4;fill:none;stroke:#5589A5;stroke-miterlimit:10;" x1="279.5" y1="-580" x2="279.5" y2="-180"/>
		<line style="opacity:0.4;fill:none;stroke:#5589A5;stroke-miterlimit:10;" x1="259.5" y1="-580" x2="259.5" y2="-180"/>
		<line style="opacity:0.4;fill:none;stroke:#5589A5;stroke-miterlimit:10;" x1="239.5" y1="-580" x2="239.5" y2="-180"/>
		<line style="opacity:0.4;fill:none;stroke:#5589A5;stroke-miterlimit:10;" x1="219.5" y1="-580" x2="219.5" y2="-180"/>
		<line style="fill:none;stroke:#5589A5;stroke-miterlimit:10;" x1="199.5" y1="-580" x2="199.5" y2="-180"/>
		<line style="opacity:0.4;fill:none;stroke:#5589A5;stroke-miterlimit:10;" x1="179.5" y1="-580" x2="179.5" y2="-180"/>
		<line style="opacity:0.4;fill:none;stroke:#5589A5;stroke-miterlimit:10;" x1="159.5" y1="-580" x2="159.5" y2="-180"/>
		<line style="opacity:0.4;fill:none;stroke:#5589A5;stroke-miterlimit:10;" x1="139.5" y1="-580" x2="139.5" y2="-180"/>
		<line style="opacity:0.4;fill:none;stroke:#5589A5;stroke-miterlimit:10;" x1="119.5" y1="-580" x2="119.5" y2="-180"/>
		<line style="fill:none;stroke:#5589A5;stroke-miterlimit:10;" x1="99.5" y1="-580" x2="99.5" y2="-180"/>
		<line style="opacity:0.4;fill:none;stroke:#5589A5;stroke-miterlimit:10;" x1="79.5" y1="-580" x2="79.5" y2="-180"/>
		<line style="opacity:0.4;fill:none;stroke:#5589A5;stroke-miterlimit:10;" x1="59.5" y1="-580" x2="59.5" y2="-180"/>
		<line style="opacity:0.4;fill:none;stroke:#5589A5;stroke-miterlimit:10;" x1="39.5" y1="-580" x2="39.5" y2="-180"/>
		<line style="opacity:0.4;fill:none;stroke:#5589A5;stroke-miterlimit:10;" x1="19.5" y1="-580" x2="19.5" y2="-180"/>
	</g>
	<g>
		<rect x="-0.5" y="0.5" style="fill:none;stroke:#5589A5;stroke-miterlimit:10;" width="720" height="400"/>
		<line style="opacity:0.4;fill:none;stroke:#5589A5;stroke-miterlimit:10;" x1="0" y1="380.5" x2="720" y2="380.5"/>
		<line style="opacity:0.4;fill:none;stroke:#5589A5;stroke-miterlimit:10;" x1="0" y1="360.5" x2="720" y2="360.5"/>
		<line style="opacity:0.4;fill:none;stroke:#5589A5;stroke-miterlimit:10;" x1="0" y1="340.5" x2="720" y2="340.5"/>
		<line style="opacity:0.4;fill:none;stroke:#5589A5;stroke-miterlimit:10;" x1="0" y1="320.5" x2="720" y2="320.5"/>
		<line style="fill:none;stroke:#5589A5;stroke-miterlimit:10;" x1="0" y1="300.5" x2="720" y2="300.5"/>
		<line style="opacity:0.4;fill:none;stroke:#5589A5;stroke-miterlimit:10;" x1="0" y1="280.5" x2="720" y2="280.5"/>
		<line style="opacity:0.4;fill:none;stroke:#5589A5;stroke-miterlimit:10;" x1="0" y1="260.5" x2="720" y2="260.5"/>
		<line style="opacity:0.4;fill:none;stroke:#5589A5;stroke-miterlimit:10;" x1="0" y1="240.5" x2="720" y2="240.5"/>
		<line style="opacity:0.4;fill:none;stroke:#5589A5;stroke-miterlimit:10;" x1="0" y1="220.5" x2="720" y2="220.5"/>
		<line style="fill:none;stroke:#5589A5;stroke-miterlimit:10;" x1="0" y1="200.5" x2="720" y2="200.5"/>
		<line style="opacity:0.4;fill:none;stroke:#5589A5;stroke-miterlimit:10;" x1="0" y1="180.5" x2="720" y2="180.5"/>
		<line style="opacity:0.4;fill:none;stroke:#5589A5;stroke-miterlimit:10;" x1="0" y1="160.5" x2="720" y2="160.5"/>
		<line style="opacity:0.4;fill:none;stroke:#5589A5;stroke-miterlimit:10;" x1="0" y1="140.5" x2="720" y2="140.5"/>
		<line style="opacity:0.4;fill:none;stroke:#5589A5;stroke-miterlimit:10;" x1="0" y1="120.5" x2="720" y2="120.5"/>
		<line style="fill:none;stroke:#5589A5;stroke-miterlimit:10;" x1="0" y1="100.5" x2="720" y2="100.5"/>
		<line style="opacity:0.4;fill:none;stroke:#5589A5;stroke-miterlimit:10;" x1="0" y1="80.5" x2="720" y2="80.5"/>
		<line style="opacity:0.4;fill:none;stroke:#5589A5;stroke-miterlimit:10;" x1="0" y1="60.5" x2="720" y2="60.5"/>
		<line style="opacity:0.4;fill:none;stroke:#5589A5;stroke-miterlimit:10;" x1="0" y1="40.5" x2="720" y2="40.5"/>
		<line style="opacity:0.4;fill:none;stroke:#5589A5;stroke-miterlimit:10;" x1="0" y1="20.5" x2="720" y2="20.5"/>
		<line style="fill:none;stroke:#5589A5;stroke-miterlimit:10;" x1="699.5" y1="0" x2="699.5" y2="400"/>
		<line style="opacity:0.4;fill:none;stroke:#5589A5;stroke-miterlimit:10;" x1="679.5" y1="0" x2="679.5" y2="400"/>
		<line style="opacity:0.4;fill:none;stroke:#5589A5;stroke-miterlimit:10;" x1="659.5" y1="0" x2="659.5" y2="400"/>
		<line style="opacity:0.4;fill:none;stroke:#5589A5;stroke-miterlimit:10;" x1="639.5" y1="0" x2="639.5" y2="400"/>
		<line style="opacity:0.4;fill:none;stroke:#5589A5;stroke-miterlimit:10;" x1="619.5" y1="0" x2="619.5" y2="400"/>
		<line style="fill:none;stroke:#5589A5;stroke-miterlimit:10;" x1="599.5" y1="0" x2="599.5" y2="400"/>
		<line style="opacity:0.4;fill:none;stroke:#5589A5;stroke-miterlimit:10;" x1="579.5" y1="0" x2="579.5" y2="400"/>
		<line style="opacity:0.4;fill:none;stroke:#5589A5;stroke-miterlimit:10;" x1="559.5" y1="0" x2="559.5" y2="400"/>
		<line style="opacity:0.4;fill:none;stroke:#5589A5;stroke-miterlimit:10;" x1="539.5" y1="0" x2="539.5" y2="400"/>
		<line style="opacity:0.4;fill:none;stroke:#5589A5;stroke-miterlimit:10;" x1="519.5" y1="0" x2="519.5" y2="400"/>
		<line style="fill:none;stroke:#5589A5;stroke-miterlimit:10;" x1="499.5" y1="0" x2="499.5" y2="400"/>
		<line style="opacity:0.4;fill:none;stroke:#5589A5;stroke-miterlimit:10;" x1="479.5" y1="0" x2="479.5" y2="400"/>
		<line style="opacity:0.4;fill:none;stroke:#5589A5;stroke-miterlimit:10;" x1="459.5" y1="0" x2="459.5" y2="400"/>
		<line style="opacity:0.4;fill:none;stroke:#5589A5;stroke-miterlimit:10;" x1="439.5" y1="0" x2="439.5" y2="400"/>
		<line style="opacity:0.4;fill:none;stroke:#5589A5;stroke-miterlimit:10;" x1="419.5" y1="0" x2="419.5" y2="400"/>
		<line style="fill:none;stroke:#5589A5;stroke-miterlimit:10;" x1="399.5" y1="0" x2="399.5" y2="400"/>
		<line style="opacity:0.4;fill:none;stroke:#5589A5;stroke-miterlimit:10;" x1="379.5" y1="0" x2="379.5" y2="400"/>
		<line style="opacity:0.4;fill:none;stroke:#5589A5;stroke-miterlimit:10;" x1="359.5" y1="0" x2="359.5" y2="400"/>
		<line style="opacity:0.4;fill:none;stroke:#5589A5;stroke-miterlimit:10;" x1="339.5" y1="0" x2="339.5" y2="400"/>
		<line style="opacity:0.4;fill:none;stroke:#5589A5;stroke-miterlimit:10;" x1="319.5" y1="0" x2="319.5" y2="400"/>
		<line style="fill:none;stroke:#5589A5;stroke-miterlimit:10;" x1="299.5" y1="0" x2="299.5" y2="400"/>
		<line style="opacity:0.4;fill:none;stroke:#5589A5;stroke-miterlimit:10;" x1="279.5" y1="0" x2="279.5" y2="400"/>
		<line style="opacity:0.4;fill:none;stroke:#5589A5;stroke-miterlimit:10;" x1="259.5" y1="0" x2="259.5" y2="400"/>
		<line style="opacity:0.4;fill:none;stroke:#5589A5;stroke-miterlimit:10;" x1="239.5" y1="0" x2="239.5" y2="400"/>
		<line style="opacity:0.4;fill:none;stroke:#5589A5;stroke-miterlimit:10;" x1="219.5" y1="0" x2="219.5" y2="400"/>
		<line style="fill:none;stroke:#5589A5;stroke-miterlimit:10;" x1="199.5" y1="0" x2="199.5" y2="400"/>
		<line style="opacity:0.4;fill:none;stroke:#5589A5;stroke-miterlimit:10;" x1="179.5" y1="0" x2="179.5" y2="400"/>
		<line style="opacity:0.4;fill:none;stroke:#5589A5;stroke-miterlimit:10;" x1="159.5" y1="0" x2="159.5" y2="400"/>
		<line style="opacity:0.4;fill:none;stroke:#5589A5;stroke-miterlimit:10;" x1="139.5" y1="0" x2="139.5" y2="400"/>
		<line style="opacity:0.4;fill:none;stroke:#5589A5;stroke-miterlimit:10;" x1="119.5" y1="0" x2="119.5" y2="400"/>
		<line style="fill:none;stroke:#5589A5;stroke-miterlimit:10;" x1="99.5" y1="0" x2="99.5" y2="400"/>
		<line style="opacity:0.4;fill:none;stroke:#5589A5;stroke-miterlimit:10;" x1="79.5" y1="0" x2="79.5" y2="400"/>
		<line style="opacity:0.4;fill:none;stroke:#5589A5;stroke-miterlimit:10;" x1="59.5" y1="0" x2="59.5" y2="400"/>
		<line style="opacity:0.4;fill:none;stroke:#5589A5;stroke-miterlimit:10;" x1="39.5" y1="0" x2="39.5" y2="400"/>
		<line style="opacity:0.4;fill:none;stroke:#5589A5;stroke-miterlimit:10;" x1="19.5" y1="0" x2="19.5" y2="400"/>
	</g>
	
		<text transform="matrix(1 0 0 1 218.2273 -1475.9276)" style="opacity:0.5;fill:#FFFFFF; font-family:'Arial-BoldMT'; font-size:100;">720px</text>
	
		<text transform="matrix(1 0 0 1 159.2273 -945.9276)" style="opacity:0.5;fill:#FFFFFF; font-family:'Arial-BoldMT'; font-size:100;">600px</text>
	
		<text transform="matrix(1 0 0 1 107.408 -357.6697)" style="opacity:0.5;fill:#FFFFFF; font-family:'Arial-BoldMT'; font-size:72;">420px</text>
	
		<text transform="matrix(1 0 0 1 64.9363 170.0901)" style="display:none;opacity:0.5;fill:#FFFFFF; font-family:'Arial-BoldMT'; font-size:60;">300px</text>
	<g style="opacity:0.5;">
	</g>
</g>
<g id="ai2html-settings">
	<rect x="-450.516" y="-1700" style="fill:none;" width="307" height="462"/>
	<text transform="matrix(1 0 0 1 -450.5156 -1689.3501)" style="display:none;"><tspan x="0" y="0" style="display:inline; font-family:'MyriadPro-Regular'; font-size:15;">ai2html-settings</tspan><tspan x="0" y="18" style="display:inline; font-family:'MyriadPro-Regular'; font-size:15;">settings_version: 0.56</tspan><tspan x="0" y="36" style="display:inline; font-family:'MyriadPro-Regular'; font-size:15;">image_format: svg</tspan><tspan x="0" y="54" style="display:inline; font-family:'MyriadPro-Regular'; font-size:15;">responsiveness: </tspan><tspan x="101.637" y="54" style="display:inline; font-family:'MyriadPro-Regular'; font-size:15;">fixed</tspan><tspan x="0" y="72" style="display:inline; font-family:'MyriadPro-Regular'; font-size:15;">output: one-file</tspan><tspan x="0" y="90" style="display:inline; font-family:'MyriadPro-Regular'; font-size:15;">create_promo_images: false</tspan><tspan x="0" y="108" style="display:inline; font-family:'MyriadPro-Regular'; font-size:15;">html_output_path: /ai2html-output/</tspan><tspan x="0" y="126" style="display:inline; font-family:'MyriadPro-Regular'; font-size:15;">html_output_extension: .html</tspan><tspan x="0" y="144" style="display:inline; font-family:'NYTFranklin-Light'; font-size:15;">html_output_path: ../_includes/</tspan><tspan x="0" y="162" style="display:inline; font-family:'NYTFranklin-Light'; font-size:15;">image_output_path: ../images/</tspan><tspan x="0" y="180" style="display:inline; font-family:'NYTFranklin-Light'; font-size:15;">image_source_path: images/</tspan><tspan x="0" y="198" style="display:inline; font-family:'MyriadPro-Regular'; font-size:15;">local_preview_template: </tspan><tspan x="0" y="216" style="display:inline; font-family:'MyriadPro-Regular'; font-size:15;">png_number_of_colors: 128</tspan><tspan x="0" y="234" style="display:inline; font-family:'MyriadPro-Regular'; font-size:15;">jpg_quality: 60</tspan><tspan x="0" y="252" style="display:inline; font-family:'MyriadPro-Regular'; font-size:15;">headline: Ai Graphic Headline</tspan><tspan x="0" y="270" style="display:inline; font-family:'MyriadPro-Regular'; font-size:15;">leadin: Introductory text here.</tspan><tspan x="0" y="288" style="display:inline; font-family:'MyriadPro-Regular'; font-size:15;">notes: Notes: Text goes here.</tspan><tspan x="0" y="324" style="display:inline; font-family:'MyriadPro-Regular'; font-size:15;">sources: Source: Name goes here.</tspan><tspan x="0" y="342" style="display:inline; font-family:'MyriadPro-Regular'; font-size:15;">credit: By ai2html</tspan></text>
</g>
</svg>
