<?xml version="1.0" encoding="utf-8"?>
<!-- Generator: Adobe Illustrator 18.0.0, SVG Export Plug-In . SVG Version: 6.00 Build 0)  -->
<!DOCTYPE svg PUBLIC "-//W3C//DTD SVG 1.1//EN" "http://www.w3.org/Graphics/SVG/1.1/DTD/svg11.dtd">
<svg version="1.1" xmlns="http://www.w3.org/2000/svg" xmlns:xlink="http://www.w3.org/1999/xlink" x="0px" y="0px"
	 viewBox="0 0 600 400" style="enable-background:new 0 0 600 400;" xml:space="preserve">
<g id="Layer_1">
	<rect x="-1" y="-533" style="display:none;fill:#A3BDC4;" width="720" height="400"/>
	<rect y="-1.258" style="fill:#A3BDC4;" width="600.711" height="404.215"/>
	<rect x="-1.516" y="587" style="display:none;fill:#A3BDC4;" width="420.852" height="400"/>
	<rect x="-1" y="1167" style="display:none;fill:#A3BDC4;" width="300" height="300"/>
	<g>
		<rect x="-1.5" y="-532.5" style="fill:none;stroke:#5589A5;stroke-miterlimit:10;" width="720" height="400"/>
		<line style="opacity:0.4;fill:none;stroke:#5589A5;stroke-miterlimit:10;" x1="-1" y1="-152.5" x2="719" y2="-152.5"/>
		<line style="opacity:0.4;fill:none;stroke:#5589A5;stroke-miterlimit:10;" x1="-1" y1="-172.5" x2="719" y2="-172.5"/>
		<line style="opacity:0.4;fill:none;stroke:#5589A5;stroke-miterlimit:10;" x1="-1" y1="-192.5" x2="719" y2="-192.5"/>
		<line style="opacity:0.4;fill:none;stroke:#5589A5;stroke-miterlimit:10;" x1="-1" y1="-212.5" x2="719" y2="-212.5"/>
		<line style="fill:none;stroke:#5589A5;stroke-miterlimit:10;" x1="-1" y1="-232.5" x2="719" y2="-232.5"/>
		<line style="opacity:0.4;fill:none;stroke:#5589A5;stroke-miterlimit:10;" x1="-1" y1="-252.5" x2="719" y2="-252.5"/>
		<line style="opacity:0.4;fill:none;stroke:#5589A5;stroke-miterlimit:10;" x1="-1" y1="-272.5" x2="719" y2="-272.5"/>
		<line style="opacity:0.4;fill:none;stroke:#5589A5;stroke-miterlimit:10;" x1="-1" y1="-292.5" x2="719" y2="-292.5"/>
		<line style="opacity:0.4;fill:none;stroke:#5589A5;stroke-miterlimit:10;" x1="-1" y1="-312.5" x2="719" y2="-312.5"/>
		<line style="fill:none;stroke:#5589A5;stroke-miterlimit:10;" x1="-1" y1="-332.5" x2="719" y2="-332.5"/>
		<line style="opacity:0.4;fill:none;stroke:#5589A5;stroke-miterlimit:10;" x1="-1" y1="-352.5" x2="719" y2="-352.5"/>
		<line style="opacity:0.4;fill:none;stroke:#5589A5;stroke-miterlimit:10;" x1="-1" y1="-372.5" x2="719" y2="-372.5"/>
		<line style="opacity:0.4;fill:none;stroke:#5589A5;stroke-miterlimit:10;" x1="-1" y1="-392.5" x2="719" y2="-392.5"/>
		<line style="opacity:0.4;fill:none;stroke:#5589A5;stroke-miterlimit:10;" x1="-1" y1="-412.5" x2="719" y2="-412.5"/>
		<line style="fill:none;stroke:#5589A5;stroke-miterlimit:10;" x1="-1" y1="-432.5" x2="719" y2="-432.5"/>
		<line style="opacity:0.4;fill:none;stroke:#5589A5;stroke-miterlimit:10;" x1="-1" y1="-452.5" x2="719" y2="-452.5"/>
		<line style="opacity:0.4;fill:none;stroke:#5589A5;stroke-miterlimit:10;" x1="-1" y1="-472.5" x2="719" y2="-472.5"/>
		<line style="opacity:0.4;fill:none;stroke:#5589A5;stroke-miterlimit:10;" x1="-1" y1="-492.5" x2="719" y2="-492.5"/>
		<line style="opacity:0.4;fill:none;stroke:#5589A5;stroke-miterlimit:10;" x1="-1" y1="-512.5" x2="719" y2="-512.5"/>
		<line style="fill:none;stroke:#5589A5;stroke-miterlimit:10;" x1="698.5" y1="-533" x2="698.5" y2="-133"/>
		<line style="opacity:0.4;fill:none;stroke:#5589A5;stroke-miterlimit:10;" x1="678.5" y1="-533" x2="678.5" y2="-133"/>
		<line style="opacity:0.4;fill:none;stroke:#5589A5;stroke-miterlimit:10;" x1="658.5" y1="-533" x2="658.5" y2="-133"/>
		<line style="opacity:0.4;fill:none;stroke:#5589A5;stroke-miterlimit:10;" x1="638.5" y1="-533" x2="638.5" y2="-133"/>
		<line style="opacity:0.4;fill:none;stroke:#5589A5;stroke-miterlimit:10;" x1="618.5" y1="-533" x2="618.5" y2="-133"/>
		<line style="fill:none;stroke:#5589A5;stroke-miterlimit:10;" x1="598.5" y1="-533" x2="598.5" y2="-133"/>
		<line style="opacity:0.4;fill:none;stroke:#5589A5;stroke-miterlimit:10;" x1="578.5" y1="-533" x2="578.5" y2="-133"/>
		<line style="opacity:0.4;fill:none;stroke:#5589A5;stroke-miterlimit:10;" x1="558.5" y1="-533" x2="558.5" y2="-133"/>
		<line style="opacity:0.4;fill:none;stroke:#5589A5;stroke-miterlimit:10;" x1="538.5" y1="-533" x2="538.5" y2="-133"/>
		<line style="opacity:0.4;fill:none;stroke:#5589A5;stroke-miterlimit:10;" x1="518.5" y1="-533" x2="518.5" y2="-133"/>
		<line style="fill:none;stroke:#5589A5;stroke-miterlimit:10;" x1="498.5" y1="-533" x2="498.5" y2="-133"/>
		<line style="opacity:0.4;fill:none;stroke:#5589A5;stroke-miterlimit:10;" x1="478.5" y1="-533" x2="478.5" y2="-133"/>
		<line style="opacity:0.4;fill:none;stroke:#5589A5;stroke-miterlimit:10;" x1="458.5" y1="-533" x2="458.5" y2="-133"/>
		<line style="opacity:0.4;fill:none;stroke:#5589A5;stroke-miterlimit:10;" x1="438.5" y1="-533" x2="438.5" y2="-133"/>
		<line style="opacity:0.4;fill:none;stroke:#5589A5;stroke-miterlimit:10;" x1="418.5" y1="-533" x2="418.5" y2="-133"/>
		<line style="fill:none;stroke:#5589A5;stroke-miterlimit:10;" x1="398.5" y1="-533" x2="398.5" y2="-133"/>
		<line style="opacity:0.4;fill:none;stroke:#5589A5;stroke-miterlimit:10;" x1="378.5" y1="-533" x2="378.5" y2="-133"/>
		<line style="opacity:0.4;fill:none;stroke:#5589A5;stroke-miterlimit:10;" x1="358.5" y1="-533" x2="358.5" y2="-133"/>
		<line style="opacity:0.4;fill:none;stroke:#5589A5;stroke-miterlimit:10;" x1="338.5" y1="-533" x2="338.5" y2="-133"/>
		<line style="opacity:0.4;fill:none;stroke:#5589A5;stroke-miterlimit:10;" x1="318.5" y1="-533" x2="318.5" y2="-133"/>
		<line style="fill:none;stroke:#5589A5;stroke-miterlimit:10;" x1="298.5" y1="-533" x2="298.5" y2="-133"/>
		<line style="opacity:0.4;fill:none;stroke:#5589A5;stroke-miterlimit:10;" x1="278.5" y1="-533" x2="278.5" y2="-133"/>
		<line style="opacity:0.4;fill:none;stroke:#5589A5;stroke-miterlimit:10;" x1="258.5" y1="-533" x2="258.5" y2="-133"/>
		<line style="opacity:0.4;fill:none;stroke:#5589A5;stroke-miterlimit:10;" x1="238.5" y1="-533" x2="238.5" y2="-133"/>
		<line style="opacity:0.4;fill:none;stroke:#5589A5;stroke-miterlimit:10;" x1="218.5" y1="-533" x2="218.5" y2="-133"/>
		<line style="fill:none;stroke:#5589A5;stroke-miterlimit:10;" x1="198.5" y1="-533" x2="198.5" y2="-133"/>
		<line style="opacity:0.4;fill:none;stroke:#5589A5;stroke-miterlimit:10;" x1="178.5" y1="-533" x2="178.5" y2="-133"/>
		<line style="opacity:0.4;fill:none;stroke:#5589A5;stroke-miterlimit:10;" x1="158.5" y1="-533" x2="158.5" y2="-133"/>
		<line style="opacity:0.4;fill:none;stroke:#5589A5;stroke-miterlimit:10;" x1="138.5" y1="-533" x2="138.5" y2="-133"/>
		<line style="opacity:0.4;fill:none;stroke:#5589A5;stroke-miterlimit:10;" x1="118.5" y1="-533" x2="118.5" y2="-133"/>
		<line style="fill:none;stroke:#5589A5;stroke-miterlimit:10;" x1="98.5" y1="-533" x2="98.5" y2="-133"/>
		<line style="opacity:0.4;fill:none;stroke:#5589A5;stroke-miterlimit:10;" x1="78.5" y1="-533" x2="78.5" y2="-133"/>
		<line style="opacity:0.4;fill:none;stroke:#5589A5;stroke-miterlimit:10;" x1="58.5" y1="-533" x2="58.5" y2="-133"/>
		<line style="opacity:0.4;fill:none;stroke:#5589A5;stroke-miterlimit:10;" x1="38.5" y1="-533" x2="38.5" y2="-133"/>
		<line style="opacity:0.4;fill:none;stroke:#5589A5;stroke-miterlimit:10;" x1="18.5" y1="-533" x2="18.5" y2="-133"/>
	</g>
	<g>
		<rect x="-0.5" y="0.5" style="fill:none;stroke:#5589A5;stroke-miterlimit:10;" width="720" height="400"/>
		<line style="opacity:0.4;fill:none;stroke:#5589A5;stroke-miterlimit:10;" x1="0" y1="380.5" x2="720" y2="380.5"/>
		<line style="opacity:0.4;fill:none;stroke:#5589A5;stroke-miterlimit:10;" x1="0" y1="360.5" x2="720" y2="360.5"/>
		<line style="opacity:0.4;fill:none;stroke:#5589A5;stroke-miterlimit:10;" x1="0" y1="340.5" x2="720" y2="340.5"/>
		<line style="opacity:0.4;fill:none;stroke:#5589A5;stroke-miterlimit:10;" x1="0" y1="320.5" x2="720" y2="320.5"/>
		<line style="fill:none;stroke:#5589A5;stroke-miterlimit:10;" x1="0" y1="300.5" x2="720" y2="300.5"/>
		<line style="opacity:0.4;fill:none;stroke:#5589A5;stroke-miterlimit:10;" x1="0" y1="280.5" x2="720" y2="280.5"/>
		<line style="opacity:0.4;fill:none;stroke:#5589A5;stroke-miterlimit:10;" x1="0" y1="260.5" x2="720" y2="260.5"/>
		<line style="opacity:0.4;fill:none;stroke:#5589A5;stroke-miterlimit:10;" x1="0" y1="240.5" x2="720" y2="240.5"/>
		<line style="opacity:0.4;fill:none;stroke:#5589A5;stroke-miterlimit:10;" x1="0" y1="220.5" x2="720" y2="220.5"/>
		<line style="fill:none;stroke:#5589A5;stroke-miterlimit:10;" x1="0" y1="200.5" x2="720" y2="200.5"/>
		<line style="opacity:0.4;fill:none;stroke:#5589A5;stroke-miterlimit:10;" x1="0" y1="180.5" x2="720" y2="180.5"/>
		<line style="opacity:0.4;fill:none;stroke:#5589A5;stroke-miterlimit:10;" x1="0" y1="160.5" x2="720" y2="160.5"/>
		<line style="opacity:0.4;fill:none;stroke:#5589A5;stroke-miterlimit:10;" x1="0" y1="140.5" x2="720" y2="140.5"/>
		<line style="opacity:0.4;fill:none;stroke:#5589A5;stroke-miterlimit:10;" x1="0" y1="120.5" x2="720" y2="120.5"/>
		<line style="fill:none;stroke:#5589A5;stroke-miterlimit:10;" x1="0" y1="100.5" x2="720" y2="100.5"/>
		<line style="opacity:0.4;fill:none;stroke:#5589A5;stroke-miterlimit:10;" x1="0" y1="80.5" x2="720" y2="80.5"/>
		<line style="opacity:0.4;fill:none;stroke:#5589A5;stroke-miterlimit:10;" x1="0" y1="60.5" x2="720" y2="60.5"/>
		<line style="opacity:0.4;fill:none;stroke:#5589A5;stroke-miterlimit:10;" x1="0" y1="40.5" x2="720" y2="40.5"/>
		<line style="opacity:0.4;fill:none;stroke:#5589A5;stroke-miterlimit:10;" x1="0" y1="20.5" x2="720" y2="20.5"/>
		<line style="fill:none;stroke:#5589A5;stroke-miterlimit:10;" x1="699.5" y1="0" x2="699.5" y2="400"/>
		<line style="opacity:0.4;fill:none;stroke:#5589A5;stroke-miterlimit:10;" x1="679.5" y1="0" x2="679.5" y2="400"/>
		<line style="opacity:0.4;fill:none;stroke:#5589A5;stroke-miterlimit:10;" x1="659.5" y1="0" x2="659.5" y2="400"/>
		<line style="opacity:0.4;fill:none;stroke:#5589A5;stroke-miterlimit:10;" x1="639.5" y1="0" x2="639.5" y2="400"/>
		<line style="opacity:0.4;fill:none;stroke:#5589A5;stroke-miterlimit:10;" x1="619.5" y1="0" x2="619.5" y2="400"/>
		<line style="fill:none;stroke:#5589A5;stroke-miterlimit:10;" x1="599.5" y1="0" x2="599.5" y2="400"/>
		<line style="opacity:0.4;fill:none;stroke:#5589A5;stroke-miterlimit:10;" x1="579.5" y1="0" x2="579.5" y2="400"/>
		<line style="opacity:0.4;fill:none;stroke:#5589A5;stroke-miterlimit:10;" x1="559.5" y1="0" x2="559.5" y2="400"/>
		<line style="opacity:0.4;fill:none;stroke:#5589A5;stroke-miterlimit:10;" x1="539.5" y1="0" x2="539.5" y2="400"/>
		<line style="opacity:0.4;fill:none;stroke:#5589A5;stroke-miterlimit:10;" x1="519.5" y1="0" x2="519.5" y2="400"/>
		<line style="fill:none;stroke:#5589A5;stroke-miterlimit:10;" x1="499.5" y1="0" x2="499.5" y2="400"/>
		<line style="opacity:0.4;fill:none;stroke:#5589A5;stroke-miterlimit:10;" x1="479.5" y1="0" x2="479.5" y2="400"/>
		<line style="opacity:0.4;fill:none;stroke:#5589A5;stroke-miterlimit:10;" x1="459.5" y1="0" x2="459.5" y2="400"/>
		<line style="opacity:0.4;fill:none;stroke:#5589A5;stroke-miterlimit:10;" x1="439.5" y1="0" x2="439.5" y2="400"/>
		<line style="opacity:0.4;fill:none;stroke:#5589A5;stroke-miterlimit:10;" x1="419.5" y1="0" x2="419.5" y2="400"/>
		<line style="fill:none;stroke:#5589A5;stroke-miterlimit:10;" x1="399.5" y1="0" x2="399.5" y2="400"/>
		<line style="opacity:0.4;fill:none;stroke:#5589A5;stroke-miterlimit:10;" x1="379.5" y1="0" x2="379.5" y2="400"/>
		<line style="opacity:0.4;fill:none;stroke:#5589A5;stroke-miterlimit:10;" x1="359.5" y1="0" x2="359.5" y2="400"/>
		<line style="opacity:0.4;fill:none;stroke:#5589A5;stroke-miterlimit:10;" x1="339.5" y1="0" x2="339.5" y2="400"/>
		<line style="opacity:0.4;fill:none;stroke:#5589A5;stroke-miterlimit:10;" x1="319.5" y1="0" x2="319.5" y2="400"/>
		<line style="fill:none;stroke:#5589A5;stroke-miterlimit:10;" x1="299.5" y1="0" x2="299.5" y2="400"/>
		<line style="opacity:0.4;fill:none;stroke:#5589A5;stroke-miterlimit:10;" x1="279.5" y1="0" x2="279.5" y2="400"/>
		<line style="opacity:0.4;fill:none;stroke:#5589A5;stroke-miterlimit:10;" x1="259.5" y1="0" x2="259.5" y2="400"/>
		<line style="opacity:0.4;fill:none;stroke:#5589A5;stroke-miterlimit:10;" x1="239.5" y1="0" x2="239.5" y2="400"/>
		<line style="opacity:0.4;fill:none;stroke:#5589A5;stroke-miterlimit:10;" x1="219.5" y1="0" x2="219.5" y2="400"/>
		<line style="fill:none;stroke:#5589A5;stroke-miterlimit:10;" x1="199.5" y1="0" x2="199.5" y2="400"/>
		<line style="opacity:0.4;fill:none;stroke:#5589A5;stroke-miterlimit:10;" x1="179.5" y1="0" x2="179.5" y2="400"/>
		<line style="opacity:0.4;fill:none;stroke:#5589A5;stroke-miterlimit:10;" x1="159.5" y1="0" x2="159.5" y2="400"/>
		<line style="opacity:0.4;fill:none;stroke:#5589A5;stroke-miterlimit:10;" x1="139.5" y1="0" x2="139.5" y2="400"/>
		<line style="opacity:0.4;fill:none;stroke:#5589A5;stroke-miterlimit:10;" x1="119.5" y1="0" x2="119.5" y2="400"/>
		<line style="fill:none;stroke:#5589A5;stroke-miterlimit:10;" x1="99.5" y1="0" x2="99.5" y2="400"/>
		<line style="opacity:0.4;fill:none;stroke:#5589A5;stroke-miterlimit:10;" x1="79.5" y1="0" x2="79.5" y2="400"/>
		<line style="opacity:0.4;fill:none;stroke:#5589A5;stroke-miterlimit:10;" x1="59.5" y1="0" x2="59.5" y2="400"/>
		<line style="opacity:0.4;fill:none;stroke:#5589A5;stroke-miterlimit:10;" x1="39.5" y1="0" x2="39.5" y2="400"/>
		<line style="opacity:0.4;fill:none;stroke:#5589A5;stroke-miterlimit:10;" x1="19.5" y1="0" x2="19.5" y2="400"/>
	</g>
	<g>
		<rect x="-1.5" y="587.5" style="fill:none;stroke:#5589A5;stroke-miterlimit:10;" width="720" height="400"/>
		<line style="opacity:0.4;fill:none;stroke:#5589A5;stroke-miterlimit:10;" x1="-1" y1="967.5" x2="719" y2="967.5"/>
		<line style="opacity:0.4;fill:none;stroke:#5589A5;stroke-miterlimit:10;" x1="-1" y1="947.5" x2="719" y2="947.5"/>
		<line style="opacity:0.4;fill:none;stroke:#5589A5;stroke-miterlimit:10;" x1="-1" y1="927.5" x2="719" y2="927.5"/>
		<line style="opacity:0.4;fill:none;stroke:#5589A5;stroke-miterlimit:10;" x1="-1" y1="907.5" x2="719" y2="907.5"/>
		<line style="fill:none;stroke:#5589A5;stroke-miterlimit:10;" x1="-1" y1="887.5" x2="719" y2="887.5"/>
		<line style="opacity:0.4;fill:none;stroke:#5589A5;stroke-miterlimit:10;" x1="-1" y1="867.5" x2="719" y2="867.5"/>
		<line style="opacity:0.4;fill:none;stroke:#5589A5;stroke-miterlimit:10;" x1="-1" y1="847.5" x2="719" y2="847.5"/>
		<line style="opacity:0.4;fill:none;stroke:#5589A5;stroke-miterlimit:10;" x1="-1" y1="827.5" x2="719" y2="827.5"/>
		<line style="opacity:0.4;fill:none;stroke:#5589A5;stroke-miterlimit:10;" x1="-1" y1="807.5" x2="719" y2="807.5"/>
		<line style="fill:none;stroke:#5589A5;stroke-miterlimit:10;" x1="-1" y1="787.5" x2="719" y2="787.5"/>
		<line style="opacity:0.4;fill:none;stroke:#5589A5;stroke-miterlimit:10;" x1="-1" y1="767.5" x2="719" y2="767.5"/>
		<line style="opacity:0.4;fill:none;stroke:#5589A5;stroke-miterlimit:10;" x1="-1" y1="747.5" x2="719" y2="747.5"/>
		<line style="opacity:0.4;fill:none;stroke:#5589A5;stroke-miterlimit:10;" x1="-1" y1="727.5" x2="719" y2="727.5"/>
		<line style="opacity:0.4;fill:none;stroke:#5589A5;stroke-miterlimit:10;" x1="-1" y1="707.5" x2="719" y2="707.5"/>
		<line style="fill:none;stroke:#5589A5;stroke-miterlimit:10;" x1="-1" y1="687.5" x2="719" y2="687.5"/>
		<line style="opacity:0.4;fill:none;stroke:#5589A5;stroke-miterlimit:10;" x1="-1" y1="667.5" x2="719" y2="667.5"/>
		<line style="opacity:0.4;fill:none;stroke:#5589A5;stroke-miterlimit:10;" x1="-1" y1="647.5" x2="719" y2="647.5"/>
		<line style="opacity:0.4;fill:none;stroke:#5589A5;stroke-miterlimit:10;" x1="-1" y1="627.5" x2="719" y2="627.5"/>
		<line style="opacity:0.4;fill:none;stroke:#5589A5;stroke-miterlimit:10;" x1="-1" y1="607.5" x2="719" y2="607.5"/>
		<line style="fill:none;stroke:#5589A5;stroke-miterlimit:10;" x1="698.5" y1="587" x2="698.5" y2="987"/>
		<line style="opacity:0.4;fill:none;stroke:#5589A5;stroke-miterlimit:10;" x1="678.5" y1="587" x2="678.5" y2="987"/>
		<line style="opacity:0.4;fill:none;stroke:#5589A5;stroke-miterlimit:10;" x1="658.5" y1="587" x2="658.5" y2="987"/>
		<line style="opacity:0.4;fill:none;stroke:#5589A5;stroke-miterlimit:10;" x1="638.5" y1="587" x2="638.5" y2="987"/>
		<line style="opacity:0.4;fill:none;stroke:#5589A5;stroke-miterlimit:10;" x1="618.5" y1="587" x2="618.5" y2="987"/>
		<line style="fill:none;stroke:#5589A5;stroke-miterlimit:10;" x1="598.5" y1="587" x2="598.5" y2="987"/>
		<line style="opacity:0.4;fill:none;stroke:#5589A5;stroke-miterlimit:10;" x1="578.5" y1="587" x2="578.5" y2="987"/>
		<line style="opacity:0.4;fill:none;stroke:#5589A5;stroke-miterlimit:10;" x1="558.5" y1="587" x2="558.5" y2="987"/>
		<line style="opacity:0.4;fill:none;stroke:#5589A5;stroke-miterlimit:10;" x1="538.5" y1="587" x2="538.5" y2="987"/>
		<line style="opacity:0.4;fill:none;stroke:#5589A5;stroke-miterlimit:10;" x1="518.5" y1="587" x2="518.5" y2="987"/>
		<line style="fill:none;stroke:#5589A5;stroke-miterlimit:10;" x1="498.5" y1="587" x2="498.5" y2="987"/>
		<line style="opacity:0.4;fill:none;stroke:#5589A5;stroke-miterlimit:10;" x1="478.5" y1="587" x2="478.5" y2="987"/>
		<line style="opacity:0.4;fill:none;stroke:#5589A5;stroke-miterlimit:10;" x1="458.5" y1="587" x2="458.5" y2="987"/>
		<line style="opacity:0.4;fill:none;stroke:#5589A5;stroke-miterlimit:10;" x1="438.5" y1="587" x2="438.5" y2="987"/>
		<line style="opacity:0.4;fill:none;stroke:#5589A5;stroke-miterlimit:10;" x1="418.5" y1="587" x2="418.5" y2="987"/>
		<line style="fill:none;stroke:#5589A5;stroke-miterlimit:10;" x1="398.5" y1="587" x2="398.5" y2="987"/>
		<line style="opacity:0.4;fill:none;stroke:#5589A5;stroke-miterlimit:10;" x1="378.5" y1="587" x2="378.5" y2="987"/>
		<line style="opacity:0.4;fill:none;stroke:#5589A5;stroke-miterlimit:10;" x1="358.5" y1="587" x2="358.5" y2="987"/>
		<line style="opacity:0.4;fill:none;stroke:#5589A5;stroke-miterlimit:10;" x1="338.5" y1="587" x2="338.5" y2="987"/>
		<line style="opacity:0.4;fill:none;stroke:#5589A5;stroke-miterlimit:10;" x1="318.5" y1="587" x2="318.5" y2="987"/>
		<line style="fill:none;stroke:#5589A5;stroke-miterlimit:10;" x1="298.5" y1="587" x2="298.5" y2="987"/>
		<line style="opacity:0.4;fill:none;stroke:#5589A5;stroke-miterlimit:10;" x1="278.5" y1="587" x2="278.5" y2="987"/>
		<line style="opacity:0.4;fill:none;stroke:#5589A5;stroke-miterlimit:10;" x1="258.5" y1="587" x2="258.5" y2="987"/>
		<line style="opacity:0.4;fill:none;stroke:#5589A5;stroke-miterlimit:10;" x1="238.5" y1="587" x2="238.5" y2="987"/>
		<line style="opacity:0.4;fill:none;stroke:#5589A5;stroke-miterlimit:10;" x1="218.5" y1="587" x2="218.5" y2="987"/>
		<line style="fill:none;stroke:#5589A5;stroke-miterlimit:10;" x1="198.5" y1="587" x2="198.5" y2="987"/>
		<line style="opacity:0.4;fill:none;stroke:#5589A5;stroke-miterlimit:10;" x1="178.5" y1="587" x2="178.5" y2="987"/>
		<line style="opacity:0.4;fill:none;stroke:#5589A5;stroke-miterlimit:10;" x1="158.5" y1="587" x2="158.5" y2="987"/>
		<line style="opacity:0.4;fill:none;stroke:#5589A5;stroke-miterlimit:10;" x1="138.5" y1="587" x2="138.5" y2="987"/>
		<line style="opacity:0.4;fill:none;stroke:#5589A5;stroke-miterlimit:10;" x1="118.5" y1="587" x2="118.5" y2="987"/>
		<line style="fill:none;stroke:#5589A5;stroke-miterlimit:10;" x1="98.5" y1="587" x2="98.5" y2="987"/>
		<line style="opacity:0.4;fill:none;stroke:#5589A5;stroke-miterlimit:10;" x1="78.5" y1="587" x2="78.5" y2="987"/>
		<line style="opacity:0.4;fill:none;stroke:#5589A5;stroke-miterlimit:10;" x1="58.5" y1="587" x2="58.5" y2="987"/>
		<line style="opacity:0.4;fill:none;stroke:#5589A5;stroke-miterlimit:10;" x1="38.5" y1="587" x2="38.5" y2="987"/>
		<line style="opacity:0.4;fill:none;stroke:#5589A5;stroke-miterlimit:10;" x1="18.5" y1="587" x2="18.5" y2="987"/>
	</g>
	<g>
		<rect x="-1.5" y="1167.5" style="fill:none;stroke:#5589A5;stroke-miterlimit:10;" width="720" height="400"/>
		<line style="opacity:0.4;fill:none;stroke:#5589A5;stroke-miterlimit:10;" x1="-1" y1="1547.5" x2="719" y2="1547.5"/>
		<line style="opacity:0.4;fill:none;stroke:#5589A5;stroke-miterlimit:10;" x1="-1" y1="1527.5" x2="719" y2="1527.5"/>
		<line style="opacity:0.4;fill:none;stroke:#5589A5;stroke-miterlimit:10;" x1="-1" y1="1507.5" x2="719" y2="1507.5"/>
		<line style="opacity:0.4;fill:none;stroke:#5589A5;stroke-miterlimit:10;" x1="-1" y1="1487.5" x2="719" y2="1487.5"/>
		<line style="fill:none;stroke:#5589A5;stroke-miterlimit:10;" x1="-1" y1="1467.5" x2="719" y2="1467.5"/>
		<line style="opacity:0.4;fill:none;stroke:#5589A5;stroke-miterlimit:10;" x1="-1" y1="1447.5" x2="719" y2="1447.5"/>
		<line style="opacity:0.4;fill:none;stroke:#5589A5;stroke-miterlimit:10;" x1="-1" y1="1427.5" x2="719" y2="1427.5"/>
		<line style="opacity:0.4;fill:none;stroke:#5589A5;stroke-miterlimit:10;" x1="-1" y1="1407.5" x2="719" y2="1407.5"/>
		<line style="opacity:0.4;fill:none;stroke:#5589A5;stroke-miterlimit:10;" x1="-1" y1="1387.5" x2="719" y2="1387.5"/>
		<line style="fill:none;stroke:#5589A5;stroke-miterlimit:10;" x1="-1" y1="1367.5" x2="719" y2="1367.5"/>
		<line style="opacity:0.4;fill:none;stroke:#5589A5;stroke-miterlimit:10;" x1="-1" y1="1347.5" x2="719" y2="1347.5"/>
		<line style="opacity:0.4;fill:none;stroke:#5589A5;stroke-miterlimit:10;" x1="-1" y1="1327.5" x2="719" y2="1327.5"/>
		<line style="opacity:0.4;fill:none;stroke:#5589A5;stroke-miterlimit:10;" x1="-1" y1="1307.5" x2="719" y2="1307.5"/>
		<line style="opacity:0.4;fill:none;stroke:#5589A5;stroke-miterlimit:10;" x1="-1" y1="1287.5" x2="719" y2="1287.5"/>
		<line style="fill:none;stroke:#5589A5;stroke-miterlimit:10;" x1="-1" y1="1267.5" x2="719" y2="1267.5"/>
		<line style="opacity:0.4;fill:none;stroke:#5589A5;stroke-miterlimit:10;" x1="-1" y1="1247.5" x2="719" y2="1247.5"/>
		<line style="opacity:0.4;fill:none;stroke:#5589A5;stroke-miterlimit:10;" x1="-1" y1="1227.5" x2="719" y2="1227.5"/>
		<line style="opacity:0.4;fill:none;stroke:#5589A5;stroke-miterlimit:10;" x1="-1" y1="1207.5" x2="719" y2="1207.5"/>
		<line style="opacity:0.4;fill:none;stroke:#5589A5;stroke-miterlimit:10;" x1="-1" y1="1187.5" x2="719" y2="1187.5"/>
		<line style="fill:none;stroke:#5589A5;stroke-miterlimit:10;" x1="698.5" y1="1167" x2="698.5" y2="1567"/>
		<line style="opacity:0.4;fill:none;stroke:#5589A5;stroke-miterlimit:10;" x1="678.5" y1="1167" x2="678.5" y2="1567"/>
		<line style="opacity:0.4;fill:none;stroke:#5589A5;stroke-miterlimit:10;" x1="658.5" y1="1167" x2="658.5" y2="1567"/>
		<line style="opacity:0.4;fill:none;stroke:#5589A5;stroke-miterlimit:10;" x1="638.5" y1="1167" x2="638.5" y2="1567"/>
		<line style="opacity:0.4;fill:none;stroke:#5589A5;stroke-miterlimit:10;" x1="618.5" y1="1167" x2="618.5" y2="1567"/>
		<line style="fill:none;stroke:#5589A5;stroke-miterlimit:10;" x1="598.5" y1="1167" x2="598.5" y2="1567"/>
		<line style="opacity:0.4;fill:none;stroke:#5589A5;stroke-miterlimit:10;" x1="578.5" y1="1167" x2="578.5" y2="1567"/>
		<line style="opacity:0.4;fill:none;stroke:#5589A5;stroke-miterlimit:10;" x1="558.5" y1="1167" x2="558.5" y2="1567"/>
		<line style="opacity:0.4;fill:none;stroke:#5589A5;stroke-miterlimit:10;" x1="538.5" y1="1167" x2="538.5" y2="1567"/>
		<line style="opacity:0.4;fill:none;stroke:#5589A5;stroke-miterlimit:10;" x1="518.5" y1="1167" x2="518.5" y2="1567"/>
		<line style="fill:none;stroke:#5589A5;stroke-miterlimit:10;" x1="498.5" y1="1167" x2="498.5" y2="1567"/>
		<line style="opacity:0.4;fill:none;stroke:#5589A5;stroke-miterlimit:10;" x1="478.5" y1="1167" x2="478.5" y2="1567"/>
		<line style="opacity:0.4;fill:none;stroke:#5589A5;stroke-miterlimit:10;" x1="458.5" y1="1167" x2="458.5" y2="1567"/>
		<line style="opacity:0.4;fill:none;stroke:#5589A5;stroke-miterlimit:10;" x1="438.5" y1="1167" x2="438.5" y2="1567"/>
		<line style="opacity:0.4;fill:none;stroke:#5589A5;stroke-miterlimit:10;" x1="418.5" y1="1167" x2="418.5" y2="1567"/>
		<line style="fill:none;stroke:#5589A5;stroke-miterlimit:10;" x1="398.5" y1="1167" x2="398.5" y2="1567"/>
		<line style="opacity:0.4;fill:none;stroke:#5589A5;stroke-miterlimit:10;" x1="378.5" y1="1167" x2="378.5" y2="1567"/>
		<line style="opacity:0.4;fill:none;stroke:#5589A5;stroke-miterlimit:10;" x1="358.5" y1="1167" x2="358.5" y2="1567"/>
		<line style="opacity:0.4;fill:none;stroke:#5589A5;stroke-miterlimit:10;" x1="338.5" y1="1167" x2="338.5" y2="1567"/>
		<line style="opacity:0.4;fill:none;stroke:#5589A5;stroke-miterlimit:10;" x1="318.5" y1="1167" x2="318.5" y2="1567"/>
		<line style="fill:none;stroke:#5589A5;stroke-miterlimit:10;" x1="298.5" y1="1167" x2="298.5" y2="1567"/>
		<line style="opacity:0.4;fill:none;stroke:#5589A5;stroke-miterlimit:10;" x1="278.5" y1="1167" x2="278.5" y2="1567"/>
		<line style="opacity:0.4;fill:none;stroke:#5589A5;stroke-miterlimit:10;" x1="258.5" y1="1167" x2="258.5" y2="1567"/>
		<line style="opacity:0.4;fill:none;stroke:#5589A5;stroke-miterlimit:10;" x1="238.5" y1="1167" x2="238.5" y2="1567"/>
		<line style="opacity:0.4;fill:none;stroke:#5589A5;stroke-miterlimit:10;" x1="218.5" y1="1167" x2="218.5" y2="1567"/>
		<line style="fill:none;stroke:#5589A5;stroke-miterlimit:10;" x1="198.5" y1="1167" x2="198.5" y2="1567"/>
		<line style="opacity:0.4;fill:none;stroke:#5589A5;stroke-miterlimit:10;" x1="178.5" y1="1167" x2="178.5" y2="1567"/>
		<line style="opacity:0.4;fill:none;stroke:#5589A5;stroke-miterlimit:10;" x1="158.5" y1="1167" x2="158.5" y2="1567"/>
		<line style="opacity:0.4;fill:none;stroke:#5589A5;stroke-miterlimit:10;" x1="138.5" y1="1167" x2="138.5" y2="1567"/>
		<line style="opacity:0.4;fill:none;stroke:#5589A5;stroke-miterlimit:10;" x1="118.5" y1="1167" x2="118.5" y2="1567"/>
		<line style="fill:none;stroke:#5589A5;stroke-miterlimit:10;" x1="98.5" y1="1167" x2="98.5" y2="1567"/>
		<line style="opacity:0.4;fill:none;stroke:#5589A5;stroke-miterlimit:10;" x1="78.5" y1="1167" x2="78.5" y2="1567"/>
		<line style="opacity:0.4;fill:none;stroke:#5589A5;stroke-miterlimit:10;" x1="58.5" y1="1167" x2="58.5" y2="1567"/>
		<line style="opacity:0.4;fill:none;stroke:#5589A5;stroke-miterlimit:10;" x1="38.5" y1="1167" x2="38.5" y2="1567"/>
		<line style="opacity:0.4;fill:none;stroke:#5589A5;stroke-miterlimit:10;" x1="18.5" y1="1167" x2="18.5" y2="1567"/>
	</g>
	
		<text transform="matrix(1 0 0 1 217.2273 -308.9276)" style="opacity:0.5;fill:#FFFFFF; font-family:'Arial-BoldMT'; font-size:100;">720px</text>
	
		<text transform="matrix(1 0 0 1 158.2273 221.0724)" style="display:none;opacity:0.5;fill:#FFFFFF; font-family:'Arial-BoldMT'; font-size:100;">600px</text>
	<text transform="matrix(1 0 0 1 106.408 809.3303)" style="opacity:0.5;fill:#FFFFFF; font-family:'Arial-BoldMT'; font-size:72;">420px</text>
	
		<text transform="matrix(1 0 0 1 63.9363 1337.0901)" style="opacity:0.5;fill:#FFFFFF; font-family:'Arial-BoldMT'; font-size:60;">300px</text>
	<g style="opacity:0.5;">
	</g>
</g>
<g id="ai2html-settings">
	<rect x="-451.516" y="-533" style="fill:none;" width="307" height="462"/>
	<text transform="matrix(1 0 0 1 -451.5156 -522.3501)" style="display:none;"><tspan x="0" y="0" style="display:inline; font-family:'MyriadPro-Regular'; font-size:15;">ai2html-settings</tspan><tspan x="0" y="18" style="display:inline; font-family:'MyriadPro-Regular'; font-size:15;">settings_version: 0.56</tspan><tspan x="0" y="36" style="display:inline; font-family:'MyriadPro-Regular'; font-size:15;">image_format: svg</tspan><tspan x="0" y="54" style="display:inline; font-family:'MyriadPro-Regular'; font-size:15;">responsiveness: </tspan><tspan x="101.637" y="54" style="display:inline; font-family:'MyriadPro-Regular'; font-size:15;">fixed</tspan><tspan x="0" y="72" style="display:inline; font-family:'MyriadPro-Regular'; font-size:15;">output: one-file</tspan><tspan x="0" y="90" style="display:inline; font-family:'MyriadPro-Regular'; font-size:15;">create_promo_images: false</tspan><tspan x="0" y="108" style="display:inline; font-family:'MyriadPro-Regular'; font-size:15;">html_output_path: /ai2html-output/</tspan><tspan x="0" y="126" style="display:inline; font-family:'MyriadPro-Regular'; font-size:15;">html_output_extension: .html</tspan><tspan x="0" y="144" style="display:inline; font-family:'NYTFranklin-Light'; font-size:15;">html_output_path: ../_includes/</tspan><tspan x="0" y="162" style="display:inline; font-family:'NYTFranklin-Light'; font-size:15;">image_output_path: ../images/</tspan><tspan x="0" y="180" style="display:inline; font-family:'NYTFranklin-Light'; font-size:15;">image_source_path: images/</tspan><tspan x="0" y="198" style="display:inline; font-family:'MyriadPro-Regular'; font-size:15;">local_preview_template: </tspan><tspan x="0" y="216" style="display:inline; font-family:'MyriadPro-Regular'; font-size:15;">png_number_of_colors: 128</tspan><tspan x="0" y="234" style="display:inline; font-family:'MyriadPro-Regular'; font-size:15;">jpg_quality: 60</tspan><tspan x="0" y="252" style="display:inline; font-family:'MyriadPro-Regular'; font-size:15;">headline: Ai Graphic Headline</tspan><tspan x="0" y="270" style="display:inline; font-family:'MyriadPro-Regular'; font-size:15;">leadin: Introductory text here.</tspan><tspan x="0" y="288" style="display:inline; font-family:'MyriadPro-Regular'; font-size:15;">notes: Notes: Text goes here.</tspan><tspan x="0" y="324" style="display:inline; font-family:'MyriadPro-Regular'; font-size:15;">sources: Source: Name goes here.</tspan><tspan x="0" y="342" style="display:inline; font-family:'MyriadPro-Regular'; font-size:15;">credit: By ai2html</tspan></text>
</g>
</svg>
